<svg id="svg" version="1.1" xmlns="http://www.w3.org/2000/svg" xmlns:xlink="http://www.w3.org/1999/xlink" width="400" height="400" viewBox="0, 0, 400,400"><g id="svgg"><path id="path0" d="M257.400 107.872 C 255.420 109.767,250.470 114.500,246.400 118.390 C 242.330 122.279,237.380 127.013,235.400 128.909 L 231.800 132.358 238.396 138.979 L 244.991 145.600 238.296 152.304 C 230.608 160.002,230.982 159.217,233.713 161.914 C 236.403 164.571,235.947 164.924,238.636 158.100 C 241.363 151.177,239.207 153.713,260.300 132.624 C 268.275 124.650,274.800 117.991,274.800 117.824 C 274.800 117.422,261.691 104.396,261.303 104.413 C 261.136 104.420,259.380 105.976,257.400 107.872 M165.599 202.040 C 128.123 239.492,124.755 242.966,124.993 243.914 C 125.135 244.482,125.511 247.659,125.828 250.974 C 126.688 259.967,126.280 259.041,131.019 262.759 C 133.300 264.548,135.411 266.106,135.709 266.220 C 136.047 266.350,140.140 262.184,146.616 255.114 C 152.318 248.891,157.078 243.710,157.195 243.600 C 157.311 243.490,159.377 241.240,161.786 238.600 C 164.194 235.960,166.998 232.900,168.017 231.800 C 169.036 230.700,172.911 226.470,176.629 222.400 C 180.348 218.330,183.489 214.910,183.610 214.800 C 183.731 214.690,185.801 212.440,188.210 209.800 C 190.620 207.160,192.773 204.804,192.996 204.566 C 193.218 204.327,195.020 202.351,197.000 200.176 C 198.980 198.000,201.938 194.776,203.573 193.010 C 208.023 188.206,210.175 185.866,214.801 180.805 C 217.110 178.277,219.225 175.969,219.500 175.676 C 219.775 175.383,220.000 174.962,220.000 174.741 C 220.000 174.343,207.059 161.200,206.667 161.200 C 206.556 161.200,188.075 179.578,165.599 202.040 M216.400 206.382 C 216.070 206.742,214.200 208.829,212.244 211.019 C 210.288 213.208,207.723 216.018,206.544 217.262 C 204.101 219.840,203.971 220.338,205.503 221.262 C 206.106 221.627,208.040 222.804,209.800 223.879 C 217.640 228.666,227.363 232.949,236.400 235.596 C 242.863 237.490,245.933 238.246,248.600 238.599 C 249.700 238.745,251.140 239.020,251.800 239.210 C 259.037 241.291,289.600 241.265,289.600 239.177 C 289.600 238.803,289.947 238.251,290.371 237.949 C 291.101 237.429,291.111 237.263,290.574 234.800 C 289.656 230.586,288.329 224.303,288.054 222.868 L 287.800 221.537 276.200 221.444 C 252.573 221.256,234.523 216.787,219.942 207.516 C 216.961 205.621,217.066 205.655,216.400 206.382 M159.858 267.639 C 159.010 268.608,157.255 270.528,155.958 271.908 C 153.232 274.807,153.222 274.837,154.768 275.522 C 157.965 276.937,162.400 282.429,162.400 284.973 C 162.400 285.059,163.046 286.540,163.835 288.264 C 166.390 293.850,167.052 295.335,168.802 299.400 C 171.691 306.109,172.516 306.790,175.821 305.190 C 178.992 303.655,179.210 303.049,177.295 301.089 C 176.313 300.083,174.970 297.944,173.974 295.800 C 173.054 293.820,171.494 290.490,170.507 288.400 C 167.521 282.074,166.154 279.152,164.611 275.800 C 163.801 274.040,162.863 272.017,162.526 271.305 C 162.189 270.593,161.798 269.081,161.657 267.945 L 161.400 265.879 159.858 267.639 M114.545 282.500 C 112.394 285.635,109.397 290.000,107.885 292.200 C 106.372 294.400,104.588 297.010,103.920 298.000 C 102.207 300.540,98.743 303.320,94.961 305.191 L 91.723 306.793 72.811 331.644 C 62.410 345.312,53.821 356.797,53.725 357.167 C 53.600 357.643,54.461 358.483,56.674 360.048 C 60.362 362.655,72.575 371.597,76.307 374.422 C 79.883 377.129,79.521 377.419,83.960 368.300 C 86.129 363.845,89.928 356.060,92.402 351.000 C 94.877 345.940,98.297 338.920,100.003 335.400 C 101.708 331.880,105.174 324.770,107.703 319.600 C 110.233 314.430,114.674 305.340,117.572 299.400 C 120.471 293.460,123.558 287.174,124.432 285.431 C 125.306 283.688,125.882 282.127,125.711 281.962 C 124.872 281.152,119.000 276.800,118.746 276.800 C 118.586 276.800,116.696 279.365,114.545 282.500 " stroke="none" fill="#000000" fill-rule="evenodd"></path><path id="path1" d="M326.900 17.079 C 322.669 21.437,322.638 21.812,326.200 25.445 C 327.630 26.903,328.800 28.435,328.800 28.848 C 328.800 29.262,328.972 29.600,329.182 29.600 C 329.392 29.600,329.682 30.230,329.826 31.000 C 329.971 31.770,330.228 32.400,330.397 32.400 C 330.566 32.400,330.920 33.253,331.182 34.295 C 331.445 35.337,331.805 36.372,331.983 36.595 C 332.162 36.818,332.433 37.585,332.586 38.300 C 332.738 39.015,333.029 39.600,333.232 39.600 C 333.434 39.600,333.600 39.947,333.600 40.371 C 333.600 40.796,333.870 41.413,334.200 41.743 C 334.530 42.073,334.800 42.428,334.800 42.532 C 334.800 42.987,315.046 62.395,314.361 62.612 C 313.943 62.745,313.600 63.007,313.600 63.195 C 313.600 63.383,313.015 63.663,312.300 63.818 C 311.585 63.974,310.871 64.303,310.714 64.550 C 310.319 65.173,298.332 65.169,297.561 64.546 C 295.754 63.085,294.613 63.431,291.851 66.278 C 290.398 67.775,289.050 69.158,288.855 69.350 C 288.451 69.748,281.884 76.314,281.350 76.854 C 281.157 77.048,279.560 78.624,277.800 80.357 C 276.040 82.089,273.910 84.247,273.066 85.153 C 271.483 86.854,271.024 87.086,270.600 86.400 C 269.889 85.250,264.000 90.227,264.000 91.978 C 264.000 92.844,285.790 114.800,286.649 114.800 C 287.895 114.800,290.093 111.930,289.876 110.588 C 289.678 109.373,290.903 108.095,323.635 75.365 L 357.600 41.402 357.600 39.763 C 357.600 37.940,356.703 36.800,355.269 36.800 C 353.951 36.800,354.197 36.244,356.600 33.782 C 359.267 31.051,359.335 31.699,356.036 28.381 C 352.818 25.143,352.440 25.066,350.306 27.200 C 348.417 29.089,348.359 29.100,347.142 27.773 C 346.401 26.965,343.100 23.655,339.492 20.104 C 339.322 19.937,337.833 18.405,336.184 16.700 C 332.015 12.391,331.427 12.415,326.900 17.079 M346.000 45.009 C 346.000 45.392,322.693 68.426,322.500 68.233 C 322.285 68.019,345.234 44.864,345.700 44.825 C 345.865 44.811,346.000 44.894,346.000 45.009 M299.977 75.977 C 300.747 76.747,300.659 76.850,290.930 86.577 C 285.526 91.980,281.029 96.400,280.936 96.400 C 280.843 96.400,280.392 96.051,279.935 95.625 L 279.104 94.851 288.852 85.054 C 299.486 74.367,298.870 74.870,299.977 75.977 M307.200 83.781 C 307.200 84.158,287.096 104.029,286.906 103.840 C 286.686 103.620,306.422 83.667,306.900 83.626 C 307.065 83.612,307.200 83.682,307.200 83.781 M260.520 92.900 C 260.344 93.175,259.375 94.062,258.367 94.872 C 257.359 95.681,253.904 98.921,250.689 102.072 C 243.208 109.402,232.766 119.398,230.236 121.651 C 226.108 125.326,220.000 131.709,220.007 132.340 C 220.011 132.703,222.801 135.771,226.207 139.157 C 229.613 142.543,232.400 145.393,232.400 145.490 C 232.400 145.587,229.430 148.631,225.800 152.254 C 222.170 155.877,219.200 159.030,219.200 159.261 C 219.200 159.492,222.279 162.761,226.043 166.524 L 232.886 173.368 235.410 173.528 C 237.831 173.682,241.600 172.493,241.600 171.576 C 241.600 171.420,241.960 171.199,242.400 171.084 C 242.941 170.943,243.200 170.538,243.200 169.837 C 243.200 169.267,243.372 168.800,243.582 168.800 C 243.792 168.800,244.082 168.170,244.226 167.400 C 244.371 166.630,244.641 166.000,244.826 166.000 C 245.012 166.000,245.282 165.370,245.426 164.600 C 245.571 163.830,245.847 163.200,246.040 163.200 C 246.233 163.200,246.506 162.480,246.646 161.600 C 246.787 160.720,247.045 160.000,247.219 160.000 C 247.394 160.000,247.663 159.415,247.818 158.700 C 248.260 156.660,248.593 156.299,266.580 138.340 C 275.941 128.993,283.600 121.053,283.600 120.696 C 283.600 120.339,283.780 119.936,284.000 119.800 C 284.220 119.664,284.400 118.573,284.400 117.376 C 284.400 116.179,284.220 115.200,284.000 115.200 C 283.780 115.200,283.600 114.938,283.600 114.618 C 283.600 113.871,262.148 92.400,261.402 92.400 C 261.093 92.400,260.696 92.625,260.520 92.900 M275.200 117.797 C 275.200 118.021,267.639 125.763,258.397 135.002 C 241.707 151.688,241.588 151.819,240.542 154.600 C 239.964 156.140,239.187 158.120,238.816 159.000 C 238.445 159.880,237.807 161.410,237.397 162.400 C 236.249 165.177,236.202 165.177,233.396 162.396 C 230.105 159.134,229.737 160.052,237.400 152.400 C 241.030 148.775,244.000 145.648,244.000 145.451 C 244.000 145.254,241.210 142.319,237.800 138.930 C 234.390 135.541,231.600 132.596,231.600 132.384 C 231.600 132.039,235.520 128.165,246.153 118.000 C 248.109 116.130,250.547 113.790,251.570 112.800 C 252.594 111.810,255.203 109.316,257.369 107.257 L 261.306 103.515 268.253 110.453 C 272.074 114.269,275.200 117.574,275.200 117.797 M167.779 187.433 C 131.130 224.089,115.669 239.805,115.934 240.133 C 116.142 240.390,116.444 242.843,116.605 245.584 C 116.766 248.326,117.046 250.846,117.226 251.184 C 117.406 251.523,117.725 254.428,117.936 257.641 C 118.329 263.634,118.671 264.831,120.189 265.522 C 120.973 265.879,121.868 266.573,124.291 268.700 C 124.855 269.195,125.471 269.600,125.658 269.600 C 125.846 269.600,126.337 269.915,126.748 270.300 C 129.029 272.436,129.967 273.200,130.306 273.200 C 130.513 273.200,131.137 273.605,131.693 274.100 C 132.248 274.595,133.283 275.450,133.993 276.000 C 134.703 276.550,135.522 277.225,135.813 277.500 C 136.797 278.429,140.761 275.938,140.795 274.369 C 140.798 274.242,142.195 272.679,143.900 270.895 C 150.381 264.112,153.384 260.847,153.523 260.432 C 153.601 260.196,155.046 258.576,156.733 256.832 C 158.420 255.088,160.741 252.628,161.892 251.366 L 163.984 249.070 167.956 253.135 C 170.141 255.371,172.214 257.200,172.564 257.200 C 172.914 257.200,173.200 257.372,173.200 257.582 C 173.200 257.792,173.830 258.082,174.600 258.226 C 175.370 258.371,176.000 258.649,176.000 258.845 C 176.000 259.309,181.886 259.309,182.173 258.844 C 182.294 258.649,182.858 258.372,183.426 258.229 C 184.032 258.077,187.720 254.722,192.330 250.127 L 200.200 242.284 200.335 238.413 C 200.529 232.858,200.190 232.201,193.899 225.948 C 189.968 222.042,188.929 220.400,190.388 220.400 C 190.555 220.400,191.210 219.635,191.844 218.700 C 192.479 217.765,193.232 216.851,193.518 216.669 C 194.243 216.209,198.203 212.019,199.296 210.556 C 199.793 209.891,201.280 208.269,202.600 206.951 C 203.920 205.634,205.622 203.796,206.381 202.866 C 207.141 201.937,208.671 200.227,209.781 199.067 C 210.892 197.908,213.330 195.285,215.200 193.238 C 217.070 191.192,219.738 188.322,221.129 186.859 C 222.520 185.397,224.050 183.697,224.529 183.083 C 225.008 182.469,226.785 180.527,228.478 178.768 C 232.906 174.167,233.194 175.115,224.829 166.786 C 220.853 162.826,217.600 159.496,217.600 159.387 C 217.600 159.277,220.480 156.318,224.000 152.812 C 228.408 148.422,230.400 146.163,230.400 145.555 C 230.400 144.634,221.336 135.200,220.451 135.200 C 220.204 135.200,196.501 158.705,167.779 187.433 M213.977 167.777 L 220.945 174.753 219.186 176.677 C 218.219 177.735,216.701 179.390,215.814 180.355 C 214.926 181.320,214.020 182.310,213.800 182.555 C 212.365 184.151,204.281 192.980,202.618 194.768 C 201.508 195.960,200.330 197.232,200.000 197.595 C 198.123 199.657,194.714 203.359,192.424 205.822 C 190.981 207.374,188.270 210.338,186.400 212.408 C 184.530 214.479,181.740 217.533,180.200 219.196 C 177.537 222.071,174.542 225.333,170.988 229.232 C 170.101 230.204,167.140 233.430,164.408 236.400 C 161.675 239.370,158.710 242.597,157.820 243.571 C 156.929 244.545,155.110 246.525,153.779 247.971 C 152.447 249.417,150.377 251.668,149.179 252.973 C 147.980 254.278,146.730 255.638,146.400 255.995 C 144.152 258.427,138.323 264.832,137.350 265.939 L 136.174 267.279 132.567 264.539 C 125.674 259.305,126.478 260.462,125.795 254.788 C 125.465 252.045,124.997 248.200,124.755 246.244 L 124.314 242.687 165.256 201.744 C 187.775 179.225,206.381 160.800,206.604 160.800 C 206.826 160.800,210.144 163.940,213.977 167.777 M214.631 195.168 C 214.064 195.760,213.600 196.359,213.600 196.500 C 213.600 196.640,212.475 197.926,211.100 199.356 C 209.725 200.786,207.317 203.361,205.748 205.078 C 203.220 207.845,201.911 209.304,198.489 213.170 C 197.987 213.737,196.322 215.534,194.789 217.165 C 191.351 220.820,191.191 221.742,193.700 223.446 C 195.329 224.552,195.623 224.773,196.969 225.900 C 197.298 226.175,197.745 226.400,197.963 226.400 C 198.182 226.400,198.504 226.635,198.680 226.922 C 198.856 227.209,199.720 227.875,200.600 228.401 C 201.480 228.927,202.290 229.457,202.400 229.579 C 202.687 229.897,204.038 230.726,205.200 231.298 C 205.750 231.569,206.438 232.018,206.729 232.295 C 207.019 232.573,207.501 232.800,207.800 232.800 C 208.099 232.800,208.581 233.030,208.871 233.310 C 209.563 233.977,217.652 238.001,218.300 238.001 C 218.575 238.000,218.800 238.180,218.800 238.400 C 218.800 238.620,219.025 238.806,219.300 238.814 C 219.575 238.821,220.520 239.175,221.400 239.600 C 222.280 240.025,223.270 240.380,223.600 240.389 C 223.930 240.398,224.703 240.667,225.317 240.988 C 225.931 241.308,227.056 241.687,227.817 241.830 C 228.578 241.972,229.200 242.229,229.200 242.399 C 229.200 242.570,230.010 242.831,231.000 242.979 C 231.990 243.128,232.800 243.401,232.800 243.587 C 232.800 243.773,233.700 244.049,234.800 244.200 C 235.900 244.351,236.800 244.621,236.800 244.798 C 236.800 244.976,237.880 245.247,239.200 245.400 C 240.520 245.553,241.600 245.816,241.600 245.983 C 241.600 246.287,244.730 246.875,250.400 247.637 C 252.050 247.859,253.988 248.224,254.707 248.449 C 258.014 249.482,289.662 249.482,290.958 248.449 C 291.201 248.256,292.646 247.968,294.168 247.809 C 297.230 247.491,298.400 246.964,298.400 245.904 C 298.400 245.467,298.703 245.200,299.200 245.200 C 299.640 245.200,300.000 245.020,300.000 244.800 C 300.000 244.580,300.288 244.400,300.639 244.400 C 301.311 244.400,301.098 239.665,300.406 239.200 C 300.242 239.090,299.976 237.920,299.814 236.600 C 299.651 235.280,299.393 234.110,299.239 234.000 C 299.086 233.890,298.665 232.090,298.304 230.000 C 297.119 223.137,296.768 221.408,296.431 220.784 C 296.248 220.445,295.968 219.050,295.810 217.683 C 295.651 216.317,295.359 215.098,295.161 214.976 C 294.962 214.853,294.800 214.328,294.800 213.809 C 294.800 212.108,294.384 211.600,292.991 211.600 C 292.262 211.600,291.592 211.825,291.500 212.100 C 291.271 212.786,260.118 212.833,259.685 212.148 C 259.528 211.899,257.914 211.565,256.098 211.406 C 254.282 211.247,252.707 210.973,252.598 210.798 C 252.490 210.622,251.321 210.353,250.000 210.200 C 248.679 210.047,247.508 209.775,247.398 209.597 C 247.287 209.418,245.938 209.059,244.399 208.800 C 242.859 208.540,241.600 208.175,241.600 207.988 C 241.600 207.802,240.790 207.528,239.800 207.379 C 238.810 207.231,238.000 206.958,238.000 206.773 C 238.000 206.588,237.370 206.318,236.600 206.174 C 235.830 206.029,235.200 205.765,235.200 205.587 C 235.200 205.409,234.660 205.145,234.000 205.000 C 233.340 204.855,232.800 204.571,232.800 204.368 C 232.800 204.166,232.591 204.000,232.337 204.000 C 231.737 204.000,225.955 201.146,225.298 200.526 C 225.021 200.266,224.439 199.939,224.003 199.801 C 223.265 199.567,222.113 198.717,220.397 197.139 C 220.002 196.776,219.301 196.359,218.839 196.213 C 218.378 196.066,218.000 195.791,218.000 195.602 C 218.000 194.410,215.647 194.107,214.631 195.168 M221.200 207.709 C 237.493 217.226,255.710 221.440,279.182 221.122 L 288.163 221.000 288.471 222.600 C 289.013 225.418,290.030 230.134,290.585 232.400 C 291.665 236.810,291.712 238.046,290.810 238.281 C 290.295 238.416,290.000 238.826,290.000 239.407 C 290.000 240.444,290.207 240.408,279.405 241.249 C 271.835 241.839,262.774 241.310,251.400 239.613 C 248.738 239.216,246.716 238.782,240.800 237.339 C 237.934 236.640,228.094 233.443,226.200 232.595 C 225.540 232.299,224.100 231.673,223.000 231.202 C 220.692 230.214,213.997 226.857,212.131 225.752 C 206.076 222.164,203.600 220.571,203.600 220.261 C 203.600 219.889,204.803 218.473,208.766 214.179 C 209.995 212.848,212.325 210.284,213.944 208.483 C 215.563 206.681,217.003 205.271,217.144 205.348 C 217.285 205.426,219.110 206.488,221.200 207.709 M190.319 233.277 C 191.431 234.309,192.650 235.805,193.027 236.601 L 193.714 238.049 192.157 239.658 C 187.534 244.435,186.689 245.221,186.456 244.968 C 186.315 244.815,186.425 244.610,186.700 244.512 C 187.370 244.273,187.333 243.276,186.629 242.571 C 185.980 241.922,182.400 241.777,182.400 242.400 C 182.400 244.837,176.078 240.752,175.721 238.084 C 175.493 236.390,175.107 236.922,181.773 229.758 L 184.145 227.207 186.222 229.304 C 187.364 230.457,189.208 232.245,190.319 233.277 M173.200 244.768 C 173.200 244.971,173.740 245.255,174.400 245.400 C 175.060 245.545,175.600 245.827,175.600 246.027 C 175.600 246.227,176.324 246.506,177.209 246.648 C 178.094 246.789,178.914 247.061,179.032 247.253 C 179.331 247.735,182.697 247.690,183.000 247.200 C 183.248 246.798,184.800 246.626,184.800 247.000 C 184.800 247.110,183.802 248.190,182.582 249.400 C 179.258 252.698,178.380 252.579,174.100 248.244 C 170.385 244.482,170.340 244.400,172.000 244.400 C 172.660 244.400,173.200 244.566,173.200 244.768 M162.168 252.124 C 161.490 252.826,160.500 254.022,159.968 254.781 C 159.436 255.541,158.550 256.556,158.000 257.037 C 156.119 258.683,155.000 259.817,153.685 261.408 C 152.962 262.284,150.934 264.530,149.178 266.400 C 138.864 277.386,139.284 276.545,142.500 279.787 C 144.490 281.794,144.728 281.915,147.049 282.109 C 150.229 282.376,152.796 283.976,153.388 286.061 C 153.723 287.240,154.912 289.733,155.268 290.004 C 155.416 290.116,155.669 290.734,155.830 291.377 C 155.991 292.020,156.365 293.009,156.659 293.573 C 156.954 294.138,157.196 294.825,157.198 295.100 C 157.199 295.375,157.372 295.600,157.582 295.600 C 157.792 295.600,158.082 296.230,158.226 297.000 C 158.371 297.770,158.626 298.400,158.793 298.400 C 158.959 298.400,159.323 299.210,159.600 300.200 C 159.877 301.190,160.241 302.000,160.407 302.000 C 160.574 302.000,160.829 302.630,160.974 303.400 C 161.118 304.170,161.408 304.800,161.618 304.800 C 161.828 304.800,162.000 304.990,162.000 305.222 C 162.000 305.820,163.594 309.246,164.142 309.827 C 164.394 310.093,164.940 310.781,165.356 311.356 C 165.772 311.930,166.357 312.400,166.656 312.400 C 166.955 312.400,167.200 312.539,167.200 312.709 C 167.200 314.401,175.244 315.281,177.800 313.868 C 178.460 313.503,179.225 313.204,179.500 313.202 C 179.775 313.201,180.000 313.020,180.000 312.800 C 180.000 312.580,180.242 312.400,180.539 312.400 C 180.835 312.400,181.448 312.085,181.901 311.700 C 182.355 311.315,183.124 310.730,183.612 310.400 C 185.155 309.356,187.600 306.971,187.600 306.510 C 187.600 306.266,187.787 306.004,188.016 305.928 C 189.893 305.302,188.287 299.883,185.366 296.987 C 184.178 295.809,182.771 293.818,181.975 292.187 C 181.227 290.654,180.476 289.340,180.307 289.267 C 180.138 289.193,180.000 288.958,180.000 288.745 C 180.000 288.096,177.229 281.989,176.758 281.600 C 176.625 281.490,176.294 280.718,176.022 279.885 C 175.750 279.052,175.007 277.342,174.369 276.085 C 173.732 274.828,173.208 273.575,173.205 273.300 C 173.202 273.025,173.034 272.800,172.832 272.800 C 172.629 272.800,172.345 272.260,172.200 271.600 C 172.055 270.940,171.771 270.400,171.568 270.400 C 171.366 270.400,171.199 270.175,171.198 269.900 C 171.196 269.625,170.924 268.881,170.593 268.246 C 170.106 267.311,170.087 266.977,170.496 266.485 C 170.815 266.099,171.000 264.615,171.000 262.429 C 171.000 258.933,170.870 258.554,169.100 256.883 C 168.715 256.520,168.400 256.084,168.400 255.916 C 168.400 255.747,168.085 255.232,167.700 254.771 C 166.196 252.970,165.779 252.445,165.212 251.637 C 164.408 250.494,163.622 250.619,162.168 252.124 M115.900 265.157 C 115.515 265.548,115.200 266.058,115.200 266.291 C 115.200 266.524,114.930 266.818,114.600 266.945 C 114.270 267.071,114.000 267.451,114.000 267.787 C 114.000 268.124,113.832 268.400,113.627 268.400 C 113.422 268.400,113.138 268.766,112.996 269.213 C 112.854 269.660,112.341 270.455,111.855 270.979 C 111.369 271.503,110.708 272.442,110.386 273.066 C 109.765 274.267,109.643 274.445,108.393 275.961 C 107.957 276.490,107.600 277.146,107.600 277.418 C 107.600 277.691,107.330 278.018,107.000 278.145 C 106.670 278.271,106.400 278.636,106.400 278.954 C 106.400 279.273,106.265 279.593,106.100 279.667 C 105.935 279.740,105.425 280.340,104.968 281.000 C 104.510 281.660,103.475 283.143,102.668 284.296 C 101.860 285.449,101.200 286.574,101.200 286.796 C 101.200 287.018,101.023 287.200,100.808 287.200 C 100.592 287.200,100.306 287.637,100.172 288.171 C 100.037 288.705,99.674 289.239,99.364 289.359 C 99.054 289.478,98.800 289.851,98.800 290.187 C 98.800 290.524,98.644 290.800,98.453 290.800 C 98.262 290.800,97.613 291.545,97.011 292.456 C 95.773 294.326,94.047 295.968,93.300 295.987 C 93.025 295.994,92.800 296.139,92.800 296.309 C 92.800 296.780,90.426 297.922,88.301 298.473 C 87.256 298.744,86.309 299.243,86.197 299.583 C 86.084 299.922,85.456 300.830,84.800 301.600 C 84.145 302.370,83.472 303.182,83.304 303.404 C 83.137 303.626,82.325 304.647,81.500 305.671 C 80.675 306.696,80.000 307.729,80.000 307.967 C 80.000 308.205,79.835 308.400,79.633 308.400 C 79.431 308.400,78.899 308.993,78.451 309.718 C 78.003 310.443,77.271 311.478,76.826 312.018 C 76.380 312.558,75.876 313.182,75.707 313.404 C 75.538 313.626,74.725 314.647,73.900 315.671 C 73.075 316.696,72.400 317.729,72.400 317.967 C 72.400 318.205,72.244 318.400,72.053 318.400 C 71.862 318.400,71.206 319.155,70.595 320.079 C 69.279 322.068,68.834 322.635,67.900 323.517 C 67.515 323.880,67.200 324.332,67.200 324.520 C 67.200 324.708,66.660 325.402,66.000 326.062 C 65.340 326.722,64.800 327.518,64.800 327.831 C 64.800 328.144,64.660 328.400,64.488 328.400 C 64.316 328.400,63.461 329.414,62.588 330.653 C 61.715 331.892,60.685 333.192,60.300 333.542 C 59.915 333.892,59.600 334.342,59.600 334.543 C 59.600 334.744,59.150 335.325,58.600 335.835 C 58.050 336.345,57.600 336.918,57.600 337.109 C 57.600 337.300,57.069 338.051,56.420 338.778 C 55.771 339.505,54.737 340.842,54.121 341.750 C 53.506 342.657,52.777 343.544,52.501 343.720 C 52.226 343.896,52.000 344.235,52.000 344.474 C 52.000 344.713,51.550 345.325,51.000 345.835 C 50.450 346.345,50.000 346.922,50.000 347.119 C 50.000 347.315,49.640 347.802,49.200 348.200 C 48.760 348.598,48.400 349.085,48.400 349.281 C 48.400 349.478,47.950 350.055,47.400 350.565 C 46.850 351.075,46.400 351.625,46.400 351.788 C 46.400 351.951,45.995 352.588,45.500 353.203 C 45.005 353.818,44.150 354.918,43.600 355.647 C 43.050 356.376,42.285 357.294,41.900 357.686 C 40.880 358.726,41.009 359.937,42.171 360.228 C 42.705 360.363,43.239 360.726,43.359 361.036 C 43.478 361.346,43.851 361.600,44.187 361.600 C 44.524 361.600,44.800 361.750,44.800 361.932 C 44.800 362.115,45.294 362.520,45.897 362.832 C 46.500 363.145,47.376 363.805,47.843 364.300 C 48.310 364.795,48.856 365.200,49.057 365.200 C 49.258 365.200,49.730 365.560,50.107 366.000 C 50.484 366.440,51.064 366.800,51.396 366.800 C 51.728 366.800,52.000 366.947,52.000 367.127 C 52.000 367.494,57.012 371.241,58.100 371.687 C 58.485 371.845,58.800 372.148,58.800 372.360 C 58.800 372.572,59.178 372.866,59.639 373.013 C 60.101 373.159,60.790 373.576,61.171 373.939 C 62.546 375.252,64.012 376.400,64.314 376.400 C 64.484 376.400,64.930 376.760,65.307 377.200 C 65.684 377.640,66.264 378.000,66.596 378.000 C 66.928 378.000,67.200 378.184,67.200 378.409 C 67.200 378.633,67.689 379.038,68.286 379.309 C 68.883 379.579,69.863 380.250,70.464 380.800 C 72.082 382.282,72.528 382.613,73.300 382.908 C 73.685 383.055,74.000 383.348,74.000 383.560 C 74.000 383.773,74.366 384.062,74.813 384.204 C 75.260 384.346,76.096 384.898,76.671 385.431 C 79.089 387.671,86.400 385.387,86.400 382.391 C 86.400 382.162,86.670 381.871,87.000 381.745 C 87.330 381.618,87.600 381.328,87.600 381.099 C 87.600 380.871,88.230 379.374,89.000 377.773 C 89.770 376.172,90.400 374.668,90.400 374.431 C 90.400 374.194,90.566 374.000,90.768 374.000 C 90.971 374.000,91.255 373.460,91.400 372.800 C 91.545 372.140,91.815 371.600,92.000 371.600 C 92.185 371.600,92.455 371.060,92.600 370.400 C 92.745 369.740,93.006 369.200,93.180 369.200 C 93.354 369.200,93.723 368.390,94.000 367.400 C 94.277 366.410,94.641 365.600,94.809 365.600 C 94.976 365.600,95.237 365.107,95.388 364.504 C 95.540 363.901,95.795 363.316,95.956 363.204 C 96.406 362.890,101.513 352.344,101.818 351.100 C 101.966 350.495,102.233 350.000,102.412 350.000 C 102.590 350.000,102.855 349.460,103.000 348.800 C 103.145 348.140,103.415 347.600,103.600 347.600 C 103.785 347.600,104.055 347.060,104.200 346.400 C 104.345 345.740,104.615 345.200,104.800 345.200 C 104.985 345.200,105.255 344.660,105.400 344.000 C 105.545 343.340,105.810 342.800,105.988 342.800 C 106.167 342.800,106.437 342.307,106.588 341.704 C 106.740 341.101,106.984 340.516,107.132 340.404 C 107.535 340.097,110.800 333.378,110.800 332.854 C 110.800 332.604,110.980 332.400,111.200 332.400 C 111.420 332.400,111.600 332.194,111.600 331.942 C 111.600 331.690,112.230 330.174,113.000 328.573 C 113.770 326.972,114.400 325.468,114.400 325.231 C 114.400 324.994,114.566 324.800,114.768 324.800 C 114.971 324.800,115.255 324.260,115.400 323.600 C 115.545 322.940,115.815 322.400,116.000 322.400 C 116.185 322.400,116.455 321.860,116.600 321.200 C 116.745 320.540,117.001 320.000,117.168 320.000 C 117.336 320.000,117.702 319.235,117.981 318.300 C 118.260 317.365,118.612 316.510,118.764 316.400 C 119.337 315.984,127.200 299.648,127.200 298.874 C 127.200 298.613,127.366 298.400,127.568 298.400 C 127.771 298.400,128.055 297.860,128.200 297.200 C 128.345 296.540,128.615 296.000,128.800 296.000 C 128.985 296.000,129.255 295.460,129.400 294.800 C 129.545 294.140,129.810 293.600,129.988 293.600 C 130.167 293.600,130.437 293.107,130.588 292.504 C 130.740 291.901,130.989 291.316,131.142 291.204 C 131.554 290.902,134.800 284.217,134.800 283.670 C 134.800 283.411,134.980 283.200,135.200 283.200 C 135.420 283.200,135.600 283.002,135.600 282.760 C 135.600 282.519,135.898 281.692,136.263 280.923 C 136.822 279.746,136.839 279.471,136.371 279.182 C 135.754 278.801,134.103 277.487,132.470 276.077 C 131.881 275.569,130.905 274.889,130.300 274.566 C 129.695 274.244,129.200 273.816,129.200 273.617 C 129.200 273.417,128.831 273.137,128.380 272.994 C 127.928 272.850,127.051 272.253,126.430 271.667 C 125.810 271.080,124.717 270.150,124.002 269.600 C 123.287 269.050,122.248 268.195,121.693 267.700 C 121.137 267.205,120.541 266.800,120.366 266.800 C 120.192 266.800,119.458 266.260,118.736 265.600 C 117.233 264.228,116.872 264.171,115.900 265.157 M162.347 267.588 C 162.337 269.578,162.611 270.551,163.988 273.423 C 164.897 275.318,166.151 277.979,166.774 279.335 C 167.397 280.691,168.669 283.420,169.600 285.400 C 170.532 287.380,171.916 290.350,172.675 292.000 C 175.381 297.878,176.583 300.021,177.883 301.280 C 179.779 303.118,179.441 303.814,175.720 305.738 C 172.221 307.547,171.456 306.768,167.325 297.200 C 166.993 296.430,166.394 295.080,165.994 294.200 C 165.110 292.254,162.890 287.301,162.407 286.200 C 159.152 278.771,158.600 278.037,154.900 276.211 C 152.361 274.959,152.365 275.295,154.857 272.504 C 161.970 264.539,162.363 264.281,162.347 267.588 M122.889 279.219 C 126.039 281.734,126.344 282.096,126.024 282.938 C 125.828 283.451,123.606 288.085,121.085 293.235 C 118.565 298.386,114.838 306.020,112.804 310.200 C 110.769 314.380,107.169 321.760,104.802 326.600 C 102.435 331.440,98.965 338.550,97.091 342.400 C 95.216 346.250,91.266 354.350,88.312 360.400 C 85.359 366.450,82.325 372.702,81.571 374.294 C 79.890 377.842,80.227 377.850,75.172 374.128 C 72.877 372.438,68.300 369.062,65.000 366.626 C 61.700 364.189,58.243 361.683,57.319 361.056 C 56.394 360.430,54.980 359.349,54.176 358.654 L 52.715 357.391 65.022 341.195 C 78.478 323.487,86.236 313.288,89.451 309.076 C 91.255 306.713,91.974 306.130,94.881 304.671 C 98.981 302.613,101.858 300.243,103.875 297.260 C 113.278 283.359,118.252 276.403,118.779 276.417 C 119.120 276.426,120.970 277.687,122.889 279.219 " stroke="none" fill="#ff437b" fill-rule="evenodd"></path><path id="path2" d="M262.400 105.000 C 263.146 105.770,263.847 106.400,263.957 106.400 C 264.067 106.400,263.546 105.770,262.800 105.000 C 262.054 104.230,261.353 103.600,261.243 103.600 C 261.133 103.600,261.654 104.230,262.400 105.000 M256.987 107.700 L 254.600 110.200 257.100 107.813 C 258.475 106.499,259.600 105.374,259.600 105.313 C 259.600 105.017,259.205 105.378,256.987 107.700 M267.583 110.100 C 268.564 111.145,269.419 112.000,269.483 112.000 C 269.784 112.000,269.466 111.641,267.700 109.983 L 265.800 108.200 267.583 110.100 M273.183 115.700 C 274.164 116.745,275.019 117.600,275.083 117.600 C 275.384 117.600,275.066 117.241,273.300 115.583 L 271.400 113.800 273.183 115.700 M247.978 116.300 L 246.600 117.800 248.100 116.422 C 249.496 115.138,249.784 114.800,249.478 114.800 C 249.412 114.800,248.737 115.475,247.978 116.300 M239.391 124.500 L 236.200 127.800 239.500 124.609 C 242.565 121.646,242.982 121.200,242.691 121.200 C 242.630 121.200,241.145 122.685,239.391 124.500 M237.500 152.212 C 233.815 155.959,230.800 159.204,230.800 159.424 C 230.800 160.422,235.985 164.975,236.496 164.426 C 236.904 163.986,236.897 163.941,236.460 164.189 C 235.904 164.506,231.200 160.238,231.200 159.417 C 231.200 159.192,234.207 155.998,237.881 152.319 C 241.556 148.639,244.481 145.577,244.381 145.514 C 244.282 145.452,241.185 148.466,237.500 152.212 M165.266 201.734 C 127.187 239.814,124.346 242.749,124.507 243.834 L 124.680 245.000 124.740 243.801 C 124.791 242.772,130.607 236.794,165.699 201.701 C 188.194 179.205,206.509 160.800,206.399 160.800 C 206.289 160.800,187.779 179.220,165.266 201.734 M211.578 184.700 L 210.200 186.200 211.700 184.822 C 213.096 183.538,213.384 183.200,213.078 183.200 C 213.012 183.200,212.337 183.875,211.578 184.700 M207.200 189.400 C 206.228 190.390,205.523 191.200,205.633 191.200 C 205.743 191.200,206.628 190.390,207.600 189.400 C 208.572 188.410,209.277 187.600,209.167 187.600 C 209.057 187.600,208.172 188.410,207.200 189.400 M202.378 194.700 L 201.000 196.200 202.500 194.822 C 203.325 194.063,204.000 193.388,204.000 193.322 C 204.000 193.016,203.662 193.304,202.378 194.700 M197.775 199.700 L 196.600 201.000 197.900 199.825 C 199.112 198.730,199.384 198.400,199.075 198.400 C 199.006 198.400,198.421 198.985,197.775 199.700 M193.978 203.900 L 192.600 205.400 194.100 204.022 C 194.925 203.263,195.600 202.588,195.600 202.522 C 195.600 202.216,195.262 202.504,193.978 203.900 M207.381 215.700 L 205.800 217.400 207.500 215.819 C 209.081 214.348,209.384 214.000,209.081 214.000 C 209.016 214.000,208.251 214.765,207.381 215.700 M180.800 218.200 C 179.828 219.190,179.123 220.000,179.233 220.000 C 179.343 220.000,180.228 219.190,181.200 218.200 C 182.172 217.210,182.877 216.400,182.767 216.400 C 182.657 216.400,181.772 217.210,180.800 218.200 M266.100 221.076 C 266.485 221.176,267.115 221.176,267.500 221.076 C 267.885 220.975,267.570 220.893,266.800 220.893 C 266.030 220.893,265.715 220.975,266.100 221.076 M175.978 223.500 L 174.600 225.000 176.100 223.622 C 177.496 222.338,177.784 222.000,177.478 222.000 C 177.412 222.000,176.737 222.675,175.978 223.500 M171.178 228.700 L 169.800 230.200 171.300 228.822 C 172.696 227.538,172.984 227.200,172.678 227.200 C 172.612 227.200,171.937 227.875,171.178 228.700 M167.375 232.900 L 166.200 234.200 167.500 233.025 C 168.712 231.930,168.984 231.600,168.675 231.600 C 168.606 231.600,168.021 232.185,167.375 232.900 M162.981 237.700 L 161.400 239.400 163.100 237.819 C 164.035 236.949,164.800 236.184,164.800 236.119 C 164.800 235.816,164.452 236.119,162.981 237.700 M255.300 240.276 C 255.685 240.376,256.315 240.376,256.700 240.276 C 257.085 240.175,256.770 240.093,256.000 240.093 C 255.230 240.093,254.915 240.175,255.300 240.276 M264.900 241.076 C 265.285 241.176,265.915 241.176,266.300 241.076 C 266.685 240.975,266.370 240.893,265.600 240.893 C 264.830 240.893,264.515 240.975,264.900 241.076 M270.915 241.496 C 272.188 241.576,274.168 241.575,275.315 241.494 C 276.462 241.414,275.420 241.349,273.000 241.350 C 270.580 241.351,269.642 241.416,270.915 241.496 M157.375 243.700 L 156.200 245.000 157.500 243.825 C 158.712 242.730,158.984 242.400,158.675 242.400 C 158.606 242.400,158.021 242.985,157.375 243.700 M153.578 247.900 L 152.200 249.400 153.700 248.022 C 154.525 247.263,155.200 246.588,155.200 246.522 C 155.200 246.216,154.862 246.504,153.578 247.900 M125.693 254.000 C 125.693 254.770,125.775 255.085,125.876 254.700 C 125.976 254.315,125.976 253.685,125.876 253.300 C 125.775 252.915,125.693 253.230,125.693 254.000 M144.575 257.700 L 143.400 259.000 144.700 257.825 C 145.912 256.730,146.184 256.400,145.875 256.400 C 145.806 256.400,145.221 256.985,144.575 257.700 M139.775 262.900 L 138.600 264.200 139.900 263.025 C 141.112 261.930,141.384 261.600,141.075 261.600 C 141.006 261.600,140.421 262.185,139.775 262.900 M161.915 266.400 C 162.012 267.060,162.160 267.600,162.245 267.600 C 162.330 267.600,162.400 267.060,162.400 266.400 C 162.400 265.740,162.251 265.200,162.069 265.200 C 161.887 265.200,161.818 265.740,161.915 266.400 M157.578 269.500 L 156.200 271.000 157.700 269.622 C 159.096 268.338,159.384 268.000,159.078 268.000 C 159.012 268.000,158.337 268.675,157.578 269.500 " stroke="none" fill="#000000" fill-rule="evenodd"></path><path id="path3" d="M257.988 107.100 L 255.400 109.800 258.100 107.212 C 259.585 105.788,260.800 104.573,260.800 104.512 C 260.800 104.217,260.393 104.592,257.988 107.100 M250.987 113.700 L 248.600 116.200 251.100 113.813 C 252.475 112.499,253.600 111.374,253.600 111.313 C 253.600 111.017,253.205 111.378,250.987 113.700 M240.587 123.700 L 238.200 126.200 240.700 123.813 C 242.075 122.499,243.200 121.374,243.200 121.313 C 243.200 121.017,242.805 121.378,240.587 123.700 M233.381 130.500 L 231.800 132.200 233.500 130.619 C 235.081 129.148,235.384 128.800,235.081 128.800 C 235.016 128.800,234.251 129.565,233.381 130.500 M240.800 141.725 C 240.800 141.794,241.385 142.379,242.100 143.025 L 243.400 144.200 242.225 142.900 C 241.130 141.688,240.800 141.416,240.800 141.725 M243.992 144.925 C 244.490 145.585,243.933 146.259,237.870 152.330 C 230.163 160.047,230.545 159.177,233.560 162.161 C 235.716 164.294,236.810 164.739,236.794 163.476 C 236.790 163.192,236.635 163.242,236.408 163.600 C 236.017 164.219,231.600 160.377,231.600 159.418 C 231.600 159.193,234.611 155.994,238.291 152.309 C 244.802 145.790,244.961 145.591,244.213 144.905 C 243.476 144.230,243.467 144.231,243.992 144.925 M216.400 179.000 C 215.428 179.990,214.723 180.800,214.833 180.800 C 214.943 180.800,215.828 179.990,216.800 179.000 C 217.772 178.010,218.477 177.200,218.367 177.200 C 218.257 177.200,217.372 178.010,216.400 179.000 M211.978 183.900 L 210.600 185.400 212.100 184.022 C 213.496 182.738,213.784 182.400,213.478 182.400 C 213.412 182.400,212.737 183.075,211.978 183.900 M207.381 188.900 L 205.800 190.600 207.500 189.019 C 209.081 187.548,209.384 187.200,209.081 187.200 C 209.016 187.200,208.251 187.965,207.381 188.900 M202.987 193.700 L 200.600 196.200 203.100 193.813 C 204.475 192.499,205.600 191.374,205.600 191.313 C 205.600 191.017,205.205 191.378,202.987 193.700 M199.178 197.900 L 197.800 199.400 199.300 198.022 C 200.125 197.263,200.800 196.588,200.800 196.522 C 200.800 196.216,200.462 196.504,199.178 197.900 M194.175 203.300 L 193.000 204.600 194.300 203.425 C 195.015 202.779,195.600 202.194,195.600 202.125 C 195.600 201.816,195.270 202.088,194.175 203.300 M189.600 208.200 C 188.628 209.190,187.923 210.000,188.033 210.000 C 188.143 210.000,189.028 209.190,190.000 208.200 C 190.972 207.210,191.677 206.400,191.567 206.400 C 191.457 206.400,190.572 207.210,189.600 208.200 M214.175 208.500 L 213.000 209.800 214.300 208.625 C 215.015 207.979,215.600 207.394,215.600 207.325 C 215.600 207.016,215.270 207.288,214.175 208.500 M210.800 212.200 C 209.828 213.190,209.123 214.000,209.233 214.000 C 209.343 214.000,210.228 213.190,211.200 212.200 C 212.172 211.210,212.877 210.400,212.767 210.400 C 212.657 210.400,211.772 211.210,210.800 212.200 M185.781 212.500 L 184.200 214.200 185.900 212.619 C 187.481 211.148,187.784 210.800,187.481 210.800 C 187.416 210.800,186.651 211.565,185.781 212.500 M207.381 216.100 L 205.800 217.800 207.500 216.219 C 208.435 215.349,209.200 214.584,209.200 214.519 C 209.200 214.216,208.852 214.519,207.381 216.100 M180.800 217.800 C 179.828 218.790,179.123 219.600,179.233 219.600 C 179.343 219.600,180.228 218.790,181.200 217.800 C 182.172 216.810,182.877 216.000,182.767 216.000 C 182.657 216.000,181.772 216.810,180.800 217.800 M176.000 223.000 C 175.028 223.990,174.323 224.800,174.433 224.800 C 174.543 224.800,175.428 223.990,176.400 223.000 C 177.372 222.010,178.077 221.200,177.967 221.200 C 177.857 221.200,176.972 222.010,176.000 223.000 M267.500 221.493 C 268.435 221.577,269.965 221.577,270.900 221.493 C 271.835 221.409,271.070 221.340,269.200 221.340 C 267.330 221.340,266.565 221.409,267.500 221.493 M281.891 221.489 C 282.601 221.577,283.861 221.579,284.691 221.492 C 285.521 221.405,284.940 221.333,283.400 221.331 C 281.860 221.329,281.181 221.400,281.891 221.489 M288.056 223.200 C 288.056 223.530,288.211 224.160,288.400 224.600 C 288.617 225.104,288.744 225.178,288.744 224.800 C 288.744 224.470,288.589 223.840,288.400 223.400 C 288.183 222.896,288.056 222.822,288.056 223.200 M172.185 227.300 L 170.200 229.400 172.300 227.415 C 173.455 226.323,174.400 225.378,174.400 225.315 C 174.400 225.017,174.029 225.349,172.185 227.300 M289.268 228.800 C 289.288 229.839,289.918 231.546,289.932 230.600 C 289.938 230.160,289.789 229.440,289.600 229.000 C 289.389 228.510,289.261 228.432,289.268 228.800 M167.775 232.100 L 166.600 233.400 167.900 232.225 C 169.112 231.130,169.384 230.800,169.075 230.800 C 169.006 230.800,168.421 231.385,167.775 232.100 M290.468 234.400 C 290.488 235.439,291.118 237.146,291.132 236.200 C 291.138 235.760,290.989 235.040,290.800 234.600 C 290.589 234.110,290.461 234.032,290.468 234.400 M163.200 237.000 C 162.228 237.990,161.523 238.800,161.633 238.800 C 161.743 238.800,162.628 237.990,163.600 237.000 C 164.572 236.010,165.277 235.200,165.167 235.200 C 165.057 235.200,164.172 236.010,163.200 237.000 M249.233 238.947 C 249.325 239.028,250.120 239.204,251.000 239.338 C 252.115 239.507,252.358 239.471,251.800 239.219 C 251.032 238.871,248.890 238.644,249.233 238.947 M286.500 240.276 C 286.885 240.376,287.515 240.376,287.900 240.276 C 288.285 240.175,287.970 240.093,287.200 240.093 C 286.430 240.093,286.115 240.175,286.500 240.276 M158.778 241.900 L 157.400 243.400 158.900 242.022 C 160.296 240.738,160.584 240.400,160.278 240.400 C 160.212 240.400,159.537 241.075,158.778 241.900 M261.100 240.682 C 261.595 240.778,262.405 240.778,262.900 240.682 C 263.395 240.587,262.990 240.509,262.000 240.509 C 261.010 240.509,260.605 240.587,261.100 240.682 M283.100 240.682 C 283.595 240.778,284.405 240.778,284.900 240.682 C 285.395 240.587,284.990 240.509,284.000 240.509 C 283.010 240.509,282.605 240.587,283.100 240.682 M268.900 241.094 C 269.945 241.176,271.655 241.176,272.700 241.094 C 273.745 241.012,272.890 240.944,270.800 240.944 C 268.710 240.944,267.855 241.012,268.900 241.094 M276.100 241.087 C 276.705 241.178,277.695 241.178,278.300 241.087 C 278.905 240.995,278.410 240.920,277.200 240.920 C 275.990 240.920,275.495 240.995,276.100 241.087 M154.181 246.900 L 152.600 248.600 154.300 247.019 C 155.881 245.548,156.184 245.200,155.881 245.200 C 155.816 245.200,155.051 245.965,154.181 246.900 M125.309 248.000 C 125.309 248.990,125.387 249.395,125.482 248.900 C 125.578 248.405,125.578 247.595,125.482 247.100 C 125.387 246.605,125.309 247.010,125.309 248.000 M149.578 251.900 L 148.200 253.400 149.700 252.022 C 151.096 250.738,151.384 250.400,151.078 250.400 C 151.012 250.400,150.337 251.075,149.578 251.900 M145.600 256.200 C 144.628 257.190,143.923 258.000,144.033 258.000 C 144.143 258.000,145.028 257.190,146.000 256.200 C 146.972 255.210,147.677 254.400,147.567 254.400 C 147.457 254.400,146.572 255.210,145.600 256.200 M126.446 258.651 C 126.421 259.119,126.715 259.749,127.100 260.051 C 127.709 260.528,127.740 260.522,127.343 260.000 C 127.092 259.670,126.798 259.040,126.689 258.600 C 126.503 257.840,126.490 257.843,126.446 258.651 M140.985 261.300 L 139.000 263.400 141.100 261.415 C 142.255 260.323,143.200 259.378,143.200 259.315 C 143.200 259.017,142.829 259.349,140.985 261.300 M128.144 260.709 C 128.460 261.221,130.800 262.953,130.800 262.675 C 130.800 262.576,130.139 261.991,129.332 261.375 C 128.524 260.759,127.989 260.459,128.144 260.709 M137.178 265.500 L 135.800 267.000 137.300 265.622 C 138.696 264.338,138.984 264.000,138.678 264.000 C 138.612 264.000,137.937 264.675,137.178 265.500 M161.714 267.400 C 161.717 268.500,161.795 268.903,161.887 268.295 C 161.979 267.686,161.977 266.786,161.882 266.295 C 161.787 265.803,161.711 266.300,161.714 267.400 M157.375 270.100 L 156.200 271.400 157.500 270.225 C 158.712 269.130,158.984 268.800,158.675 268.800 C 158.606 268.800,158.021 269.385,157.375 270.100 M162.828 286.600 C 162.828 286.820,163.086 287.450,163.400 288.000 C 163.714 288.550,163.972 288.820,163.972 288.600 C 163.972 288.380,163.714 287.750,163.400 287.200 C 163.086 286.650,162.828 286.380,162.828 286.600 M170.730 304.204 C 171.361 305.488,172.678 306.486,173.470 306.281 C 174.074 306.125,174.049 306.085,173.329 306.046 C 172.850 306.021,171.980 305.415,171.397 304.700 C 170.813 303.985,170.513 303.762,170.730 304.204 " stroke="none" fill="#000000" fill-rule="evenodd"></path><path id="path4" d="M271.385 121.700 L 269.400 123.800 271.500 121.815 C 273.451 119.971,273.783 119.600,273.485 119.600 C 273.422 119.600,272.477 120.545,271.385 121.700 M266.187 126.900 L 263.800 129.400 266.300 127.013 C 267.675 125.699,268.800 124.574,268.800 124.513 C 268.800 124.217,268.405 124.578,266.187 126.900 M260.386 132.700 L 258.200 135.000 260.500 132.814 C 262.637 130.782,262.983 130.400,262.686 130.400 C 262.624 130.400,261.589 131.435,260.386 132.700 M254.786 138.300 L 252.600 140.600 254.900 138.414 C 256.165 137.211,257.200 136.176,257.200 136.114 C 257.200 135.817,256.818 136.163,254.786 138.300 M248.987 144.100 L 246.600 146.600 249.100 144.213 C 250.475 142.899,251.600 141.774,251.600 141.713 C 251.600 141.417,251.205 141.778,248.987 144.100 M243.387 149.700 L 241.000 152.200 243.500 149.813 C 244.875 148.499,246.000 147.374,246.000 147.313 C 246.000 147.017,245.605 147.378,243.387 149.700 M274.515 221.496 C 275.788 221.576,277.768 221.575,278.915 221.494 C 280.062 221.414,279.020 221.349,276.600 221.350 C 274.180 221.351,273.242 221.416,274.515 221.496 " stroke="none" fill="#000000" fill-rule="evenodd"></path></g></svg>