<svg id="svg" version="1.1" xmlns="http://www.w3.org/2000/svg" xmlns:xlink="http://www.w3.org/1999/xlink" width="400" height="228.57142857142858" viewBox="100, 0, 400,228.57142857142858"><g id="svgg"><path id="path0" d="M0.000 114.286 L 0.000 228.571 200.000 228.571 L 400.000 228.571 400.000 114.286 L 400.000 0.000 200.000 0.000 L 0.000 0.000 0.000 114.286 M116.457 19.590 C 117.689 19.984,118.195 20.269,119.744 21.436 C 120.991 22.376,121.669 22.659,124.114 23.263 C 128.958 24.460,133.826 25.172,144.000 26.169 C 149.684 26.726,151.350 26.904,158.114 27.672 C 163.001 28.226,163.877 28.333,165.371 28.551 C 166.251 28.680,167.434 28.848,168.000 28.925 C 169.930 29.186,177.483 30.406,178.514 30.623 C 179.080 30.742,180.829 31.105,182.400 31.429 C 183.971 31.753,186.106 32.220,187.143 32.466 C 188.180 32.713,189.929 33.128,191.029 33.390 C 192.129 33.651,193.286 33.945,193.600 34.043 C 194.254 34.248,195.319 34.555,196.800 34.967 C 198.826 35.531,208.132 38.688,209.014 39.111 C 209.509 39.349,209.999 39.543,210.103 39.543 C 210.279 39.543,210.653 39.700,213.429 40.943 C 214.026 41.211,215.337 41.791,216.343 42.232 C 222.049 44.735,230.695 49.677,232.170 51.277 C 234.955 54.298,235.236 59.132,232.822 62.464 L 232.361 63.099 235.892 66.635 C 237.834 68.580,239.508 70.171,239.612 70.171 C 239.894 70.171,268.114 41.850,268.114 41.567 C 268.114 41.432,267.986 41.372,267.829 41.432 C 262.041 43.644,259.656 43.390,259.271 40.520 C 259.019 38.639,260.001 37.692,263.314 36.622 C 264.509 36.236,267.131 35.361,269.143 34.677 C 280.369 30.860,280.823 30.773,282.095 32.196 C 283.331 33.580,283.316 33.658,279.974 43.693 C 276.297 54.733,276.225 54.868,274.115 54.898 C 271.236 54.937,270.539 53.081,271.894 48.987 C 272.339 47.643,272.673 46.401,272.637 46.226 C 272.601 46.051,266.112 52.364,258.217 60.255 L 243.862 74.603 247.508 78.249 L 251.155 81.896 252.265 81.212 C 255.717 79.088,259.919 79.418,262.906 82.047 C 263.989 83.001,266.602 87.085,268.747 91.177 C 269.313 92.258,270.001 93.554,270.275 94.057 C 270.548 94.560,270.935 95.383,271.134 95.886 C 271.334 96.389,271.908 97.674,272.410 98.743 C 273.551 101.169,273.840 101.834,274.750 104.114 C 276.397 108.244,278.748 115.158,279.801 118.971 C 279.939 119.474,280.137 120.143,280.241 120.457 C 281.197 123.368,284.087 137.023,284.813 142.057 C 284.940 142.937,285.136 144.274,285.249 145.029 C 285.735 148.267,285.996 150.164,286.176 151.771 C 286.282 152.714,286.472 154.360,286.597 155.429 C 287.080 159.541,287.536 163.680,287.881 167.086 C 288.744 175.594,289.183 179.627,289.373 180.800 C 289.485 181.491,289.691 182.880,289.831 183.886 C 289.972 184.891,290.173 186.126,290.278 186.629 C 290.384 187.131,290.589 188.109,290.734 188.800 C 291.319 191.581,291.981 193.376,292.840 194.511 C 296.723 199.641,295.624 205.867,290.365 208.531 C 283.913 211.801,277.039 206.590,274.286 196.343 C 273.993 195.253,199.382 120.229,198.591 120.229 C 198.309 120.229,169.655 148.632,167.763 150.787 L 167.086 151.559 167.086 158.658 C 167.086 165.576,167.073 165.776,166.588 166.479 C 165.939 167.419,145.935 187.424,144.993 188.074 C 143.501 189.104,141.215 188.400,140.641 186.735 C 140.459 186.204,140.364 183.969,140.356 179.961 L 140.343 173.979 139.614 173.819 C 139.213 173.731,136.564 173.733,133.728 173.823 C 126.822 174.042,125.714 173.611,125.714 170.708 L 125.714 169.487 136.857 158.372 C 147.112 148.142,148.073 147.245,148.914 147.117 C 149.417 147.039,152.788 146.975,156.405 146.974 L 162.982 146.971 178.519 131.435 C 187.065 122.890,194.057 115.780,194.057 115.635 C 194.057 115.490,177.163 98.490,156.514 77.857 L 118.971 40.342 116.954 39.711 C 110.913 37.822,106.459 34.390,105.312 30.743 C 103.083 23.654,109.401 17.331,116.457 19.590 M112.343 25.359 C 110.204 26.234,110.373 29.192,112.661 30.952 C 116.289 33.741,122.778 35.696,132.000 36.778 C 138.605 37.554,143.350 38.072,146.857 38.400 C 150.129 38.706,153.317 39.049,155.314 39.308 C 156.194 39.423,157.943 39.629,159.200 39.765 C 165.693 40.473,176.942 42.319,182.514 43.592 C 185.511 44.277,191.196 45.723,192.800 46.209 C 197.870 47.743,201.065 48.798,202.400 49.378 C 202.651 49.488,203.371 49.744,204.000 49.948 C 204.629 50.152,205.451 50.453,205.829 50.618 C 206.206 50.783,206.874 51.076,207.314 51.269 C 207.754 51.463,208.680 51.842,209.371 52.111 C 210.063 52.380,212.502 53.526,214.793 54.659 C 220.152 57.308,220.700 57.913,220.151 60.574 C 219.518 63.634,220.061 66.399,221.810 69.021 C 222.391 69.894,229.801 77.509,230.887 78.350 C 231.327 78.692,232.190 78.011,234.099 75.817 L 235.263 74.478 230.900 70.094 C 225.074 64.241,224.555 62.763,227.259 59.740 C 230.127 56.533,228.776 55.057,218.057 49.688 C 207.351 44.325,198.094 41.109,184.000 37.856 C 182.008 37.396,175.946 36.218,173.257 35.768 C 172.063 35.568,170.469 35.302,169.714 35.176 C 168.143 34.914,165.970 34.615,163.257 34.286 C 162.220 34.160,160.471 33.947,159.371 33.812 C 158.271 33.677,156.549 33.482,155.543 33.379 C 154.537 33.276,152.223 33.029,150.400 32.829 C 148.577 32.629,146.006 32.358,144.686 32.227 C 126.425 30.414,120.018 29.085,116.434 26.366 C 114.784 25.114,113.633 24.831,112.343 25.359 M130.023 42.891 C 130.152 43.124,145.583 58.633,164.313 77.355 L 198.368 111.396 199.356 110.513 C 201.518 108.577,226.743 83.163,226.743 82.919 C 226.743 82.776,224.501 80.389,221.762 77.615 C 215.353 71.126,214.301 69.258,214.031 63.886 C 213.870 60.690,213.898 60.762,212.528 60.136 C 211.866 59.834,210.499 59.201,209.491 58.730 C 204.106 56.215,198.576 54.142,192.457 52.342 C 191.514 52.065,190.486 51.758,190.171 51.660 C 189.575 51.474,188.262 51.123,186.800 50.758 C 186.329 50.640,185.324 50.384,184.567 50.189 C 183.085 49.807,183.111 49.813,177.143 48.610 C 172.678 47.711,166.201 46.662,160.686 45.945 C 159.617 45.806,158.114 45.595,157.345 45.475 C 156.576 45.355,155.575 45.257,155.121 45.257 C 154.666 45.257,153.598 45.157,152.747 45.034 C 151.896 44.911,150.017 44.700,148.571 44.564 C 147.126 44.429,145.069 44.225,144.000 44.112 C 142.931 43.999,140.977 43.794,139.657 43.657 C 136.504 43.330,131.769 42.775,130.665 42.603 C 129.861 42.479,129.807 42.503,130.023 42.891 M237.486 80.950 C 236.543 81.948,235.739 82.858,235.699 82.972 C 235.607 83.232,243.091 90.763,244.836 92.168 C 247.313 94.161,248.478 94.383,255.014 94.107 C 256.757 94.034,257.222 94.595,259.808 99.885 C 261.006 102.337,262.066 104.549,262.163 104.800 C 262.413 105.444,263.316 107.621,263.728 108.570 C 264.021 109.245,264.639 110.923,266.044 114.857 C 266.463 116.032,267.474 119.164,267.685 119.943 C 267.882 120.671,268.175 121.718,268.564 123.086 C 269.523 126.458,270.568 130.893,271.404 135.144 C 273.243 144.502,273.906 148.782,274.953 158.057 C 275.080 159.189,275.290 161.040,275.419 162.171 C 275.548 163.303,275.760 165.360,275.889 166.743 C 276.019 168.126,276.224 170.080,276.344 171.086 C 276.465 172.091,276.829 175.383,277.153 178.400 C 278.591 191.777,280.560 198.755,283.879 202.235 C 287.004 205.511,291.016 201.903,288.247 198.307 C 287.288 197.062,286.171 194.997,286.171 194.470 C 286.171 194.293,286.082 194.051,285.972 193.931 C 285.495 193.412,284.434 188.287,283.656 182.743 C 283.515 181.737,283.307 180.297,283.194 179.543 C 283.081 178.789,282.833 176.577,282.642 174.629 C 281.869 166.723,281.836 166.411,280.902 158.057 C 280.789 157.051,280.595 155.303,280.470 154.171 C 280.204 151.764,279.673 147.854,279.103 144.114 C 278.020 137.007,275.301 124.467,273.811 119.706 C 273.567 118.925,273.147 117.566,272.878 116.686 C 270.024 107.329,265.309 96.699,260.466 88.698 C 258.540 85.517,256.456 84.801,254.840 86.767 C 252.257 89.911,249.972 89.176,244.114 83.316 C 241.789 80.990,239.731 79.098,239.543 79.111 C 239.354 79.125,238.429 79.952,237.486 80.950 M217.068 101.401 C 209.315 109.149,202.971 115.604,202.971 115.745 C 202.971 115.885,218.463 131.480,237.397 150.400 L 271.822 184.800 271.669 183.429 C 271.260 179.760,269.893 166.774,269.480 162.629 C 269.367 161.497,269.174 159.697,269.049 158.629 C 268.925 157.560,268.764 156.171,268.691 155.543 C 268.499 153.896,268.115 151.250,267.182 145.143 C 266.649 141.655,264.896 132.704,264.205 129.943 C 263.015 125.185,261.433 119.800,260.041 115.771 C 258.955 112.626,258.165 110.601,256.965 107.886 C 256.715 107.320,256.177 106.086,255.769 105.143 C 255.360 104.200,254.678 102.734,254.253 101.886 L 253.480 100.343 251.560 100.343 C 245.611 100.343,243.344 99.147,236.551 92.424 C 233.711 89.614,231.338 87.314,231.276 87.314 C 231.215 87.314,224.821 93.653,217.068 101.401 M143.545 160.104 C 139.586 164.063,136.312 167.408,136.269 167.537 C 136.218 167.689,137.254 167.771,139.234 167.771 L 142.277 167.771 147.424 162.547 C 154.281 155.588,155.078 155.089,156.966 156.570 C 159.533 158.583,159.014 159.568,151.447 167.040 L 146.286 172.137 146.286 175.097 C 146.286 177.315,146.357 178.056,146.571 178.052 C 146.729 178.049,150.073 174.825,154.004 170.887 L 161.151 163.728 161.090 158.378 L 161.029 153.029 155.886 152.968 L 150.743 152.907 143.545 160.104 " stroke="none" fill="rgba(255,255,255,0)" fill-rule="evenodd"></path><path id="path1" d="M111.860 19.303 C 105.777 20.664,102.894 27.467,106.184 32.702 C 107.875 35.393,112.249 38.239,116.954 39.711 L 118.971 40.342 156.514 77.857 C 177.163 98.490,194.057 115.490,194.057 115.635 C 194.057 115.780,187.065 122.890,178.519 131.435 L 162.982 146.971 156.405 146.974 C 152.788 146.975,149.417 147.039,148.914 147.117 C 148.073 147.245,147.112 148.142,136.857 158.372 L 125.714 169.487 125.714 170.708 C 125.714 173.611,126.822 174.042,133.728 173.823 C 136.564 173.733,139.213 173.731,139.614 173.819 L 140.343 173.979 140.356 179.961 C 140.364 183.969,140.459 186.204,140.641 186.735 C 141.215 188.400,143.501 189.104,144.993 188.074 C 145.935 187.424,165.939 167.419,166.588 166.479 C 167.073 165.776,167.086 165.576,167.086 158.658 L 167.086 151.559 167.763 150.787 C 169.655 148.632,198.309 120.229,198.591 120.229 C 199.382 120.229,273.993 195.253,274.286 196.343 C 277.039 206.590,283.913 211.801,290.365 208.531 C 295.624 205.867,296.723 199.641,292.840 194.511 C 291.981 193.376,291.319 191.581,290.734 188.800 C 290.589 188.109,290.384 187.131,290.278 186.629 C 290.173 186.126,289.972 184.891,289.831 183.886 C 289.691 182.880,289.485 181.491,289.373 180.800 C 289.183 179.627,288.744 175.594,287.881 167.086 C 287.536 163.680,287.080 159.541,286.597 155.429 C 286.472 154.360,286.282 152.714,286.176 151.771 C 285.996 150.164,285.735 148.267,285.249 145.029 C 285.136 144.274,284.940 142.937,284.813 142.057 C 284.087 137.023,281.197 123.368,280.241 120.457 C 280.137 120.143,279.939 119.474,279.801 118.971 C 278.036 112.583,274.967 104.183,272.410 98.743 C 271.908 97.674,271.334 96.389,271.134 95.886 C 270.935 95.383,270.548 94.560,270.275 94.057 C 270.001 93.554,269.313 92.258,268.747 91.177 C 266.602 87.085,263.989 83.001,262.906 82.047 C 259.919 79.418,255.717 79.088,252.265 81.212 L 251.155 81.896 247.508 78.249 L 243.862 74.603 258.217 60.255 C 266.112 52.364,272.601 46.051,272.637 46.226 C 272.673 46.401,272.339 47.643,271.894 48.987 C 270.539 53.081,271.236 54.937,274.115 54.898 C 276.225 54.868,276.297 54.733,279.974 43.693 C 283.316 33.658,283.331 33.580,282.095 32.196 C 280.823 30.773,280.369 30.860,269.143 34.677 C 267.131 35.361,264.509 36.236,263.314 36.622 C 260.001 37.692,259.019 38.639,259.271 40.520 C 259.656 43.390,262.041 43.644,267.829 41.432 C 267.986 41.372,268.114 41.432,268.114 41.567 C 268.114 41.850,239.894 70.171,239.612 70.171 C 239.508 70.171,237.834 68.580,235.892 66.635 L 232.361 63.099 232.822 62.464 C 235.236 59.132,234.955 54.298,232.170 51.277 C 230.695 49.677,222.049 44.735,216.343 42.232 C 215.337 41.791,214.026 41.211,213.429 40.943 C 210.653 39.700,210.279 39.543,210.103 39.543 C 209.999 39.543,209.509 39.349,209.014 39.111 C 208.132 38.688,198.826 35.531,196.800 34.967 C 195.319 34.555,194.254 34.248,193.600 34.043 C 193.286 33.945,192.129 33.651,191.029 33.390 C 189.929 33.128,188.180 32.713,187.143 32.466 C 186.106 32.220,183.971 31.753,182.400 31.429 C 180.829 31.105,179.080 30.742,178.514 30.623 C 177.483 30.406,169.930 29.186,168.000 28.925 C 167.434 28.848,166.251 28.680,165.371 28.551 C 163.877 28.333,163.001 28.226,158.114 27.672 C 151.350 26.904,149.684 26.726,144.000 26.169 C 133.826 25.172,128.958 24.460,124.114 23.263 C 121.669 22.659,120.991 22.376,119.744 21.436 C 116.969 19.344,114.573 18.696,111.860 19.303 M115.015 25.395 C 115.274 25.533,115.913 25.971,116.434 26.366 C 120.018 29.085,126.425 30.414,144.686 32.227 C 146.006 32.358,148.577 32.629,150.400 32.829 C 152.223 33.029,154.537 33.276,155.543 33.379 C 156.549 33.482,158.271 33.677,159.371 33.812 C 160.471 33.947,162.220 34.160,163.257 34.286 C 165.970 34.615,168.143 34.914,169.714 35.176 C 170.469 35.302,172.063 35.568,173.257 35.768 C 178.177 36.591,182.855 37.560,188.343 38.892 C 202.192 42.255,215.467 47.588,225.676 53.890 C 229.035 55.964,229.407 57.338,227.259 59.740 C 224.555 62.763,225.074 64.241,230.900 70.094 L 235.263 74.478 234.099 75.817 C 232.190 78.011,231.327 78.692,230.887 78.350 C 229.801 77.509,222.391 69.894,221.810 69.021 C 220.061 66.399,219.518 63.634,220.151 60.574 C 220.700 57.913,220.152 57.308,214.793 54.659 C 212.502 53.526,210.063 52.380,209.371 52.111 C 208.680 51.842,207.754 51.463,207.314 51.269 C 206.874 51.076,206.206 50.783,205.829 50.618 C 205.451 50.453,204.629 50.152,204.000 49.948 C 203.371 49.744,202.651 49.488,202.400 49.378 C 201.065 48.798,197.870 47.743,192.800 46.209 C 191.196 45.723,185.511 44.277,182.514 43.592 C 176.942 42.319,165.693 40.473,159.200 39.765 C 157.943 39.629,156.194 39.423,155.314 39.308 C 153.317 39.049,150.129 38.706,146.857 38.400 C 143.350 38.072,138.605 37.554,132.000 36.778 C 118.667 35.213,110.455 31.611,110.915 27.530 C 111.134 25.587,113.283 24.468,115.015 25.395 M134.400 43.074 C 135.971 43.258,138.337 43.520,139.657 43.657 C 140.977 43.794,142.931 43.999,144.000 44.112 C 145.069 44.225,147.126 44.429,148.571 44.564 C 150.017 44.700,151.896 44.911,152.747 45.034 C 153.598 45.157,154.666 45.257,155.121 45.257 C 155.575 45.257,156.576 45.355,157.345 45.475 C 158.114 45.595,159.617 45.806,160.686 45.945 C 166.201 46.662,172.678 47.711,177.143 48.610 C 183.111 49.813,183.085 49.807,184.567 50.189 C 185.324 50.384,186.329 50.640,186.800 50.758 C 188.262 51.123,189.575 51.474,190.171 51.660 C 190.486 51.758,191.514 52.065,192.457 52.342 C 198.576 54.142,204.106 56.215,209.491 58.730 C 210.499 59.201,211.866 59.834,212.528 60.136 C 213.898 60.762,213.870 60.690,214.031 63.886 C 214.301 69.258,215.353 71.126,221.762 77.615 C 224.501 80.389,226.743 82.776,226.743 82.919 C 226.743 83.163,201.518 108.577,199.356 110.513 L 198.368 111.396 164.313 77.355 C 128.204 41.261,129.298 42.391,130.665 42.603 C 131.148 42.678,132.829 42.890,134.400 43.074 M244.114 83.316 C 249.972 89.176,252.257 89.911,254.840 86.767 C 256.456 84.801,258.540 85.517,260.466 88.698 C 265.309 96.699,270.024 107.329,272.878 116.686 C 273.147 117.566,273.567 118.925,273.811 119.706 C 275.301 124.467,278.020 137.007,279.103 144.114 C 279.673 147.854,280.204 151.764,280.470 154.171 C 280.595 155.303,280.789 157.051,280.902 158.057 C 281.836 166.411,281.869 166.723,282.642 174.629 C 282.833 176.577,283.081 178.789,283.194 179.543 C 283.307 180.297,283.515 181.737,283.656 182.743 C 284.434 188.287,285.495 193.412,285.972 193.931 C 286.082 194.051,286.171 194.293,286.171 194.470 C 286.171 194.997,287.288 197.062,288.247 198.307 C 291.016 201.903,287.004 205.511,283.879 202.235 C 280.560 198.755,278.591 191.777,277.153 178.400 C 276.829 175.383,276.465 172.091,276.344 171.086 C 276.224 170.080,276.019 168.126,275.889 166.743 C 275.760 165.360,275.548 163.303,275.419 162.171 C 275.290 161.040,275.080 159.189,274.953 158.057 C 273.906 148.782,273.243 144.502,271.404 135.144 C 270.568 130.893,269.523 126.458,268.564 123.086 C 268.175 121.718,267.882 120.671,267.685 119.943 C 267.474 119.164,266.463 116.032,266.044 114.857 C 264.639 110.923,264.021 109.245,263.728 108.570 C 263.316 107.621,262.413 105.444,262.163 104.800 C 262.066 104.549,261.006 102.337,259.808 99.885 C 257.222 94.595,256.757 94.034,255.014 94.107 C 248.478 94.383,247.313 94.161,244.836 92.168 C 243.091 90.763,235.607 83.232,235.699 82.972 C 235.860 82.512,239.224 79.134,239.543 79.111 C 239.731 79.098,241.789 80.990,244.114 83.316 M236.551 92.424 C 243.344 99.147,245.611 100.343,251.560 100.343 L 253.480 100.343 254.253 101.886 C 254.678 102.734,255.360 104.200,255.769 105.143 C 256.177 106.086,256.715 107.320,256.965 107.886 C 259.053 112.612,260.581 116.966,262.499 123.657 C 263.468 127.041,263.606 127.548,264.205 129.943 C 264.896 132.704,266.649 141.655,267.182 145.143 C 268.115 151.250,268.499 153.896,268.691 155.543 C 268.764 156.171,268.925 157.560,269.049 158.629 C 269.174 159.697,269.367 161.497,269.480 162.629 C 269.893 166.774,271.260 179.760,271.669 183.429 L 271.822 184.800 237.397 150.400 C 218.463 131.480,202.971 115.885,202.971 115.745 C 202.971 115.504,231.037 87.314,231.276 87.314 C 231.338 87.314,233.711 89.614,236.551 92.424 M161.090 158.378 L 161.151 163.728 154.004 170.887 C 150.073 174.825,146.729 178.049,146.571 178.052 C 146.357 178.056,146.286 177.315,146.286 175.097 L 146.286 172.137 151.447 167.040 C 159.014 159.568,159.533 158.583,156.966 156.570 C 155.078 155.089,154.281 155.588,147.424 162.547 L 142.277 167.771 139.234 167.771 C 137.254 167.771,136.218 167.689,136.269 167.537 C 136.312 167.408,139.586 164.063,143.545 160.104 L 150.743 152.907 155.886 152.968 L 161.029 153.029 161.090 158.378 " stroke="none" fill="#0f8f3a" fill-rule="evenodd"></path></g></svg>