<svg id="svg" version="1.1" xmlns="http://www.w3.org/2000/svg" xmlns:xlink="http://www.w3.org/1999/xlink" width="400" height="303.11111111111114" viewBox="0, 0, 400,303.11111111111114"><g id="svgg"><path id="path0" d="M292.813 19.870 C 291.969 20.977,288.241 28.453,288.439 28.640 C 288.501 28.699,289.531 28.181,290.727 27.489 C 291.924 26.798,294.341 25.413,296.100 24.412 C 299.587 22.427,299.550 22.471,298.799 21.325 C 297.120 18.763,294.199 18.053,292.813 19.870 M305.074 20.419 C 304.160 20.969,302.593 21.867,301.592 22.414 C 299.760 23.416,295.849 25.674,287.187 30.734 C 284.602 32.244,281.941 33.773,281.274 34.133 C 280.607 34.492,277.710 36.171,274.836 37.863 C 271.963 39.555,269.556 40.940,269.487 40.940 C 269.418 40.940,266.831 42.441,263.739 44.276 C 260.646 46.111,258.048 47.612,257.964 47.612 C 257.881 47.612,255.747 48.840,253.222 50.341 C 250.697 51.842,248.578 53.071,248.512 53.071 C 248.446 53.071,245.897 54.523,242.847 56.298 C 239.797 58.073,235.595 60.515,233.510 61.725 C 231.425 62.935,229.242 64.209,228.658 64.556 C 228.074 64.902,226.983 65.517,226.232 65.922 C 224.854 66.664,217.369 71.021,216.528 71.570 C 216.277 71.734,215.459 72.196,214.708 72.598 C 213.958 73.000,211.594 74.366,209.456 75.633 C 207.318 76.901,205.522 77.938,205.466 77.938 C 205.409 77.938,202.813 79.439,199.697 81.274 C 196.581 83.108,193.990 84.610,193.940 84.610 C 193.891 84.610,191.986 85.701,189.708 87.036 C 187.430 88.370,185.523 89.462,185.470 89.462 C 185.417 89.462,182.819 90.963,179.695 92.798 C 176.572 94.632,173.963 96.133,173.898 96.133 C 173.832 96.133,172.897 96.673,171.820 97.333 C 170.742 97.992,169.136 98.897,168.251 99.343 C 167.366 99.789,165.959 100.601,165.125 101.147 C 164.291 101.693,163.063 102.440,162.396 102.808 C 160.933 103.613,155.213 106.927,147.929 111.188 C 144.975 112.916,142.500 114.329,142.427 114.329 C 142.355 114.329,140.267 115.532,137.789 117.002 C 135.311 118.472,132.486 120.112,131.512 120.646 C 130.537 121.180,127.672 122.823,125.143 124.297 C 116.111 129.562,98.106 139.971,97.043 140.543 C 96.149 141.023,94.730 145.103,93.820 149.810 C 92.564 156.309,93.250 168.973,95.225 175.739 C 96.234 179.194,96.525 181.593,96.341 184.913 C 96.245 186.622,96.216 188.021,96.274 188.021 C 96.384 188.021,105.927 182.487,106.748 181.948 C 106.998 181.783,107.407 181.555,107.657 181.440 C 107.908 181.325,109.886 180.185,112.055 178.908 C 114.223 177.630,116.611 176.245,117.362 175.831 C 119.203 174.813,128.047 169.696,133.335 166.589 C 135.698 165.200,137.700 164.064,137.783 164.064 C 137.865 164.064,139.957 162.860,142.431 161.388 C 144.905 159.917,147.727 158.277,148.701 157.744 C 149.675 157.212,152.541 155.570,155.069 154.096 C 160.882 150.707,169.694 145.603,176.346 141.772 C 179.181 140.139,183.548 137.611,186.050 136.154 C 188.552 134.698,191.554 132.968,192.722 132.311 C 194.771 131.157,197.941 129.323,207.582 123.716 C 210.083 122.261,212.813 120.694,213.647 120.234 C 215.433 119.248,223.148 114.760,223.806 114.323 C 224.056 114.158,224.466 113.929,224.716 113.816 C 224.966 113.703,227.677 112.134,230.741 110.330 C 233.805 108.527,236.358 107.051,236.415 107.051 C 236.523 107.051,244.543 102.410,245.337 101.887 C 245.588 101.723,245.997 101.495,246.247 101.382 C 246.497 101.268,248.864 99.904,251.506 98.351 C 254.148 96.798,256.353 95.527,256.406 95.527 C 256.459 95.527,258.704 94.230,261.394 92.646 C 264.085 91.061,266.337 89.765,266.398 89.765 C 266.460 89.765,269.060 88.264,272.176 86.429 C 275.292 84.594,277.879 83.093,277.925 83.093 C 277.971 83.093,280.214 81.797,282.910 80.212 C 285.606 78.628,287.879 77.331,287.960 77.331 C 288.042 77.331,288.618 77.011,289.240 76.618 C 290.599 75.762,301.754 69.341,304.321 67.938 C 305.322 67.390,306.346 66.770,306.596 66.559 C 307.792 65.550,312.179 63.384,312.459 63.665 C 312.657 63.863,312.630 65.317,312.380 67.942 C 312.171 70.129,312.075 71.994,312.166 72.085 C 312.257 72.177,314.278 71.105,316.656 69.704 L 320.979 67.156 321.356 65.344 C 322.619 59.270,320.253 43.461,317.499 39.575 C 317.381 39.409,317.185 38.931,317.065 38.514 C 316.345 36.031,308.505 21.326,307.083 19.793 C 306.812 19.500,306.376 19.636,305.074 20.419 M305.546 28.112 C 306.144 29.024,310.786 38.187,311.361 39.589 C 313.510 44.832,315.694 52.139,315.694 54.086 C 315.694 54.586,315.226 55.010,313.798 55.804 C 312.756 56.384,311.630 57.024,311.296 57.227 C 310.963 57.430,310.485 57.695,310.235 57.816 C 309.985 57.936,308.644 58.704,307.255 59.521 C 304.515 61.133,304.215 61.105,303.725 59.201 C 302.695 55.198,298.388 49.232,294.547 46.490 C 292.253 44.852,292.760 44.728,286.304 48.500 C 283.537 50.117,279.363 52.544,277.028 53.895 C 274.693 55.246,272.305 56.633,271.721 56.977 C 271.137 57.322,270.153 57.880,269.535 58.218 C 268.916 58.556,266.556 59.924,264.291 61.258 C 262.026 62.593,260.123 63.685,260.061 63.685 C 260.000 63.685,257.400 65.186,254.284 67.020 C 251.167 68.855,248.574 70.356,248.522 70.356 C 248.469 70.356,245.876 71.857,242.760 73.692 C 239.643 75.527,237.047 77.028,236.991 77.028 C 236.934 77.028,235.043 78.120,232.789 79.454 C 230.535 80.788,228.635 81.880,228.567 81.880 C 228.498 81.880,225.897 83.381,222.785 85.216 C 219.674 87.051,217.074 88.552,217.009 88.552 C 216.943 88.552,215.204 89.554,213.145 90.778 C 211.086 92.002,208.753 93.367,207.961 93.810 C 207.168 94.254,205.872 94.980,205.080 95.424 C 204.287 95.867,202.002 97.199,200.000 98.383 C 197.998 99.567,196.020 100.704,195.603 100.910 C 195.186 101.116,194.640 101.420,194.390 101.586 C 193.368 102.265,185.616 106.748,185.465 106.748 C 185.376 106.748,184.411 107.293,183.321 107.961 C 181.138 109.297,180.607 109.382,178.668 108.706 C 175.865 107.730,173.870 106.341,172.737 104.577 C 172.159 103.678,172.074 103.784,174.384 102.505 C 175.140 102.086,177.164 100.925,178.882 99.924 C 180.599 98.923,184.348 96.755,187.212 95.106 C 190.075 93.457,194.943 90.645,198.029 88.858 C 201.114 87.071,206.300 84.067,209.553 82.184 C 212.805 80.300,217.582 77.527,220.167 76.023 C 222.752 74.519,225.072 73.181,225.322 73.050 C 225.572 72.919,227.756 71.661,230.174 70.255 C 234.056 67.999,243.276 62.685,245.792 61.255 C 247.582 60.237,252.506 57.373,254.839 55.992 C 256.146 55.219,257.268 54.587,257.332 54.587 C 257.397 54.587,259.995 53.086,263.105 51.251 C 266.216 49.416,268.807 47.915,268.864 47.915 C 268.921 47.915,270.781 46.849,272.998 45.546 C 275.214 44.243,277.233 43.084,277.483 42.970 C 277.733 42.857,278.143 42.626,278.393 42.458 C 279.072 42.003,288.753 36.391,288.859 36.391 C 288.910 36.391,291.113 35.120,293.755 33.567 C 296.398 32.014,298.764 30.650,299.014 30.537 C 299.265 30.423,299.674 30.192,299.924 30.024 C 300.862 29.395,304.623 27.293,304.812 27.293 C 304.921 27.293,305.251 27.662,305.546 28.112 M293.996 53.725 C 296.282 56.267,299.735 63.067,299.189 63.951 C 298.981 64.287,291.901 68.537,291.548 68.537 C 291.428 68.537,291.114 68.724,290.850 68.953 C 290.587 69.182,289.553 69.818,288.552 70.367 C 287.551 70.916,285.274 72.230,283.491 73.287 C 281.709 74.344,280.188 75.208,280.113 75.208 C 280.037 75.208,277.948 76.411,275.469 77.882 C 272.991 79.352,270.212 80.967,269.295 81.470 C 268.378 81.974,265.269 83.773,262.388 85.469 C 259.506 87.165,257.092 88.552,257.022 88.552 C 256.952 88.552,254.874 89.747,252.405 91.207 C 249.935 92.667,247.574 94.031,247.157 94.237 C 246.740 94.444,246.194 94.749,245.944 94.915 C 245.033 95.519,237.178 100.076,237.048 100.076 C 236.973 100.076,234.383 101.577,231.290 103.412 C 228.198 105.246,225.605 106.748,225.528 106.748 C 225.451 106.748,223.319 107.976,220.790 109.477 C 218.261 110.978,216.135 112.206,216.065 112.206 C 215.996 112.206,213.400 113.707,210.297 115.542 C 207.194 117.377,204.597 118.878,204.526 118.878 C 204.455 118.878,202.589 119.948,200.379 121.256 C 198.169 122.564,193.904 125.042,190.902 126.761 C 187.900 128.481,185.034 130.137,184.534 130.441 C 184.033 130.745,183.010 131.325,182.259 131.729 C 181.509 132.133,179.145 133.501,177.007 134.769 C 174.869 136.036,173.073 137.074,173.017 137.074 C 172.960 137.074,170.752 138.344,168.110 139.898 C 165.467 141.451,163.101 142.814,162.851 142.928 C 162.600 143.042,162.191 143.268,161.941 143.430 C 160.835 144.147,153.170 148.597,153.039 148.597 C 152.960 148.597,150.461 150.044,147.486 151.813 C 144.511 153.582,141.804 155.151,141.471 155.300 C 141.137 155.449,140.660 155.707,140.409 155.873 C 139.587 156.420,130.077 161.941,129.958 161.941 C 129.893 161.941,127.302 163.442,124.199 165.277 C 121.095 167.111,118.502 168.613,118.435 168.613 C 118.368 168.613,116.564 169.650,114.426 170.919 C 112.288 172.187,110.265 173.347,109.932 173.496 C 109.598 173.645,109.121 173.903,108.870 174.069 C 106.565 175.603,102.069 178.005,101.873 177.807 C 101.738 177.671,101.489 177.013,101.320 176.346 C 101.151 175.679,100.817 174.359,100.577 173.413 C 100.338 172.468,100.055 171.554,99.950 171.383 C 98.559 169.134,98.657 154.250,100.104 147.825 C 100.810 144.692,100.229 145.235,106.899 141.473 C 108.734 140.438,112.126 138.479,114.438 137.119 C 116.750 135.760,118.690 134.647,118.750 134.647 C 118.810 134.647,120.603 133.608,122.735 132.338 C 124.867 131.067,127.225 129.695,127.976 129.289 C 128.726 128.882,129.545 128.423,129.795 128.269 C 131.062 127.487,138.628 123.124,138.718 123.124 C 138.775 123.124,141.366 121.622,144.476 119.788 C 147.586 117.953,150.179 116.452,150.238 116.452 C 150.297 116.452,152.890 114.951,156.000 113.116 C 159.110 111.281,161.715 109.780,161.787 109.780 C 161.860 109.780,162.931 109.166,164.167 108.415 C 166.963 106.718,166.726 106.693,168.627 108.886 C 171.415 112.105,174.200 113.975,177.693 114.974 C 181.248 115.991,181.918 115.853,186.525 113.164 C 188.766 111.856,191.281 110.410,192.115 109.950 C 192.949 109.490,195.679 107.920,198.180 106.460 C 200.682 105.000,205.186 102.396,208.188 100.673 C 216.441 95.935,230.810 87.623,239.169 82.750 C 241.697 81.276,244.516 79.659,245.432 79.156 C 246.349 78.653,249.172 77.013,251.706 75.512 C 254.239 74.011,256.364 72.782,256.427 72.782 C 256.491 72.782,258.894 71.399,261.768 69.709 C 264.643 68.018,267.614 66.290,268.372 65.868 C 269.130 65.446,273.571 62.888,278.241 60.183 C 282.911 57.477,287.346 54.920,288.097 54.500 C 288.848 54.079,290.076 53.383,290.826 52.952 C 292.566 51.953,292.357 51.902,293.996 53.725 M308.870 66.781 C 307.703 67.454,305.042 68.993,302.957 70.202 C 300.872 71.411,298.552 72.740,297.801 73.156 C 297.051 73.571,294.458 75.070,292.039 76.486 C 289.621 77.902,287.028 79.404,286.277 79.823 C 284.820 80.637,278.087 84.534,270.660 88.863 C 268.158 90.322,265.428 91.891,264.594 92.352 C 263.760 92.812,261.261 94.260,259.039 95.571 C 256.818 96.881,254.959 97.953,254.907 97.953 C 254.856 97.953,252.134 99.522,248.857 101.440 C 245.581 103.359,242.853 104.928,242.794 104.928 C 242.736 104.928,241.092 105.883,239.142 107.051 C 237.191 108.218,235.517 109.174,235.421 109.174 C 235.324 109.174,232.638 110.724,229.450 112.619 C 226.262 114.515,222.835 116.512,221.835 117.059 C 220.834 117.605,217.862 119.329,215.230 120.891 C 212.598 122.452,210.380 123.730,210.301 123.730 C 210.182 123.730,202.828 127.983,201.365 128.898 C 201.114 129.054,200.364 129.477,199.698 129.836 C 199.031 130.196,196.685 131.562,194.485 132.872 C 192.285 134.182,190.424 135.254,190.351 135.254 C 190.277 135.254,187.671 136.755,184.561 138.590 C 181.451 140.425,178.860 141.926,178.804 141.926 C 178.747 141.926,176.534 143.199,173.884 144.756 C 171.235 146.312,168.385 147.965,167.551 148.430 C 166.717 148.894,163.988 150.468,161.486 151.927 C 158.984 153.386,154.481 155.988,151.478 157.709 C 148.476 159.430,144.431 161.765,142.489 162.898 C 140.547 164.031,138.206 165.371,137.287 165.875 C 136.368 166.380,133.542 168.021,131.009 169.522 C 128.475 171.023,126.352 172.252,126.291 172.252 C 126.230 172.252,123.889 173.591,121.089 175.227 C 118.288 176.863,114.086 179.307,111.751 180.658 C 109.416 182.009,107.028 183.390,106.444 183.728 C 105.861 184.066,104.844 184.636,104.185 184.995 C 98.265 188.224,95.833 189.916,93.666 192.317 C 92.438 193.678,91.293 194.940,91.123 195.122 C 90.389 195.902,86.825 200.377,86.159 201.356 C 83.907 204.661,84.096 207.473,86.643 208.537 C 87.971 209.092,87.970 209.092,94.466 205.905 C 115.218 195.722,122.523 198.645,127.838 219.257 C 128.352 221.253,128.703 222.727,129.644 226.839 C 129.930 228.089,130.354 229.932,130.587 230.933 C 130.820 231.933,131.153 233.503,131.327 234.420 C 131.501 235.337,131.852 237.043,132.106 238.211 C 132.361 239.378,132.771 241.289,133.016 242.456 C 133.261 243.624,133.650 245.398,133.880 246.399 C 134.109 247.400,134.507 249.174,134.763 250.341 C 136.061 256.256,136.702 258.873,137.661 262.168 C 137.807 262.669,138.225 264.102,138.590 265.353 C 141.499 275.323,144.721 282.262,147.090 283.658 C 150.719 285.797,159.138 285.350,164.000 282.760 L 166.513 281.421 167.790 281.994 C 170.550 283.231,169.996 283.422,179.014 278.122 C 181.315 276.770,183.246 275.663,183.305 275.663 C 183.363 275.663,185.165 274.622,187.308 273.350 C 189.452 272.078,191.915 270.650,192.782 270.178 C 193.649 269.706,196.856 267.863,199.908 266.082 C 202.961 264.302,207.710 261.548,210.462 259.961 C 213.215 258.375,216.387 256.545,217.512 255.895 C 219.907 254.511,220.544 253.537,220.410 251.463 L 220.318 250.038 213.343 245.878 L 206.368 241.718 205.371 239.358 C 204.823 238.060,203.486 234.746,202.401 231.994 C 201.316 229.242,200.305 226.717,200.155 226.384 C 199.523 224.982,198.643 222.818,197.132 218.954 C 196.773 218.036,196.360 217.013,196.213 216.679 C 195.544 215.161,193.783 210.435,193.783 210.157 C 193.783 209.987,193.658 209.611,193.504 209.321 C 193.255 208.850,192.752 207.386,191.698 204.065 C 189.031 195.662,189.055 189.619,191.763 187.668 C 192.582 187.078,203.780 180.440,203.956 180.440 C 204.022 180.440,206.615 178.939,209.718 177.104 C 212.821 175.269,215.409 173.768,215.468 173.768 C 215.528 173.768,217.326 172.730,219.464 171.462 C 221.602 170.193,223.624 169.034,223.958 168.885 C 224.291 168.736,224.769 168.479,225.019 168.315 C 225.269 168.151,227.715 166.699,230.455 165.089 L 235.437 162.163 234.549 161.521 C 230.555 158.633,228.941 156.557,225.795 150.265 C 220.648 139.971,221.443 132.144,228.617 122.503 C 231.268 118.939,231.188 119.016,233.614 117.704 C 234.588 117.177,237.454 115.538,239.982 114.063 C 244.203 111.600,247.474 109.706,261.259 101.742 C 263.927 100.201,268.567 97.510,271.569 95.763 C 274.572 94.016,277.172 92.532,277.348 92.465 C 277.524 92.398,279.981 90.991,282.807 89.339 C 285.633 87.687,290.470 84.874,293.556 83.087 C 312.349 72.204,310.675 73.558,310.986 68.993 C 311.252 65.097,311.444 65.299,308.870 66.781 M157.621 119.139 C 152.945 121.819,153.218 121.444,153.881 124.261 C 154.604 127.332,155.187 129.992,155.428 131.312 C 155.535 131.895,155.743 132.782,155.890 133.283 C 156.037 133.783,156.445 135.557,156.797 137.225 C 157.784 141.913,158.097 143.139,158.305 143.139 C 158.535 143.139,165.875 138.960,166.411 138.523 C 166.632 138.343,166.715 137.888,166.611 137.418 C 166.137 135.263,162.583 120.383,162.008 118.144 C 161.679 116.862,161.538 116.894,157.621 119.139 M149.356 123.987 C 145.486 126.059,143.139 127.521,143.139 127.860 C 143.139 128.063,143.343 129.094,143.593 130.150 C 143.843 131.206,144.180 132.684,144.342 133.434 C 144.686 135.027,145.663 139.406,146.304 142.229 C 146.550 143.313,146.988 145.292,147.276 146.626 C 147.565 147.961,147.830 149.095,147.864 149.147 C 147.899 149.199,149.659 148.250,151.775 147.037 C 155.595 144.849,155.622 144.826,155.413 143.910 C 155.297 143.402,155.019 142.100,154.794 141.016 C 154.569 139.932,154.186 138.158,153.942 137.074 C 153.699 135.989,153.295 134.147,153.045 132.980 C 152.794 131.812,152.356 129.833,152.071 128.582 C 151.786 127.331,151.400 125.603,151.212 124.741 L 150.872 123.175 149.356 123.987 M220.217 125.171 C 220.089 125.462,219.705 126.315,219.364 127.066 C 215.049 136.563,216.762 147.636,224.296 158.961 C 225.732 161.119,225.924 161.941,224.994 161.941 C 224.881 161.941,222.243 163.442,219.133 165.277 C 216.022 167.111,213.416 168.613,213.342 168.613 C 213.267 168.613,211.804 169.450,210.091 170.474 C 208.377 171.497,205.406 173.223,203.487 174.309 C 201.569 175.395,198.567 177.129,196.816 178.163 C 195.064 179.196,192.742 180.530,191.655 181.126 C 184.040 185.303,182.452 191.171,185.685 203.184 C 186.454 206.038,189.326 214.499,190.164 216.376 C 190.313 216.710,190.830 218.006,191.314 219.257 C 192.668 222.758,194.685 227.831,194.992 228.506 C 195.143 228.840,195.561 229.864,195.921 230.781 C 196.281 231.698,196.693 232.722,196.838 233.055 C 196.983 233.389,197.861 235.572,198.790 237.908 C 199.718 240.243,200.662 242.563,200.888 243.063 C 201.113 243.563,201.389 244.279,201.502 244.653 C 201.639 245.105,202.922 246.059,205.337 247.503 C 209.757 250.146,209.874 250.452,206.917 251.628 C 206.599 251.754,204.026 253.209,201.199 254.861 C 195.832 257.997,188.328 262.347,179.833 267.249 C 177.081 268.837,172.373 271.563,169.371 273.305 C 158.808 279.438,159.807 279.017,155.323 279.216 C 150.714 279.421,150.127 279.313,149.428 278.131 C 148.575 276.687,148.424 276.815,155.876 272.693 C 156.626 272.278,158.709 271.070,160.504 270.010 C 162.299 268.950,163.818 268.082,163.880 268.082 C 163.941 268.082,166.498 266.606,169.562 264.802 C 172.626 262.998,175.337 261.428,175.588 261.311 C 175.838 261.195,176.452 260.830,176.952 260.500 C 177.453 260.170,178.067 259.804,178.317 259.685 C 178.567 259.567,181.569 257.819,184.989 255.802 C 188.408 253.785,192.480 251.406,194.039 250.517 C 196.450 249.140,196.849 248.803,196.718 248.255 C 196.592 247.726,193.535 239.613,190.990 233.055 C 190.667 232.221,190.286 231.198,190.144 230.781 C 190.002 230.364,189.621 229.340,189.296 228.506 C 188.705 226.987,185.252 217.916,184.505 215.921 C 184.287 215.337,183.846 214.177,183.526 213.343 C 182.816 211.491,178.384 199.805,177.833 198.332 C 177.615 197.748,177.147 196.520,176.794 195.603 C 176.440 194.685,175.786 192.945,175.340 191.736 C 174.455 189.336,173.924 189.036,172.252 189.992 C 171.139 190.629,168.345 190.567,167.307 189.882 C 164.245 187.864,164.910 184.161,168.726 181.978 C 170.802 180.790,171.176 180.354,170.772 179.597 C 170.601 179.280,170.270 178.486,170.036 177.834 C 169.801 177.182,168.547 173.851,167.248 170.432 C 165.949 167.013,164.716 163.742,164.507 163.165 C 163.893 161.466,164.463 161.269,156.482 165.943 C 154.064 167.359,151.433 168.880,150.636 169.322 C 149.839 169.764,147.090 171.354,144.526 172.854 C 141.963 174.355,139.664 175.660,139.417 175.755 C 138.726 176.020,136.884 172.908,137.430 172.398 C 137.834 172.019,147.613 166.187,147.844 166.187 C 147.911 166.187,150.122 164.918,152.755 163.367 C 155.389 161.816,157.748 160.451,157.998 160.333 C 158.249 160.216,159.216 159.677,160.148 159.135 C 161.080 158.593,163.468 157.206,165.455 156.053 C 167.442 154.900,171.456 152.568,174.375 150.872 C 177.293 149.175,181.307 146.844,183.294 145.691 C 185.281 144.537,187.669 143.150,188.601 142.609 C 189.533 142.067,190.497 141.529,190.743 141.413 C 190.988 141.297,193.357 139.932,196.006 138.380 C 198.655 136.827,200.863 135.557,200.914 135.557 C 200.965 135.557,203.207 134.261,205.898 132.676 C 208.588 131.092,210.837 129.795,210.894 129.795 C 210.951 129.795,212.959 128.637,215.355 127.221 C 219.846 124.567,220.627 124.238,220.217 125.171 M138.590 130.182 C 137.672 130.727,136.273 131.512,135.480 131.925 C 134.687 132.338,133.764 132.883,133.429 133.135 L 132.821 133.594 133.454 136.471 C 133.803 138.053,134.287 140.235,134.529 141.319 C 134.772 142.403,135.185 144.314,135.446 145.565 C 135.708 146.816,136.121 148.726,136.365 149.810 C 136.608 150.895,136.949 152.498,137.122 153.374 C 137.514 155.357,137.445 155.363,141.458 152.989 C 143.286 151.908,144.889 151.024,145.021 151.024 C 145.385 151.024,145.311 149.992,144.809 148.062 C 144.376 146.400,143.269 141.460,142.312 136.922 C 142.066 135.754,141.664 133.912,141.420 132.828 C 141.175 131.744,140.900 130.481,140.809 130.023 C 140.603 128.982,140.608 128.982,138.590 130.182 M96.210 131.552 C 94.018 132.852,94.035 132.530,95.982 135.934 C 97.904 139.296,97.016 139.428,105.366 134.548 L 108.989 132.432 107.489 132.046 C 106.664 131.834,105.307 131.568,104.473 131.456 C 103.639 131.343,102.138 131.062,101.137 130.831 C 98.604 130.246,98.347 130.284,96.210 131.552 M123.808 134.492 C 123.268 134.727,120.852 136.086,118.441 137.513 C 116.029 138.939,113.997 140.106,113.924 140.106 C 113.649 140.106,103.844 146.010,103.374 146.459 C 100.870 148.853,101.586 154.214,104.664 156.106 C 108.284 158.331,111.251 156.854,116.963 149.981 C 118.220 148.470,119.494 146.938,119.795 146.578 C 121.758 144.229,126.641 137.129,127.070 136.000 C 127.736 134.251,126.102 133.495,123.808 134.492 M128.524 137.769 C 127.741 139.150,126.398 141.355,125.540 142.669 C 123.812 145.316,123.801 145.415,124.742 149.507 C 125.221 151.587,125.777 154.143,126.622 158.150 C 127.291 161.320,127.226 161.289,129.868 159.685 C 131.121 158.924,132.234 158.302,132.342 158.302 C 132.449 158.302,133.094 157.950,133.775 157.520 C 135.151 156.652,135.194 156.138,134.203 152.388 C 133.982 151.554,133.574 149.780,133.295 148.446 C 133.016 147.111,132.596 145.201,132.362 144.200 C 132.129 143.199,131.657 141.084,131.315 139.500 C 130.972 137.915,130.624 136.312,130.541 135.936 C 130.302 134.857,130.039 135.096,128.524 137.769 M201.971 139.122 C 201.554 139.177,200.940 139.336,200.607 139.476 C 200.273 139.616,199.042 140.088,197.871 140.524 C 192.444 142.547,182.950 148.683,177.951 153.400 C 171.015 159.943,173.571 171.611,183.045 176.648 C 188.803 179.710,192.115 178.863,205.606 170.878 C 209.189 168.757,212.535 166.799,213.041 166.528 C 216.428 164.712,222.284 161.130,222.286 160.873 C 222.306 158.980,218.294 151.163,215.115 146.899 C 212.680 143.633,208.048 139.803,206.534 139.803 C 206.259 139.803,205.905 139.683,205.747 139.537 C 205.415 139.230,203.090 138.975,201.971 139.122 M205.489 145.436 C 207.390 146.435,210.368 149.480,212.171 152.267 C 214.059 155.186,215.670 158.374,215.390 158.637 C 215.180 158.835,206.415 164.019,203.639 165.587 C 202.972 165.964,202.017 166.525,201.516 166.833 C 201.016 167.142,200.402 167.489,200.152 167.605 C 199.901 167.720,198.810 168.356,197.726 169.017 C 191.708 172.685,188.839 173.348,185.747 171.783 C 181.618 169.695,179.711 166.670,179.693 162.180 L 179.682 159.539 181.198 157.979 C 182.772 156.361,187.249 152.857,190.144 150.979 C 198.956 145.262,202.632 143.934,205.489 145.436 M110.161 146.652 C 112.654 147.841,113.326 151.051,111.498 153.046 C 109.321 155.421,105.675 154.510,104.625 151.328 C 103.605 148.238,107.171 145.226,110.161 146.652 M120.483 149.573 C 119.967 150.288,118.435 152.032,117.078 153.450 C 115.029 155.591,114.638 156.156,114.768 156.785 C 114.853 157.202,115.142 158.499,115.409 159.666 C 115.677 160.834,116.078 162.676,116.301 163.760 C 117.050 167.398,116.679 167.315,121.001 164.811 C 123.086 163.604,124.752 162.448,124.704 162.242 C 124.655 162.037,124.403 160.828,124.142 159.555 C 123.882 158.282,123.484 156.422,123.260 155.421 C 123.035 154.420,122.646 152.612,122.396 151.403 C 121.723 148.153,121.596 148.032,120.483 149.573 M186.657 154.585 C 185.823 155.186,184.407 156.217,183.510 156.877 L 181.879 158.076 182.031 159.970 C 182.520 166.058,187.590 170.151,193.707 169.394 C 195.921 169.120,195.966 169.030,194.438 167.950 C 189.568 164.507,188.162 162.022,188.246 157.013 C 188.279 155.053,188.276 153.459,188.240 153.471 C 188.203 153.484,187.491 153.985,186.657 154.585 M90.799 157.670 C 90.551 157.899,87.757 158.773,84.913 159.513 C 79.706 160.867,78.676 161.561,78.941 163.536 C 79.142 165.036,80.604 166.450,83.213 167.669 C 84.231 168.145,85.883 168.912,86.884 169.374 C 87.885 169.835,89.454 170.706,90.371 171.308 C 91.289 171.911,92.195 172.504,92.386 172.628 C 92.641 172.792,92.658 172.552,92.452 171.718 C 91.820 169.162,91.553 166.406,91.525 162.159 C 91.497 157.823,91.385 157.130,90.799 157.670 M102.515 157.756 C 102.528 158.139,102.884 161.134,103.840 168.916 C 104.577 174.912,104.193 174.606,108.086 172.290 C 109.435 171.487,111.472 170.318,112.613 169.691 C 114.408 168.706,114.660 168.464,114.486 167.900 C 114.251 167.140,113.240 162.534,112.779 160.121 C 112.373 157.998,112.137 157.771,111.145 158.551 C 109.467 159.871,105.503 159.650,103.503 158.125 C 102.882 157.651,102.507 157.511,102.515 157.756 M176.478 179.630 C 176.050 179.825,175.163 180.401,174.507 180.910 C 173.850 181.418,172.699 182.080,171.948 182.379 C 167.517 184.148,166.630 185.106,167.500 187.187 C 168.267 189.021,169.619 189.283,172.555 188.166 C 173.306 187.881,175.063 187.527,176.461 187.379 C 180.017 187.005,181.959 185.656,182.446 183.221 C 182.961 180.646,179.206 178.387,176.478 179.630 M124.935 182.427 C 125.666 187.682,126.297 191.623,127.070 195.754 C 127.682 199.030,128.287 203.277,128.159 203.405 C 128.085 203.479,127.781 203.153,127.483 202.680 C 125.589 199.669,122.543 197.222,118.947 195.823 C 116.603 194.912,108.010 194.847,105.080 195.720 C 101.995 196.638,99.082 197.637,97.549 198.302 C 94.916 199.445,94.919 199.217,97.580 196.258 C 99.017 194.661,100.240 193.703,102.584 192.337 C 113.849 185.777,116.790 184.079,116.886 184.079 C 116.945 184.079,118.604 183.122,120.572 181.953 C 124.603 179.559,124.535 179.551,124.935 182.427 M180.227 180.974 C 182.192 182.743,181.007 185.898,178.378 185.898 C 176.217 185.898,174.826 183.178,176.075 181.395 C 177.009 180.062,178.991 179.861,180.227 180.974 " stroke="none" fill="#4d50ff" fill-rule="evenodd"></path><path id="path1" d="M0.000 151.630 L 0.000 303.260 200.000 303.260 L 400.000 303.260 400.000 151.630 L 400.000 0.000 200.000 0.000 L 0.000 0.000 0.000 151.630 M297.125 19.226 C 299.006 20.434,300.305 22.317,299.576 22.778 C 299.351 22.921,299.276 23.041,299.410 23.043 C 299.688 23.048,302.272 21.654,304.863 20.100 C 305.828 19.522,306.792 19.116,307.006 19.198 C 307.798 19.502,315.320 33.097,317.119 37.476 C 318.119 39.910,319.382 43.331,319.630 44.276 C 319.783 44.860,320.244 46.535,320.653 47.999 C 322.566 54.834,322.779 67.627,320.980 67.627 C 320.741 67.627,320.546 67.763,320.546 67.930 C 320.546 68.097,320.375 68.237,320.167 68.242 C 319.958 68.246,318.094 69.265,316.025 70.504 C 313.955 71.744,312.149 72.689,312.013 72.605 C 311.876 72.520,311.851 70.547,311.956 68.220 C 312.062 65.892,312.072 63.988,311.977 63.988 C 311.725 63.988,307.430 66.424,306.899 66.869 C 306.649 67.078,305.489 67.767,304.321 68.399 C 303.154 69.032,301.653 69.865,300.986 70.252 C 300.318 70.639,299.568 71.048,299.318 71.162 C 299.067 71.275,298.292 71.755,297.595 72.227 C 296.898 72.699,296.241 73.086,296.135 73.086 C 296.029 73.086,294.787 73.768,293.375 74.602 C 291.963 75.436,290.757 76.118,290.694 76.118 C 290.632 76.118,288.508 77.347,285.974 78.848 C 283.440 80.349,280.664 81.964,279.804 82.437 C 278.944 82.909,275.921 84.658,273.086 86.323 C 270.250 87.988,267.726 89.445,267.475 89.561 C 267.225 89.677,266.611 90.042,266.111 90.371 C 265.610 90.701,264.996 91.068,264.746 91.187 C 264.496 91.306,262.833 92.262,261.051 93.313 C 259.269 94.364,257.743 95.224,257.659 95.224 C 257.575 95.224,255.758 96.266,253.621 97.540 C 251.483 98.814,248.984 100.263,248.067 100.760 C 246.289 101.723,240.800 104.906,230.874 110.734 C 227.506 112.711,224.606 114.329,224.430 114.329 C 224.253 114.329,224.109 114.466,224.109 114.632 C 224.109 114.799,223.965 114.936,223.788 114.936 C 223.611 114.936,221.163 116.300,218.347 117.968 C 215.531 119.636,213.164 121.001,213.087 121.001 C 213.010 121.001,210.873 122.229,208.340 123.730 C 205.806 125.231,203.679 126.459,203.613 126.459 C 203.547 126.459,200.948 127.961,197.836 129.795 C 194.725 131.630,192.124 133.131,192.057 133.131 C 191.989 133.131,189.450 134.606,186.414 136.410 C 183.379 138.213,180.690 139.781,180.440 139.895 C 180.190 140.009,179.780 140.233,179.530 140.392 C 178.632 140.964,172.394 144.549,171.948 144.750 C 171.698 144.862,171.289 145.090,171.039 145.255 C 170.110 145.869,163.720 149.507,163.570 149.507 C 163.485 149.507,162.820 149.917,162.092 150.417 C 161.365 150.917,160.698 151.327,160.609 151.327 C 160.521 151.327,158.596 152.418,156.331 153.753 C 154.066 155.087,152.126 156.179,152.021 156.179 C 151.916 156.179,151.614 156.366,151.351 156.595 C 151.087 156.823,150.190 157.384,149.356 157.841 C 147.309 158.963,144.203 160.762,140.626 162.898 C 138.994 163.873,137.607 164.670,137.543 164.670 C 137.479 164.670,135.924 165.557,134.086 166.641 C 132.249 167.726,130.600 168.613,130.422 168.613 C 130.244 168.613,130.099 168.736,130.099 168.886 C 130.099 169.037,129.723 169.308,129.265 169.488 C 128.806 169.669,128.226 169.956,127.976 170.127 C 127.387 170.528,120.989 174.193,120.394 174.471 C 120.144 174.588,119.480 174.961,118.919 175.300 C 116.065 177.026,109.127 181.046,109.002 181.046 C 108.923 181.046,108.281 181.419,107.575 181.874 C 105.900 182.955,105.544 183.167,103.785 184.129 C 102.972 184.574,101.037 185.700,99.484 186.631 C 95.592 188.967,95.821 189.142,95.844 183.851 C 95.855 181.391,95.726 178.901,95.557 178.317 C 95.389 177.733,95.055 176.482,94.815 175.536 C 94.576 174.591,94.303 173.693,94.210 173.541 C 93.058 171.679,92.389 155.882,93.257 151.071 C 94.773 142.670,95.464 140.969,97.909 139.626 C 101.239 137.795,107.051 134.312,107.051 134.146 C 107.051 134.061,106.607 134.263,106.065 134.594 C 105.523 134.926,104.534 135.493,103.867 135.856 C 103.199 136.218,101.835 136.987,100.834 137.564 C 97.268 139.620,97.599 139.674,96.096 136.790 C 95.700 136.029,95.293 135.337,95.193 135.254 C 94.795 134.923,93.966 132.842,94.129 132.579 C 94.224 132.426,95.156 131.790,96.202 131.168 C 98.303 129.916,98.279 129.917,103.260 130.839 C 110.372 132.156,110.211 132.086,108.491 133.134 C 107.949 133.465,107.615 133.736,107.748 133.737 C 108.136 133.738,109.495 132.986,115.346 129.528 C 118.373 127.739,121.054 126.182,121.304 126.067 C 121.554 125.951,121.964 125.722,122.214 125.558 C 123.146 124.945,131.038 120.394,131.168 120.394 C 131.289 120.394,137.446 116.859,138.590 116.132 C 138.840 115.973,139.703 115.468,140.507 115.010 C 141.311 114.552,143.672 113.188,145.755 111.979 C 147.837 110.770,149.622 109.780,149.723 109.780 C 149.823 109.780,150.352 109.439,150.898 109.022 C 151.445 108.606,152.208 108.128,152.595 107.962 C 152.982 107.795,153.503 107.531,153.753 107.374 C 154.003 107.218,156.118 105.981,158.453 104.625 C 160.788 103.269,162.904 102.032,163.154 101.875 C 163.404 101.719,163.882 101.452,164.215 101.284 C 164.549 101.115,165.231 100.703,165.732 100.369 C 166.232 100.035,167.017 99.598,167.475 99.397 C 167.934 99.197,168.309 98.927,168.309 98.796 C 168.309 98.666,168.462 98.560,168.649 98.560 C 168.835 98.560,169.757 98.099,170.696 97.536 C 171.635 96.974,173.086 96.139,173.920 95.681 C 176.144 94.459,181.706 91.265,187.498 87.883 C 190.296 86.249,192.634 84.913,192.692 84.913 C 192.816 84.913,202.446 79.266,204.285 78.115 C 204.974 77.684,205.690 77.331,205.877 77.331 C 206.064 77.331,206.217 77.195,206.217 77.028 C 206.217 76.861,206.362 76.725,206.540 76.725 C 206.717 76.725,208.457 75.787,210.406 74.641 C 212.355 73.495,214.496 72.263,215.163 71.904 C 215.830 71.545,216.854 70.965,217.437 70.617 C 220.784 68.620,225.519 65.876,225.794 65.774 C 226.095 65.663,228.993 63.982,241.698 56.548 C 244.617 54.840,247.483 53.203,248.067 52.911 C 248.650 52.619,249.196 52.282,249.280 52.164 C 249.363 52.045,249.582 51.894,249.765 51.827 C 250.184 51.675,256.090 48.291,262.017 44.807 C 264.500 43.347,266.601 42.153,266.687 42.153 C 266.774 42.153,269.340 40.683,272.391 38.885 C 275.442 37.088,278.552 35.287,279.303 34.883 C 282.166 33.341,288.535 29.417,288.173 29.417 C 287.523 29.416,287.736 28.774,289.689 24.856 C 293.016 18.184,294.158 17.319,297.125 19.226 M302.805 28.730 C 301.804 29.312,298.909 31.000,296.371 32.483 C 293.832 33.965,291.696 35.178,291.623 35.178 C 291.550 35.178,289.397 36.423,286.837 37.944 C 284.278 39.465,281.433 41.119,280.516 41.618 C 279.598 42.118,276.766 43.739,274.223 45.221 C 271.679 46.703,267.517 49.128,264.973 50.610 C 262.430 52.092,259.666 53.681,258.832 54.141 C 257.998 54.601,255.382 56.118,253.019 57.512 C 250.655 58.905,248.574 60.045,248.394 60.045 C 248.214 60.045,248.067 60.182,248.067 60.349 C 248.067 60.516,247.932 60.652,247.767 60.652 C 247.603 60.652,245.999 61.520,244.204 62.580 C 242.409 63.641,240.326 64.849,239.575 65.267 C 237.407 66.472,236.351 67.083,231.906 69.707 C 229.606 71.065,227.665 72.176,227.594 72.176 C 227.522 72.176,224.924 73.677,221.821 75.512 C 218.718 77.346,216.126 78.848,216.062 78.848 C 215.998 78.848,214.092 79.939,211.827 81.274 C 209.562 82.608,207.653 83.700,207.585 83.700 C 207.516 83.700,206.854 84.109,206.112 84.610 C 205.371 85.110,204.683 85.519,204.585 85.519 C 204.486 85.519,202.936 86.387,201.141 87.447 C 199.346 88.508,197.263 89.716,196.513 90.133 C 195.762 90.549,192.783 92.275,189.893 93.967 C 187.004 95.659,184.592 97.043,184.533 97.043 C 184.420 97.043,173.088 103.709,172.892 103.892 C 172.606 104.158,174.470 106.138,175.798 106.979 C 179.208 109.138,180.809 109.212,183.776 107.349 C 184.960 106.605,194.156 101.289,194.258 101.289 C 194.322 101.289,196.565 99.992,199.242 98.408 C 201.919 96.823,204.167 95.527,204.237 95.527 C 204.307 95.527,206.549 94.230,209.218 92.646 C 211.887 91.061,214.128 89.765,214.197 89.765 C 214.266 89.765,216.878 88.264,220.002 86.429 C 223.125 84.594,225.739 83.093,225.811 83.093 C 225.882 83.093,226.450 82.772,227.072 82.380 C 227.694 81.988,231.478 79.778,235.481 77.469 C 239.484 75.160,243.920 72.597,245.337 71.772 C 246.755 70.947,248.529 69.928,249.280 69.506 C 250.030 69.085,252.103 67.876,253.886 66.819 C 255.668 65.762,257.189 64.898,257.264 64.898 C 257.339 64.898,259.931 63.397,263.024 61.562 C 266.116 59.727,268.711 58.226,268.790 58.226 C 268.869 58.226,271.007 56.998,273.541 55.496 C 276.075 53.995,278.900 52.354,279.819 51.850 C 280.738 51.345,283.104 49.981,285.077 48.817 C 287.050 47.654,288.810 46.702,288.987 46.702 C 289.165 46.702,289.310 46.593,289.310 46.459 C 289.310 46.155,291.895 44.882,292.515 44.882 C 293.024 44.882,294.417 45.808,295.821 47.080 C 296.326 47.538,296.836 47.913,296.954 47.914 C 297.863 47.920,302.663 55.262,303.845 58.453 C 304.664 60.664,304.638 60.657,306.859 59.326 C 307.799 58.764,308.709 58.252,308.882 58.189 C 309.056 58.126,310.588 57.260,312.287 56.265 L 315.377 54.457 315.190 53.233 C 314.390 47.977,311.804 40.952,307.760 33.055 C 304.743 27.161,305.047 27.427,302.805 28.730 M288.552 54.624 C 286.550 55.811,283.412 57.632,281.577 58.671 C 279.742 59.710,276.350 61.673,274.038 63.032 C 271.726 64.392,269.786 65.504,269.725 65.504 C 269.665 65.504,267.071 67.005,263.961 68.840 C 260.850 70.675,258.257 72.176,258.199 72.176 C 258.140 72.176,255.547 73.677,252.437 75.512 C 249.326 77.346,246.734 78.848,246.675 78.848 C 246.616 78.848,244.023 80.349,240.913 82.183 C 237.803 84.018,235.211 85.519,235.154 85.519 C 235.097 85.519,233.198 86.611,230.933 87.945 C 228.668 89.280,226.742 90.371,226.654 90.371 C 226.565 90.371,225.898 90.781,225.171 91.281 C 224.443 91.782,223.776 92.191,223.688 92.191 C 223.599 92.191,221.674 93.283,219.409 94.617 C 217.144 95.951,215.244 97.043,215.187 97.043 C 215.130 97.043,212.539 98.544,209.428 100.379 C 206.318 102.214,203.713 103.715,203.640 103.715 C 203.567 103.715,201.217 105.055,198.418 106.694 C 181.676 116.492,182.920 115.846,180.803 115.842 C 176.455 115.834,170.660 112.445,167.442 108.027 L 166.890 107.268 165.006 108.373 C 163.969 108.980,163.073 109.477,163.014 109.477 C 162.954 109.477,160.705 110.773,158.014 112.358 C 155.324 113.942,153.076 115.239,153.019 115.239 C 152.962 115.239,150.370 116.740,147.260 118.575 C 144.150 120.409,141.548 121.911,141.479 121.911 C 141.409 121.911,139.283 123.139,136.754 124.640 C 134.224 126.141,132.105 127.369,132.044 127.369 C 131.984 127.369,129.582 128.752,126.708 130.443 C 123.833 132.133,120.862 133.859,120.104 134.276 C 119.346 134.694,116.679 136.226,114.177 137.681 C 111.676 139.135,107.715 141.434,105.375 142.790 L 101.122 145.254 100.601 147.305 C 98.663 154.939,98.826 166.340,100.978 173.616 C 101.324 174.784,101.689 176.183,101.791 176.725 L 101.975 177.711 102.921 177.142 C 103.441 176.828,104.549 176.199,105.383 175.743 C 106.217 175.287,108.810 173.789,111.145 172.414 C 113.480 171.039,116.073 169.537,116.907 169.077 C 117.741 168.616,120.018 167.300,121.967 166.152 C 123.916 165.003,125.656 164.064,125.833 164.064 C 126.011 164.064,126.156 163.961,126.156 163.836 C 126.156 163.710,126.804 163.269,127.597 162.854 C 128.389 162.439,131.192 160.836,133.825 159.291 C 136.459 157.746,138.664 156.482,138.724 156.482 C 138.785 156.482,141.023 155.186,143.698 153.601 C 146.373 152.017,148.623 150.720,148.698 150.720 C 148.773 150.720,150.862 149.517,153.341 148.047 C 155.819 146.577,158.597 144.962,159.515 144.459 C 161.153 143.560,165.599 140.983,176.256 134.753 C 179.210 133.027,181.685 131.615,181.758 131.615 C 181.830 131.615,183.986 130.370,186.548 128.849 C 189.109 127.328,191.888 125.716,192.722 125.266 C 193.556 124.817,196.080 123.376,198.332 122.064 C 204.585 118.421,212.382 113.904,219.257 109.942 C 227.948 104.933,231.370 102.954,232.600 102.226 C 233.184 101.880,233.867 101.500,234.117 101.382 C 234.367 101.263,237.075 99.693,240.134 97.892 C 243.193 96.091,245.748 94.617,245.812 94.617 C 245.876 94.617,248.119 93.321,250.796 91.736 C 253.473 90.152,255.721 88.855,255.791 88.855 C 255.861 88.855,258.103 87.559,260.772 85.974 C 263.442 84.390,265.682 83.093,265.751 83.093 C 265.820 83.093,268.432 81.592,271.556 79.757 C 274.679 77.923,277.278 76.422,277.331 76.422 C 277.384 76.422,279.977 74.920,283.093 73.086 C 286.209 71.251,288.801 69.750,288.852 69.750 C 288.922 69.750,294.781 66.358,298.660 64.072 C 299.752 63.429,293.821 52.457,292.387 52.465 C 292.279 52.466,290.553 53.437,288.552 54.624 M311.277 66.212 C 311.267 66.657,311.233 68.247,311.202 69.745 C 311.128 73.278,311.029 73.384,304.018 77.455 C 301.016 79.199,296.861 81.624,294.784 82.845 C 292.708 84.066,290.251 85.488,289.326 86.005 C 286.160 87.773,284.910 88.495,281.025 90.797 C 278.887 92.064,277.086 93.101,277.022 93.101 C 276.903 93.101,268.900 97.713,268.082 98.253 C 267.832 98.418,267.081 98.844,266.414 99.198 C 265.293 99.794,260.639 102.476,259.591 103.130 C 259.340 103.286,258.863 103.551,258.529 103.720 C 258.196 103.889,257.513 104.294,257.013 104.621 C 256.513 104.947,255.557 105.509,254.890 105.869 C 254.223 106.229,251.903 107.573,249.735 108.856 C 247.566 110.139,245.588 111.280,245.337 111.392 C 245.087 111.504,244.678 111.729,244.428 111.892 C 242.758 112.981,237.129 116.149,236.865 116.149 C 236.688 116.149,236.543 116.251,236.543 116.377 C 236.543 116.502,235.553 117.128,234.344 117.767 C 227.187 121.551,221.762 133.037,223.149 141.471 C 223.950 146.348,228.753 156.416,231.249 158.453 C 231.454 158.620,232.590 159.490,233.773 160.386 C 234.957 161.283,235.859 162.124,235.777 162.256 C 235.628 162.497,225.471 168.613,225.219 168.613 C 225.145 168.613,222.670 170.045,219.719 171.797 C 216.768 173.548,214.288 174.981,214.208 174.981 C 214.068 174.981,210.460 177.065,199.174 183.665 C 196.218 185.394,193.682 186.808,193.539 186.808 C 191.867 186.808,189.647 191.251,189.929 194.032 C 190.190 196.605,190.820 199.995,191.091 200.288 C 191.237 200.447,191.357 200.817,191.357 201.111 C 191.357 201.406,191.545 202.231,191.774 202.946 C 192.003 203.661,192.501 205.269,192.881 206.520 C 193.261 207.771,194.042 210.023,194.616 211.524 C 196.038 215.240,198.291 220.933,198.998 222.593 C 199.969 224.875,200.066 225.112,200.743 226.839 C 201.103 227.756,201.521 228.779,201.673 229.113 C 201.825 229.447,202.441 231.016,203.043 232.600 C 203.645 234.185,204.318 235.891,204.539 236.391 C 204.759 236.892,205.091 237.642,205.275 238.059 C 205.459 238.476,205.788 239.363,206.007 240.030 C 206.386 241.187,206.726 241.436,213.311 245.378 C 221.616 250.349,220.878 249.662,220.608 252.180 C 220.363 254.470,219.916 255.089,217.762 256.122 C 217.087 256.445,216.533 256.812,216.531 256.937 C 216.529 257.062,216.386 257.165,216.212 257.165 C 216.039 257.165,215.527 257.418,215.075 257.728 C 214.258 258.287,210.457 260.454,206.975 262.344 C 205.974 262.887,205.110 263.445,205.054 263.584 C 204.999 263.723,204.843 263.836,204.709 263.836 C 204.574 263.836,202.600 264.928,200.322 266.262 C 198.044 267.597,196.095 268.688,195.991 268.688 C 195.887 268.688,195.587 268.876,195.323 269.104 C 195.060 269.333,194.077 269.942,193.140 270.456 C 192.202 270.971,189.909 272.285,188.043 273.376 C 186.177 274.467,184.567 275.360,184.464 275.360 C 184.362 275.360,184.063 275.548,183.799 275.779 C 183.536 276.009,182.365 276.714,181.198 277.346 C 180.030 277.978,178.557 278.819,177.923 279.215 C 177.290 279.611,176.471 280.072,176.104 280.238 C 175.736 280.405,175.163 280.706,174.829 280.908 C 170.547 283.492,170.045 283.606,167.896 282.485 C 166.695 281.858,166.388 281.901,164.481 282.963 C 161.928 284.383,160.757 284.700,156.645 285.087 C 148.298 285.872,145.690 284.577,142.853 278.241 C 141.496 275.209,140.878 273.671,140.111 271.418 C 139.742 270.334,139.324 269.174,139.182 268.840 C 139.039 268.506,138.727 267.483,138.488 266.566 C 138.248 265.648,137.819 264.079,137.533 263.078 C 136.261 258.628,135.093 253.907,133.858 248.218 C 132.750 243.118,132.519 242.027,132.091 239.879 C 131.335 236.083,130.452 232.047,129.471 227.900 C 128.958 225.732,128.354 223.139,128.129 222.138 C 124.631 206.592,120.984 201.255,113.589 200.859 C 110.101 200.672,106.112 201.305,103.517 202.457 C 102.992 202.690,102.417 202.881,102.239 202.881 C 101.752 202.881,100.159 203.605,94.069 206.596 C 88.025 209.565,87.416 209.690,85.538 208.353 C 82.270 206.026,84.108 202.239,93.534 191.881 C 95.659 189.545,98.843 187.421,106.596 183.165 C 107.597 182.616,110.667 180.865,113.419 179.275 C 116.171 177.685,118.832 176.165,119.333 175.896 C 119.833 175.628,120.820 175.039,121.525 174.588 C 122.231 174.137,122.867 173.768,122.939 173.768 C 123.012 173.768,123.796 173.290,124.682 172.707 C 125.569 172.123,126.402 171.645,126.535 171.645 C 126.667 171.645,127.285 171.321,127.906 170.926 C 128.528 170.530,130.607 169.299,132.525 168.190 C 134.443 167.080,136.217 166.039,136.467 165.874 C 136.717 165.710,137.263 165.410,137.680 165.207 C 138.097 165.004,139.257 164.347,140.258 163.747 C 141.259 163.147,143.033 162.137,144.200 161.504 C 145.368 160.870,146.538 160.163,146.802 159.933 C 147.065 159.703,147.370 159.515,147.480 159.515 C 147.590 159.515,149.149 158.650,150.944 157.592 C 152.739 156.535,154.412 155.579,154.663 155.467 C 154.913 155.355,155.577 154.986,156.138 154.647 C 159.163 152.817,165.934 148.901,166.072 148.901 C 166.160 148.901,167.181 148.287,168.341 147.536 C 169.502 146.785,170.515 146.171,170.594 146.171 C 170.672 146.171,172.570 145.080,174.811 143.745 C 177.052 142.411,178.949 141.319,179.025 141.319 C 179.102 141.319,180.894 140.296,183.007 139.045 C 185.121 137.794,186.923 136.770,187.012 136.770 C 187.101 136.770,188.968 135.700,191.161 134.392 C 193.354 133.084,195.830 131.636,196.664 131.173 C 199.263 129.732,200.543 128.991,204.511 126.627 C 206.627 125.368,208.428 124.337,208.514 124.337 C 208.599 124.337,211.654 122.563,215.303 120.394 C 218.952 118.226,222.005 116.452,222.088 116.452 C 222.170 116.452,224.672 115.005,227.647 113.236 C 230.621 111.468,233.328 109.897,233.662 109.745 C 233.995 109.593,234.746 109.186,235.330 108.841 C 237.153 107.760,240.872 105.622,242.486 104.725 C 243.336 104.253,246.245 102.570,248.950 100.986 C 251.655 99.401,256.375 96.638,259.439 94.845 C 262.503 93.052,265.155 91.585,265.333 91.585 C 265.510 91.585,265.656 91.448,265.656 91.281 C 265.656 91.114,265.799 90.978,265.974 90.978 C 266.150 90.978,268.231 89.842,270.599 88.453 C 272.967 87.064,276.475 85.033,278.393 83.940 C 280.312 82.846,282.359 81.666,282.942 81.317 C 283.526 80.968,284.617 80.351,285.368 79.948 C 286.118 79.544,289.164 77.766,292.135 75.998 C 295.107 74.229,297.592 72.782,297.658 72.782 C 297.723 72.782,299.630 71.691,301.895 70.356 C 304.160 69.022,306.117 67.930,306.244 67.930 C 306.371 67.930,306.641 67.764,306.844 67.561 C 307.438 66.967,310.662 65.224,310.993 65.317 C 311.160 65.364,311.288 65.767,311.277 66.212 M162.111 117.286 C 162.211 117.745,162.410 118.461,162.553 118.878 C 162.696 119.295,162.898 120.114,163.002 120.697 C 163.107 121.281,163.306 122.100,163.445 122.517 C 163.584 122.934,163.979 124.503,164.322 126.005 C 164.666 127.506,165.431 130.724,166.022 133.155 C 166.613 135.587,167.096 137.790,167.096 138.050 C 167.096 138.467,158.720 143.745,158.060 143.745 C 157.857 143.745,157.361 141.727,155.695 134.116 C 155.466 133.073,155.086 131.367,154.850 130.325 C 152.772 121.161,152.791 121.521,154.353 120.652 C 155.056 120.260,156.949 119.161,158.559 118.211 C 161.987 116.186,161.877 116.214,162.111 117.286 M151.458 123.958 C 151.679 125.223,152.362 128.386,153.014 131.160 C 154.692 138.307,155.916 144.403,155.757 144.824 C 155.594 145.257,148.459 149.507,147.895 149.507 C 147.594 149.507,147.340 148.943,147.111 147.763 C 146.708 145.683,146.089 142.808,145.462 140.106 C 144.522 136.049,143.706 132.299,143.253 129.953 L 142.786 127.534 143.645 126.846 C 144.117 126.468,144.590 126.159,144.697 126.158 C 144.803 126.157,146.168 125.407,147.729 124.492 C 151.106 122.512,151.203 122.498,151.458 123.958 M217.809 126.197 C 216.762 126.843,215.261 127.719,214.473 128.145 C 213.685 128.570,212.835 129.046,212.585 129.201 C 211.134 130.106,203.801 134.344,203.689 134.344 C 203.615 134.344,201.458 135.590,198.896 137.114 C 196.334 138.637,193.517 140.275,192.637 140.754 C 191.756 141.233,188.716 142.989,185.881 144.656 C 183.047 146.324,180.676 147.688,180.614 147.688 C 180.552 147.688,178.747 148.726,176.604 149.995 C 172.915 152.178,172.166 152.611,168.688 154.561 C 167.896 155.005,165.747 156.240,163.912 157.306 C 162.077 158.371,160.303 159.395,159.970 159.581 C 159.636 159.767,156.907 161.349,153.904 163.096 C 141.741 170.175,139.938 171.212,138.071 172.207 L 137.400 172.564 138.224 173.967 C 139.266 175.740,138.712 175.851,143.759 172.858 C 146.150 171.440,148.251 170.227,148.428 170.162 C 148.604 170.096,151.040 168.697,153.841 167.053 C 156.641 165.409,158.990 164.064,159.061 164.064 C 159.132 164.064,160.230 163.432,161.502 162.660 C 164.072 161.100,164.342 161.138,164.923 163.154 C 165.091 163.738,165.494 164.898,165.818 165.732 C 166.143 166.566,167.382 169.841,168.573 173.010 C 169.764 176.179,170.901 179.088,171.102 179.474 C 171.577 180.391,171.242 180.900,169.492 181.913 C 166.598 183.589,165.883 184.499,165.883 186.508 C 165.883 189.598,169.011 191.083,172.331 189.570 C 174.365 188.644,174.554 188.715,175.285 190.675 C 176.453 193.806,178.236 198.427,178.648 199.393 C 178.790 199.727,179.921 202.729,181.160 206.065 C 182.399 209.401,183.548 212.472,183.713 212.889 C 183.878 213.306,184.249 214.261,184.537 215.011 C 184.825 215.762,185.177 216.649,185.319 216.983 C 185.460 217.316,186.332 219.636,187.255 222.138 C 188.178 224.640,189.058 226.960,189.211 227.293 C 189.363 227.627,189.625 228.309,189.794 228.810 C 189.962 229.310,190.389 230.470,190.743 231.387 C 191.097 232.305,191.565 233.533,191.784 234.117 C 194.806 242.195,196.124 245.608,197.026 247.691 C 197.501 248.789,197.374 249.181,196.407 249.601 C 196.048 249.757,195.550 250.018,195.299 250.182 C 194.735 250.550,183.768 256.976,182.108 257.912 C 181.440 258.288,180.349 258.903,179.682 259.280 C 179.014 259.657,176.217 261.292,173.465 262.913 C 170.713 264.535,168.256 265.952,168.006 266.064 C 167.756 266.176,167.074 266.554,166.490 266.905 C 162.506 269.297,156.793 272.631,156.677 272.631 C 156.601 272.631,155.195 273.425,153.554 274.395 C 151.912 275.366,150.330 276.249,150.038 276.357 C 149.401 276.593,149.350 277.455,149.925 278.242 C 150.900 279.576,158.716 279.065,161.256 277.502 C 162.087 276.991,162.840 276.573,162.931 276.573 C 163.021 276.573,164.780 275.571,166.840 274.347 C 168.899 273.123,171.198 271.778,171.948 271.357 C 174.907 269.702,175.856 269.155,178.930 267.331 C 180.685 266.291,183.005 264.953,184.085 264.358 C 185.166 263.764,187.992 262.141,190.366 260.752 C 192.740 259.363,196.342 257.271,198.371 256.103 C 200.399 254.936,202.824 253.536,203.759 252.994 C 204.694 252.452,206.097 251.670,206.878 251.256 C 207.658 250.843,208.378 250.373,208.477 250.213 C 208.623 249.976,205.176 247.681,202.219 246.046 C 201.837 245.835,201.167 244.677,200.552 243.165 C 199.986 241.774,199.395 240.364,199.237 240.030 C 199.080 239.697,198.558 238.400,198.077 237.149 C 196.903 234.098,192.020 221.991,191.656 221.228 C 191.212 220.300,188.707 213.626,187.843 211.069 C 187.420 209.818,186.955 208.522,186.811 208.188 C 186.554 207.597,185.669 204.570,184.858 201.516 C 182.726 193.477,183.755 186.812,187.649 183.455 C 188.685 182.561,190.366 181.350,190.570 181.350 C 190.651 181.350,192.806 180.107,195.359 178.589 C 197.911 177.071,200.273 175.706,200.607 175.557 C 200.940 175.408,201.418 175.150,201.668 174.983 C 202.465 174.453,211.998 168.916,212.113 168.916 C 212.174 168.916,214.264 167.707,216.757 166.230 C 219.251 164.753,221.891 163.244,222.624 162.878 C 223.357 162.511,224.276 161.971,224.665 161.677 L 225.372 161.142 224.058 159.175 C 220.851 154.372,218.405 149.168,217.466 145.145 C 215.945 138.626,216.633 131.616,219.312 126.354 C 220.090 124.826,220.040 124.821,217.809 126.197 M141.440 131.236 C 142.305 135.041,142.750 137.042,143.444 140.258 C 144.455 144.942,145.009 147.398,145.425 149.052 C 145.894 150.917,146.105 150.688,141.376 153.464 C 137.120 155.963,137.268 155.987,136.601 152.684 C 136.029 149.852,135.368 146.818,133.894 140.258 C 132.188 132.665,131.967 133.485,136.404 130.955 C 140.950 128.364,140.784 128.354,141.440 131.236 M127.309 134.102 C 128.130 134.923,126.827 137.956,124.271 141.168 C 124.139 141.334,122.853 143.040,121.415 144.958 C 119.977 146.876,118.715 148.514,118.612 148.597 C 118.508 148.681,117.813 149.500,117.068 150.417 C 113.035 155.383,110.880 157.074,108.289 157.309 C 102.425 157.841,98.991 150.133,103.311 146.135 C 104.038 145.462,112.265 140.409,112.633 140.409 C 112.701 140.409,114.987 139.110,117.713 137.522 C 120.439 135.933,123.010 134.436,123.427 134.194 C 124.349 133.659,126.807 133.600,127.309 134.102 M131.141 136.998 C 131.430 138.290,131.870 140.303,132.119 141.471 C 132.739 144.379,133.608 148.217,134.778 153.209 C 135.636 156.871,135.775 156.626,131.309 159.266 C 126.521 162.096,127.088 162.593,125.381 154.067 C 125.132 152.821,124.803 151.320,124.650 150.731 C 124.497 150.141,124.151 148.674,123.882 147.471 L 123.392 145.283 125.145 142.619 C 126.110 141.153,127.047 139.682,127.228 139.348 C 130.259 133.772,130.400 133.688,131.141 136.998 M205.528 139.078 C 211.732 140.882,218.268 148.665,221.927 158.605 C 222.264 159.522,222.629 160.495,222.737 160.767 C 222.930 161.254,221.916 161.934,216.679 164.830 C 215.845 165.292,212.911 166.999,210.159 168.624 C 207.407 170.250,204.644 171.867,204.018 172.219 C 202.168 173.259,201.005 173.930,199.307 174.937 C 188.417 181.396,177.999 178.163,174.500 167.241 C 171.715 158.544,175.247 153.235,189.841 144.179 C 196.792 139.866,202.196 138.109,205.528 139.078 M201.516 145.346 C 198.186 146.528,189.569 151.370,187.772 153.071 C 187.552 153.279,187.245 153.450,187.090 153.450 C 186.935 153.450,186.808 153.602,186.808 153.788 C 186.808 153.995,187.097 153.937,187.556 153.636 C 187.967 153.367,188.376 153.146,188.465 153.146 C 188.555 153.146,188.628 154.803,188.628 156.828 C 188.628 160.031,188.717 160.691,189.310 161.905 C 190.372 164.075,195.725 169.142,196.812 169.006 C 197.194 168.958,214.498 158.887,214.970 158.439 C 215.584 157.855,209.917 149.254,207.738 147.461 C 204.943 145.162,203.457 144.657,201.516 145.346 M105.999 147.849 C 102.651 151.198,107.617 156.229,111.037 152.953 C 113.435 150.655,111.814 146.778,108.455 146.778 C 107.275 146.778,106.913 146.936,105.999 147.849 M122.208 149.128 C 122.387 149.754,122.748 151.289,123.011 152.540 C 123.449 154.625,123.924 156.790,124.643 159.970 C 125.149 162.210,125.027 163.008,124.109 163.476 C 123.650 163.709,121.932 164.688,120.290 165.650 C 116.848 167.667,116.824 167.673,116.591 166.566 C 116.494 166.107,116.346 165.459,116.260 165.125 C 115.896 163.700,115.181 160.404,114.756 158.188 L 114.298 155.799 116.664 153.335 C 117.965 151.980,119.101 150.804,119.189 150.720 C 119.277 150.637,119.800 149.989,120.352 149.280 C 121.581 147.701,121.794 147.684,122.208 149.128 M91.706 159.786 C 91.507 162.425,92.231 170.003,92.834 171.589 C 93.413 173.111,93.027 173.936,92.137 173.079 C 91.308 172.281,88.181 170.369,86.503 169.634 C 81.560 167.471,81.291 167.314,79.584 165.593 C 77.473 163.464,78.373 161.054,81.667 160.016 C 82.535 159.743,84.405 159.240,85.823 158.898 C 88.181 158.330,89.785 157.774,90.978 157.110 C 91.791 156.658,91.909 157.093,91.706 159.786 M105.465 158.711 C 107.653 159.557,110.926 159.030,111.749 157.700 C 112.268 156.860,112.712 157.863,113.426 161.486 C 113.590 162.320,113.989 164.230,114.311 165.732 C 114.996 168.920,115.045 168.820,112.055 170.439 C 111.054 170.981,108.969 172.176,107.422 173.094 C 103.879 175.195,104.372 175.876,103.295 167.400 C 103.031 165.315,102.680 162.654,102.516 161.486 C 102.352 160.318,102.214 158.776,102.209 158.059 L 102.199 156.755 103.184 157.482 C 103.726 157.883,104.753 158.436,105.465 158.711 M180.819 158.934 C 179.844 160.118,179.839 164.014,180.810 166.282 C 182.857 171.065,188.300 173.404,192.666 171.379 C 196.281 169.703,196.269 169.643,192.322 169.659 C 186.239 169.684,182.276 166.068,181.680 159.948 L 181.501 158.106 180.819 158.934 M179.896 179.239 C 185.045 180.669,182.581 187.718,176.932 187.718 C 175.652 187.718,174.320 187.969,172.915 188.476 C 169.668 189.648,167.800 189.302,167.140 187.409 C 166.372 185.206,167.521 183.717,170.998 182.412 C 172.226 181.951,173.697 181.164,174.266 180.665 C 176.014 179.130,177.839 178.668,179.896 179.239 M120.999 182.157 C 119.248 183.196,117.475 184.223,117.058 184.438 C 116.641 184.654,114.487 185.889,112.270 187.184 C 110.053 188.478,108.186 189.538,108.121 189.538 C 107.345 189.538,99.572 194.699,98.122 196.176 C 96.257 198.076,96.052 198.702,97.546 197.933 C 108.453 192.315,120.761 193.693,126.852 201.213 C 127.527 202.047,127.976 202.456,127.849 202.123 C 127.722 201.789,127.418 200.288,127.174 198.787 C 126.930 197.286,126.546 194.966,126.321 193.632 C 126.097 192.297,125.744 190.114,125.536 188.779 C 125.329 187.445,124.939 184.984,124.670 183.311 L 124.180 180.269 120.999 182.157 M177.534 180.788 C 175.487 181.334,175.394 184.458,177.400 185.289 C 179.070 185.981,180.743 184.876,180.743 183.082 C 180.743 181.276,179.374 180.298,177.534 180.788 " stroke="none" fill="rgba(0,0,0,0)0,0,0)" fill-rule="evenodd"></path><path id="path2" d="M291.736 45.210 C 291.382 45.458,291.436 45.485,291.978 45.332 C 292.385 45.217,292.890 45.304,293.191 45.540 C 293.656 45.904,293.666 45.891,293.291 45.413 C 292.817 44.808,292.390 44.753,291.736 45.210 M297.346 48.825 C 297.998 49.492,298.599 50.038,298.683 50.038 C 298.766 50.038,298.301 49.492,297.650 48.825 C 296.998 48.158,296.397 47.612,296.314 47.612 C 296.230 47.612,296.695 48.158,297.346 48.825 M321.856 59.439 C 321.856 60.523,321.911 60.967,321.978 60.425 C 322.046 59.882,322.046 58.995,321.978 58.453 C 321.911 57.911,321.856 58.355,321.856 59.439 M311.959 63.592 C 312.157 63.733,312.375 64.528,312.445 65.358 L 312.570 66.869 312.540 65.225 C 312.518 64.039,312.383 63.546,312.055 63.458 C 311.739 63.373,311.709 63.413,311.959 63.592 M321.194 66.126 C 321.171 66.551,321.050 67.030,320.925 67.189 C 320.800 67.349,320.880 67.326,321.103 67.137 C 321.326 66.949,321.447 66.470,321.371 66.074 C 321.236 65.360,321.235 65.360,321.194 66.126 M312.125 68.840 C 312.125 69.424,312.187 69.663,312.264 69.371 C 312.340 69.079,312.340 68.601,312.264 68.309 C 312.187 68.017,312.125 68.256,312.125 68.840 M310.932 70.356 C 310.932 71.274,310.989 71.649,311.059 71.190 C 311.128 70.732,311.128 69.981,311.059 69.522 C 310.989 69.064,310.932 69.439,310.932 70.356 M168.916 109.572 C 168.916 109.624,169.359 110.067,169.901 110.557 L 170.887 111.448 169.996 110.462 C 169.166 109.544,168.916 109.337,168.916 109.572 M153.795 124.640 C 153.795 124.890,153.913 125.368,154.056 125.701 C 154.220 126.084,154.317 126.140,154.317 125.853 C 154.317 125.603,154.199 125.125,154.056 124.792 C 153.892 124.409,153.795 124.353,153.795 124.640 M216.918 136.012 C 216.920 136.846,216.979 137.151,217.049 136.690 C 217.118 136.229,217.116 135.547,217.044 135.174 C 216.972 134.801,216.915 135.178,216.918 136.012 M142.575 138.287 C 142.575 138.537,142.692 139.014,142.835 139.348 C 143.000 139.730,143.096 139.786,143.096 139.500 C 143.096 139.249,142.979 138.772,142.835 138.438 C 142.671 138.056,142.575 138.000,142.575 138.287 M133.780 138.893 C 133.780 139.143,133.898 139.621,134.041 139.955 C 134.205 140.337,134.302 140.393,134.302 140.106 C 134.302 139.856,134.184 139.378,134.041 139.045 C 133.877 138.662,133.780 138.606,133.780 138.893 M216.918 140.258 C 216.920 141.092,216.979 141.397,217.049 140.936 C 217.118 140.475,217.116 139.793,217.044 139.420 C 216.972 139.047,216.915 139.424,216.918 140.258 M209.249 141.100 C 209.249 141.158,209.693 141.530,210.235 141.927 C 210.845 142.373,211.057 142.446,210.791 142.119 C 210.387 141.621,209.249 140.870,209.249 141.100 M155.017 142.077 C 155.013 142.411,155.126 142.957,155.269 143.290 C 155.601 144.063,155.601 143.266,155.269 142.229 C 155.074 141.619,155.025 141.590,155.017 142.077 M211.676 142.930 C 211.676 142.983,212.119 143.426,212.661 143.916 L 213.647 144.807 212.756 143.821 C 211.926 142.902,211.676 142.696,211.676 142.930 M107.459 146.403 C 107.266 146.526,107.765 146.626,108.567 146.626 C 109.369 146.626,109.868 146.526,109.675 146.403 C 109.483 146.281,108.984 146.181,108.567 146.181 C 108.150 146.181,107.651 146.281,107.459 146.403 M208.630 148.067 C 209.374 148.859,210.022 149.507,210.071 149.507 C 210.298 149.507,210.058 149.235,208.719 147.978 L 207.278 146.626 208.630 148.067 M104.511 149.367 C 104.407 149.638,104.335 150.156,104.352 150.518 C 104.372 150.933,104.475 150.785,104.633 150.116 C 104.897 148.989,104.825 148.547,104.511 149.367 M101.679 150.569 C 101.681 151.403,101.740 151.708,101.810 151.247 C 101.879 150.786,101.878 150.103,101.806 149.730 C 101.734 149.357,101.677 149.735,101.679 150.569 M119.010 151.099 L 118.120 152.085 119.105 151.194 C 120.024 150.364,120.230 150.114,119.996 150.114 C 119.944 150.114,119.500 150.557,119.010 151.099 M112.059 151.920 C 111.955 152.246,111.458 152.860,110.954 153.285 C 110.449 153.709,110.170 154.056,110.332 154.056 C 110.694 154.056,112.509 152.025,112.509 151.619 C 112.509 151.126,112.258 151.294,112.059 151.920 M177.407 153.601 C 176.670 154.352,176.136 154.966,176.219 154.966 C 176.303 154.966,176.974 154.352,177.710 153.601 C 178.447 152.851,178.981 152.237,178.898 152.237 C 178.815 152.237,178.144 152.851,177.407 153.601 M116.452 153.904 C 115.715 154.655,115.181 155.269,115.264 155.269 C 115.348 155.269,116.018 154.655,116.755 153.904 C 117.492 153.154,118.026 152.540,117.943 152.540 C 117.859 152.540,117.188 153.154,116.452 153.904 M113.116 154.208 C 112.379 154.958,111.845 155.572,111.928 155.572 C 112.012 155.572,112.683 154.958,113.419 154.208 C 114.156 153.457,114.690 152.843,114.607 152.843 C 114.524 152.843,113.853 153.457,113.116 154.208 M93.177 154.208 C 93.181 154.875,93.243 155.112,93.315 154.735 C 93.388 154.358,93.385 153.812,93.309 153.522 C 93.233 153.232,93.174 153.541,93.177 154.208 M98.983 159.212 C 98.983 161.630,99.030 162.619,99.088 161.410 C 99.146 160.201,99.146 158.222,99.088 157.013 C 99.030 155.804,98.983 156.793,98.983 159.212 M181.684 157.512 C 180.564 158.642,179.830 159.623,179.925 159.862 C 180.046 160.167,180.095 160.148,180.113 159.789 C 180.139 159.257,180.996 158.387,182.000 157.874 C 182.355 157.692,182.636 157.407,182.623 157.240 C 182.610 157.074,182.888 156.630,183.240 156.255 C 184.652 154.752,183.485 155.695,181.684 157.512 M92.905 159.060 C 92.904 160.561,92.956 161.213,93.019 160.510 C 93.083 159.806,93.084 158.577,93.021 157.780 C 92.958 156.983,92.906 157.559,92.905 159.060 M188.098 158.150 C 188.101 158.817,188.163 159.055,188.236 158.677 C 188.308 158.300,188.305 157.754,188.230 157.464 C 188.154 157.174,188.094 157.483,188.098 158.150 M231.084 158.757 C 231.650 159.340,232.181 159.818,232.265 159.818 C 232.348 159.818,231.953 159.340,231.387 158.757 C 230.822 158.173,230.290 157.695,230.207 157.695 C 230.124 157.695,230.518 158.173,231.084 158.757 M181.723 159.212 C 181.723 159.795,181.786 160.034,181.862 159.742 C 181.938 159.450,181.938 158.973,181.862 158.681 C 181.786 158.389,181.723 158.628,181.723 159.212 M84.003 159.515 C 83.378 159.715,83.352 159.762,83.851 159.783 C 84.185 159.797,84.663 159.676,84.913 159.515 C 85.444 159.171,85.075 159.171,84.003 159.515 M107.278 159.426 C 107.654 159.498,108.268 159.498,108.643 159.426 C 109.018 159.353,108.711 159.294,107.961 159.294 C 107.210 159.294,106.903 159.353,107.278 159.426 M124.379 160.728 C 124.379 160.978,124.497 161.456,124.640 161.789 C 124.804 162.172,124.901 162.228,124.901 161.941 C 124.901 161.691,124.783 161.213,124.640 160.879 C 124.476 160.497,124.379 160.441,124.379 160.728 M173.859 161.941 C 173.859 162.858,173.916 163.234,173.985 162.775 C 174.055 162.316,174.055 161.566,173.985 161.107 C 173.916 160.648,173.859 161.024,173.859 161.941 M179.624 162.092 C 179.626 163.093,179.682 163.466,179.750 162.921 C 179.817 162.376,179.816 161.557,179.747 161.101 C 179.677 160.646,179.622 161.092,179.624 162.092 M91.352 161.638 C 91.352 162.221,91.414 162.460,91.490 162.168 C 91.567 161.876,91.567 161.399,91.490 161.107 C 91.414 160.815,91.352 161.054,91.352 161.638 M115.585 161.334 C 115.585 161.585,115.702 162.062,115.845 162.396 C 116.010 162.778,116.106 162.834,116.106 162.547 C 116.106 162.297,115.989 161.820,115.845 161.486 C 115.681 161.104,115.585 161.048,115.585 161.334 M235.095 161.897 C 235.141 162.064,234.905 162.423,234.572 162.694 C 233.975 163.179,233.976 163.182,234.631 162.866 C 235.465 162.463,235.737 162.041,235.327 161.788 C 235.154 161.680,235.049 161.730,235.095 161.897 M78.544 163.288 C 78.544 163.695,78.656 164.097,78.793 164.181 C 78.929 164.266,78.982 163.933,78.910 163.441 C 78.751 162.357,78.544 162.271,78.544 163.288 M93.183 164.064 C 93.183 164.814,93.243 165.121,93.315 164.746 C 93.387 164.371,93.387 163.757,93.315 163.381 C 93.243 163.006,93.183 163.313,93.183 164.064 M191.205 165.277 C 191.857 165.944,192.458 166.490,192.542 166.490 C 192.625 166.490,192.160 165.944,191.509 165.277 C 190.857 164.610,190.256 164.064,190.173 164.064 C 190.089 164.064,190.554 164.610,191.205 165.277 M181.653 168.707 C 181.653 168.760,182.096 169.203,182.638 169.693 L 183.624 170.584 182.733 169.598 C 181.903 168.679,181.653 168.473,181.653 168.707 M91.939 169.371 C 91.934 169.704,92.048 170.250,92.191 170.584 C 92.523 171.357,92.523 170.559,92.191 169.522 C 91.996 168.913,91.947 168.883,91.939 169.371 M93.778 170.129 C 93.778 170.713,93.840 170.951,93.916 170.660 C 93.993 170.368,93.993 169.890,93.916 169.598 C 93.840 169.306,93.778 169.545,93.778 170.129 M104.357 173.692 C 104.321 174.386,105.025 174.650,105.381 174.075 C 105.485 173.907,105.371 173.850,105.122 173.945 C 104.852 174.049,104.622 173.899,104.535 173.563 C 104.420 173.119,104.385 173.145,104.357 173.692 M96.233 184.230 C 96.234 185.398,96.289 185.839,96.355 185.209 C 96.420 184.580,96.419 183.625,96.352 183.086 C 96.285 182.548,96.232 183.063,96.233 184.230 M187.249 184.155 L 186.050 185.444 187.339 184.245 C 188.538 183.130,188.767 182.866,188.538 182.866 C 188.488 182.866,187.908 183.446,187.249 184.155 M174.905 187.629 C 175.281 187.701,175.895 187.701,176.270 187.629 C 176.645 187.556,176.338 187.497,175.588 187.497 C 174.837 187.497,174.530 187.556,174.905 187.629 M189.620 193.480 C 189.620 194.230,189.679 194.538,189.752 194.162 C 189.824 193.787,189.824 193.173,189.752 192.798 C 189.679 192.422,189.620 192.729,189.620 193.480 M92.324 193.556 L 91.433 194.541 92.418 193.651 C 93.337 192.820,93.543 192.570,93.309 192.570 C 93.257 192.570,92.813 193.014,92.324 193.556 M98.697 195.072 L 97.498 196.361 98.787 195.162 C 99.496 194.503,100.076 193.923,100.076 193.873 C 100.076 193.644,99.812 193.873,98.697 195.072 M110.777 194.917 C 111.742 194.978,113.243 194.977,114.113 194.916 C 114.982 194.855,114.193 194.806,112.358 194.806 C 110.523 194.807,109.812 194.857,110.777 194.917 M95.891 198.089 C 95.373 198.607,95.441 198.942,96.058 198.915 C 96.395 198.899,96.446 198.833,96.197 198.734 C 95.896 198.613,95.887 198.478,96.158 198.151 C 96.589 197.631,96.394 197.586,95.891 198.089 M115.390 200.758 C 115.724 200.901,116.202 201.019,116.452 201.019 C 116.739 201.019,116.683 200.922,116.300 200.758 C 115.967 200.615,115.489 200.498,115.239 200.498 C 114.952 200.498,115.008 200.594,115.390 200.758 M128.000 202.520 C 127.986 202.755,127.821 202.824,127.597 202.689 C 127.368 202.552,127.394 202.678,127.661 203.008 C 128.115 203.566,128.467 203.221,128.177 202.502 C 128.059 202.210,128.018 202.214,128.000 202.520 M84.383 205.459 C 84.386 206.126,84.448 206.363,84.521 205.986 C 84.593 205.609,84.591 205.063,84.515 204.773 C 84.439 204.483,84.379 204.792,84.383 205.459 M133.780 246.854 C 133.780 247.104,133.898 247.582,134.041 247.915 C 134.205 248.297,134.302 248.353,134.302 248.067 C 134.302 247.817,134.184 247.339,134.041 247.005 C 133.877 246.623,133.780 246.567,133.780 246.854 M170.957 282.666 C 170.661 282.838,170.116 282.893,169.744 282.789 C 169.213 282.640,169.165 282.667,169.522 282.917 C 170.141 283.350,170.515 283.324,171.208 282.800 C 171.888 282.286,171.743 282.209,170.957 282.666 " stroke="none" fill="#8c8c8c" fill-rule="evenodd"></path><path id="path3" d="M183.852 193.328 C 183.855 193.995,183.918 194.233,183.990 193.855 C 184.063 193.478,184.060 192.932,183.984 192.642 C 183.908 192.352,183.849 192.661,183.852 193.328 " stroke="none" fill="#949494" fill-rule="evenodd"></path><path id="path4" d="M298.614 23.197 C 298.314 23.417,298.193 23.673,298.345 23.767 C 298.497 23.861,298.867 23.759,299.167 23.539 C 299.467 23.320,299.588 23.063,299.436 22.969 C 299.284 22.875,298.914 22.978,298.614 23.197 M297.042 24.073 C 296.722 24.307,296.622 24.549,296.801 24.660 C 296.968 24.763,297.351 24.668,297.651 24.449 C 297.971 24.215,298.071 23.972,297.892 23.862 C 297.724 23.758,297.342 23.853,297.042 24.073 M295.539 24.973 C 295.149 25.258,295.086 25.447,295.331 25.598 C 295.527 25.719,295.763 25.607,295.864 25.343 C 295.964 25.083,296.189 24.959,296.364 25.068 C 296.550 25.182,296.592 25.119,296.466 24.914 C 296.197 24.479,296.215 24.478,295.539 24.973 M294.466 25.759 C 294.466 25.936,294.363 26.064,294.238 26.044 C 293.658 25.953,293.354 26.116,293.354 26.519 C 293.354 26.833,293.489 26.879,293.834 26.681 C 294.989 26.015,295.139 25.854,294.801 25.645 C 294.617 25.531,294.466 25.583,294.466 25.759 M291.799 27.108 C 291.420 27.311,291.217 27.594,291.348 27.737 C 291.478 27.880,291.341 27.909,291.042 27.802 C 290.703 27.680,290.436 27.775,290.328 28.055 C 290.234 28.301,290.013 28.414,289.838 28.306 C 289.653 28.192,289.610 28.255,289.735 28.457 C 289.935 28.782,291.191 28.294,292.603 27.343 C 293.255 26.903,292.560 26.701,291.799 27.108 M287.996 28.102 C 287.656 28.442,287.771 29.358,288.173 29.502 C 288.695 29.689,289.671 29.148,289.452 28.794 C 289.342 28.615,289.031 28.634,288.641 28.843 C 288.079 29.144,288.027 29.110,288.176 28.541 C 288.354 27.860,288.320 27.778,287.996 28.102 M318.900 42.760 C 319.012 43.177,319.229 43.723,319.384 43.973 C 319.579 44.289,319.603 44.196,319.462 43.669 C 319.351 43.252,319.133 42.707,318.978 42.456 C 318.783 42.140,318.759 42.233,318.900 42.760 M320.901 49.583 C 320.896 49.917,321.009 50.462,321.152 50.796 C 321.484 51.569,321.484 50.772,321.152 49.735 C 320.957 49.125,320.908 49.095,320.901 49.583 M321.835 55.648 C 321.839 56.315,321.901 56.553,321.973 56.175 C 322.046 55.798,322.043 55.252,321.967 54.962 C 321.891 54.672,321.832 54.981,321.835 55.648 M322.164 59.439 C 322.164 60.690,322.218 61.202,322.283 60.576 C 322.349 59.951,322.349 58.927,322.283 58.302 C 322.218 57.676,322.164 58.188,322.164 59.439 M321.842 63.381 C 321.842 64.132,321.901 64.439,321.973 64.064 C 322.045 63.688,322.045 63.074,321.973 62.699 C 321.901 62.324,321.842 62.631,321.842 63.381 M311.991 65.125 C 312.140 67.430,312.285 67.628,312.323 65.580 C 312.342 64.538,312.255 63.685,312.128 63.685 C 312.002 63.685,311.940 64.333,311.991 65.125 M310.071 65.668 C 309.494 66.130,309.496 66.135,310.139 65.824 C 311.039 65.390,311.086 65.406,311.230 66.187 C 311.345 66.812,311.353 66.808,311.326 66.134 C 311.289 65.217,310.842 65.051,310.071 65.668 M321.526 66.111 C 321.526 66.694,321.588 66.933,321.665 66.641 C 321.741 66.350,321.741 65.872,321.665 65.580 C 321.588 65.288,321.526 65.527,321.526 66.111 M311.787 71.021 C 311.767 71.803,311.859 72.510,311.991 72.592 C 312.123 72.673,312.184 72.238,312.125 71.624 C 311.948 69.749,311.823 69.527,311.787 71.021 M179.606 115.763 C 180.231 115.828,181.255 115.828,181.880 115.763 C 182.506 115.698,181.994 115.644,180.743 115.644 C 179.492 115.644,178.980 115.698,179.606 115.763 M98.888 130.210 C 98.958 130.271,99.560 130.404,100.227 130.506 C 101.073 130.635,101.257 130.607,100.834 130.416 C 100.252 130.152,98.627 129.980,98.888 130.210 M154.971 131.185 C 154.973 131.505,155.114 131.971,155.283 132.221 C 155.508 132.554,155.536 132.431,155.387 131.766 C 155.138 130.651,154.964 130.409,154.971 131.185 M104.043 131.116 C 104.113 131.176,104.647 131.312,105.231 131.419 C 105.978 131.556,106.158 131.526,105.838 131.316 C 105.427 131.046,103.743 130.859,104.043 131.116 M108.969 132.118 C 109.079 132.227,109.026 132.488,108.853 132.697 C 108.632 132.964,108.646 133.144,108.902 133.303 C 109.125 133.440,109.188 133.400,109.064 133.199 C 108.952 133.018,108.999 132.784,109.169 132.679 C 109.589 132.420,109.559 131.918,109.123 131.918 C 108.928 131.918,108.859 132.008,108.969 132.118 M107.161 133.888 C 107.065 134.137,106.844 134.252,106.669 134.144 C 106.483 134.029,106.441 134.093,106.567 134.298 C 106.724 134.551,106.951 134.560,107.381 134.330 C 107.709 134.154,107.897 133.881,107.800 133.722 C 107.548 133.316,107.362 133.364,107.161 133.888 M105.382 134.763 C 104.954 135.075,104.922 135.214,105.232 135.406 C 105.512 135.579,105.555 135.533,105.380 135.249 C 105.201 134.959,105.269 134.900,105.627 135.038 C 105.899 135.142,106.196 135.106,106.288 134.958 C 106.580 134.486,105.947 134.349,105.382 134.763 M155.918 135.254 C 155.918 135.504,156.036 135.982,156.179 136.315 C 156.343 136.698,156.440 136.754,156.440 136.467 C 156.440 136.217,156.322 135.739,156.179 135.406 C 156.015 135.023,155.918 134.967,155.918 135.254 M104.476 135.562 C 104.655 135.852,104.587 135.911,104.229 135.774 C 103.957 135.669,103.660 135.705,103.568 135.853 C 103.276 136.325,103.909 136.462,104.474 136.049 C 104.902 135.736,104.934 135.597,104.624 135.405 C 104.344 135.232,104.301 135.278,104.476 135.562 M142.272 135.861 C 142.272 136.111,142.389 136.588,142.532 136.922 C 142.697 137.304,142.793 137.360,142.793 137.074 C 142.793 136.823,142.676 136.346,142.532 136.012 C 142.368 135.630,142.272 135.574,142.272 135.861 M222.692 138.135 C 222.694 139.303,222.749 139.743,222.814 139.114 C 222.880 138.485,222.879 137.529,222.812 136.991 C 222.745 136.453,222.691 136.967,222.692 138.135 M101.859 136.793 C 101.661 136.915,101.711 137.054,101.992 137.162 C 102.240 137.257,102.670 137.169,102.948 136.966 C 103.515 136.551,102.509 136.391,101.859 136.793 M216.614 138.135 C 216.617 138.969,216.676 139.274,216.745 138.813 C 216.815 138.352,216.813 137.670,216.741 137.297 C 216.669 136.924,216.612 137.301,216.614 138.135 M202.502 138.804 C 202.877 138.876,203.491 138.876,203.867 138.804 C 204.242 138.732,203.935 138.672,203.184 138.672 C 202.434 138.672,202.127 138.732,202.502 138.804 M134.046 141.193 C 134.048 141.513,134.189 141.979,134.358 142.229 C 134.583 142.561,134.611 142.438,134.462 141.774 C 134.213 140.659,134.039 140.417,134.046 141.193 M223.388 143.897 C 223.496 144.397,223.704 145.011,223.851 145.262 C 224.022 145.553,224.047 145.389,223.921 144.807 C 223.813 144.306,223.604 143.692,223.458 143.442 C 223.287 143.151,223.262 143.315,223.388 143.897 M205.914 145.963 C 205.914 146.038,206.415 146.481,207.027 146.949 C 207.639 147.416,208.044 147.643,207.927 147.454 C 207.688 147.065,205.914 145.752,205.914 145.963 M169.522 146.805 C 169.019 147.217,168.968 147.320,169.371 147.112 C 170.360 146.600,170.908 146.180,170.584 146.183 C 170.417 146.184,169.939 146.464,169.522 146.805 M224.131 146.323 C 224.131 146.490,224.326 146.967,224.564 147.384 C 224.802 147.801,224.997 148.006,224.997 147.839 C 224.997 147.672,224.802 147.195,224.564 146.778 C 224.326 146.361,224.131 146.156,224.131 146.323 M208.340 148.086 C 208.340 148.138,208.783 148.582,209.325 149.071 L 210.311 149.962 209.420 148.976 C 208.590 148.058,208.340 147.852,208.340 148.086 M112.099 149.810 C 112.339 151.118,112.511 151.365,112.505 150.392 C 112.502 149.989,112.366 149.454,112.202 149.204 C 111.992 148.884,111.962 149.064,112.099 149.810 M101.376 150.569 C 101.378 151.403,101.437 151.708,101.506 151.247 C 101.576 150.786,101.574 150.103,101.502 149.730 C 101.430 149.357,101.373 149.735,101.376 150.569 M124.379 149.810 C 124.379 150.061,124.497 150.538,124.640 150.872 C 124.804 151.254,124.901 151.310,124.901 151.024 C 124.901 150.773,124.783 150.296,124.640 149.962 C 124.476 149.580,124.379 149.524,124.379 149.810 M133.780 149.810 C 133.780 150.061,133.898 150.538,134.041 150.872 C 134.205 151.254,134.302 151.310,134.302 151.024 C 134.302 150.773,134.184 150.296,134.041 149.962 C 133.877 149.580,133.780 149.524,133.780 149.810 M122.256 150.114 C 122.256 150.364,122.374 150.842,122.517 151.175 C 122.681 151.557,122.778 151.613,122.778 151.327 C 122.778 151.077,122.660 150.599,122.517 150.265 C 122.353 149.883,122.256 149.827,122.256 150.114 M99.540 151.933 C 99.540 152.517,99.602 152.756,99.678 152.464 C 99.755 152.172,99.755 151.694,99.678 151.403 C 99.602 151.111,99.540 151.350,99.540 151.933 M113.409 154.284 L 111.751 156.027 113.495 154.370 C 115.115 152.830,115.378 152.540,115.153 152.540 C 115.105 152.540,114.321 153.324,113.409 154.284 M177.236 153.525 L 176.346 154.511 177.331 153.620 C 177.873 153.130,178.317 152.687,178.317 152.635 C 178.317 152.400,178.067 152.607,177.236 153.525 M92.880 154.056 C 92.880 154.807,92.939 155.114,93.012 154.738 C 93.084 154.363,93.084 153.749,93.012 153.374 C 92.939 152.998,92.880 153.306,92.880 154.056 M115.983 154.132 L 114.784 155.421 116.073 154.222 C 117.271 153.107,117.501 152.843,117.272 152.843 C 117.222 152.843,116.642 153.423,115.983 154.132 M187.265 153.143 C 187.155 153.321,187.291 153.362,187.600 153.243 C 187.951 153.108,188.050 153.158,187.904 153.395 C 187.759 153.628,187.853 153.682,188.183 153.556 C 188.580 153.403,188.598 153.314,188.274 153.109 C 187.741 152.771,187.490 152.779,187.265 153.143 M136.794 153.657 C 136.749 154.341,137.363 155.572,137.748 155.568 C 138.014 155.565,138.030 155.493,137.801 155.340 C 137.618 155.218,137.322 154.708,137.143 154.208 C 136.964 153.707,136.807 153.460,136.794 153.657 M185.343 154.695 C 184.731 155.157,183.889 155.825,183.472 156.179 L 182.714 156.822 183.700 156.341 C 184.242 156.077,184.685 155.719,184.685 155.547 C 184.685 155.374,184.812 155.312,184.968 155.408 C 185.123 155.504,185.430 155.341,185.650 155.047 C 185.870 154.752,186.255 154.467,186.505 154.414 C 187.183 154.268,187.509 153.854,186.946 153.854 C 186.677 153.854,185.956 154.232,185.343 154.695 M188.432 157.544 C 188.431 159.045,188.482 159.697,188.546 158.993 C 188.610 158.289,188.610 157.061,188.548 156.264 C 188.485 155.467,188.433 156.042,188.432 157.544 M91.117 157.109 C 90.967 157.352,91.009 157.409,91.234 157.269 C 91.473 157.122,91.600 157.421,91.633 158.208 L 91.682 159.363 91.807 158.339 C 91.942 157.235,91.512 156.469,91.117 157.109 M126.208 157.998 C 126.223 158.786,126.701 160.081,126.711 159.363 C 126.716 159.030,126.603 158.484,126.459 158.150 C 126.300 157.779,126.202 157.720,126.208 157.998 M124.218 159.060 C 124.468 160.175,124.641 160.417,124.635 159.641 C 124.633 159.321,124.492 158.855,124.323 158.605 C 124.098 158.273,124.070 158.395,124.218 159.060 M114.940 159.692 C 114.943 160.011,115.083 160.478,115.253 160.728 C 115.477 161.060,115.506 160.937,115.357 160.273 C 115.108 159.158,114.934 158.916,114.940 159.692 M179.933 162.092 C 179.934 163.260,179.989 163.701,180.055 163.071 C 180.120 162.442,180.119 161.487,180.052 160.949 C 179.985 160.410,179.931 160.925,179.933 162.092 M102.572 161.941 C 102.572 162.525,102.635 162.763,102.711 162.472 C 102.787 162.180,102.787 161.702,102.711 161.410 C 102.635 161.118,102.572 161.357,102.572 161.941 M162.984 161.806 C 162.416 162.262,162.418 162.267,163.058 161.958 C 163.984 161.510,164.009 161.521,164.515 162.623 C 164.836 163.322,164.913 163.388,164.782 162.851 C 164.416 161.355,163.912 161.063,162.984 161.806 M92.884 163.912 C 92.887 164.746,92.945 165.051,93.015 164.590 C 93.085 164.129,93.083 163.447,93.011 163.074 C 92.939 162.701,92.882 163.078,92.884 163.912 M91.655 165.277 C 91.655 165.861,91.717 166.099,91.794 165.807 C 91.870 165.516,91.870 165.038,91.794 164.746 C 91.717 164.454,91.655 164.693,91.655 165.277 M190.751 164.462 C 190.751 164.514,191.194 164.958,191.736 165.447 L 192.722 166.338 191.831 165.353 C 191.001 164.434,190.751 164.228,190.751 164.462 M93.171 167.096 C 93.171 167.680,93.234 167.919,93.310 167.627 C 93.386 167.335,93.386 166.857,93.310 166.566 C 93.234 166.274,93.171 166.513,93.171 167.096 M99.546 167.248 C 99.549 167.915,99.611 168.152,99.684 167.775 C 99.756 167.398,99.754 166.852,99.678 166.562 C 99.602 166.272,99.542 166.581,99.546 167.248 M193.547 166.955 C 194.000 167.432,194.426 167.761,194.492 167.687 C 194.559 167.612,194.187 167.222,193.667 166.819 L 192.722 166.087 193.547 166.955 M91.964 167.551 C 91.968 168.218,92.030 168.456,92.102 168.078 C 92.175 167.701,92.172 167.155,92.096 166.865 C 92.020 166.575,91.961 166.884,91.964 167.551 M103.482 169.219 C 103.482 169.803,103.544 170.042,103.621 169.750 C 103.697 169.458,103.697 168.980,103.621 168.688 C 103.544 168.397,103.482 168.635,103.482 169.219 M195.906 169.446 C 195.906 169.753,196.048 169.771,196.513 169.522 C 196.846 169.344,197.119 169.164,197.119 169.122 C 197.119 169.080,196.846 169.046,196.513 169.046 C 196.179 169.046,195.906 169.226,195.906 169.446 M92.839 172.470 C 92.809 172.963,92.656 173.098,92.267 172.977 C 91.795 172.831,91.797 172.851,92.290 173.166 C 92.980 173.608,93.189 173.417,93.015 172.505 C 92.883 171.813,92.879 171.813,92.839 172.470 M187.350 172.306 C 187.636 172.420,188.347 172.512,188.931 172.512 C 189.515 172.512,190.226 172.420,190.512 172.306 C 190.797 172.193,190.086 172.100,188.931 172.100 C 187.776 172.100,187.065 172.193,187.350 172.306 M101.331 175.588 C 101.331 175.838,101.449 176.315,101.592 176.649 C 101.756 177.031,101.853 177.087,101.853 176.801 C 101.853 176.550,101.735 176.073,101.592 175.739 C 101.428 175.357,101.331 175.301,101.331 175.588 M188.252 178.531 C 188.629 178.604,189.175 178.601,189.465 178.525 C 189.755 178.449,189.447 178.390,188.779 178.393 C 188.112 178.397,187.875 178.459,188.252 178.531 M177.786 179.132 C 178.078 179.209,178.556 179.209,178.848 179.132 C 179.139 179.056,178.901 178.994,178.317 178.994 C 177.733 178.994,177.494 179.056,177.786 179.132 M170.951 179.834 C 171.039 180.169,170.924 180.681,170.695 180.972 C 170.320 181.451,170.331 181.462,170.811 181.085 C 171.377 180.641,171.523 179.678,171.067 179.396 C 170.916 179.302,170.864 179.500,170.951 179.834 M95.901 180.440 C 95.901 181.024,95.963 181.262,96.039 180.970 C 96.115 180.679,96.115 180.201,96.039 179.909 C 95.963 179.617,95.901 179.856,95.901 180.440 M182.548 182.646 C 182.695 183.896,182.702 183.902,182.805 182.903 C 182.863 182.340,182.794 181.763,182.653 181.622 C 182.512 181.481,182.464 181.942,182.548 182.646 M95.941 185.444 C 95.942 187.111,95.993 187.755,96.054 186.874 C 96.116 185.993,96.115 184.628,96.053 183.841 C 95.990 183.055,95.940 183.776,95.941 185.444 M169.447 189.145 C 169.822 189.217,170.436 189.217,170.811 189.145 C 171.187 189.073,170.879 189.014,170.129 189.014 C 169.378 189.014,169.071 189.073,169.447 189.145 M169.147 190.359 C 169.524 190.431,170.070 190.428,170.360 190.352 C 170.650 190.277,170.341 190.217,169.674 190.221 C 169.007 190.224,168.770 190.286,169.147 190.359 M183.846 191.357 C 183.846 191.941,183.908 192.180,183.985 191.888 C 184.061 191.596,184.061 191.118,183.985 190.826 C 183.908 190.534,183.846 190.773,183.846 191.357 M92.025 193.556 L 90.826 194.845 92.115 193.646 C 93.314 192.531,93.543 192.267,93.314 192.267 C 93.264 192.267,92.684 192.847,92.025 193.556 M98.912 195.197 L 97.195 196.915 99.014 195.291 C 100.015 194.398,100.891 193.625,100.960 193.574 C 101.030 193.522,100.984 193.480,100.858 193.480 C 100.732 193.480,99.856 194.253,98.912 195.197 M111.676 194.607 C 112.134 194.676,112.885 194.676,113.343 194.607 C 113.802 194.537,113.427 194.481,112.509 194.481 C 111.592 194.481,111.217 194.537,111.676 194.607 M183.862 195.754 C 183.865 196.588,183.923 196.893,183.993 196.433 C 184.063 195.972,184.061 195.289,183.989 194.916 C 183.917 194.543,183.860 194.920,183.862 195.754 M123.427 197.820 C 123.427 197.873,123.870 198.316,124.412 198.806 L 125.398 199.697 124.507 198.711 C 123.677 197.792,123.427 197.586,123.427 197.820 M178.671 200.167 C 178.848 200.676,179.050 201.036,179.119 200.967 C 179.269 200.817,178.697 199.242,178.492 199.242 C 178.413 199.242,178.494 199.658,178.671 200.167 M111.214 200.674 C 111.752 200.741,112.707 200.742,113.337 200.676 C 113.966 200.611,113.525 200.556,112.358 200.554 C 111.190 200.553,110.676 200.607,111.214 200.674 M102.957 202.437 C 102.195 202.804,102.170 202.845,102.805 202.692 C 103.222 202.592,103.693 202.388,103.851 202.240 C 104.244 201.873,104.029 201.920,102.957 202.437 M120.091 202.976 C 120.091 203.028,120.534 203.472,121.077 203.961 L 122.062 204.852 121.171 203.867 C 120.341 202.948,120.091 202.742,120.091 202.976 M191.849 203.942 C 191.957 204.443,192.165 205.057,192.312 205.307 C 192.482 205.598,192.508 205.434,192.382 204.852 C 192.274 204.352,192.065 203.738,191.919 203.487 C 191.748 203.196,191.723 203.360,191.849 203.942 M84.306 206.739 C 84.306 206.915,84.587 207.382,84.931 207.775 L 85.555 208.491 85.023 207.582 C 84.321 206.384,84.306 206.366,84.306 206.739 M87.415 209.155 C 87.707 209.231,88.184 209.231,88.476 209.155 C 88.768 209.079,88.529 209.017,87.945 209.017 C 87.362 209.017,87.123 209.079,87.415 209.155 M128.284 223.073 C 128.286 223.393,128.427 223.859,128.596 224.109 C 128.821 224.441,128.849 224.319,128.700 223.654 C 128.451 222.539,128.277 222.297,128.284 223.073 M129.240 226.839 C 129.256 227.626,129.733 228.921,129.744 228.203 C 129.749 227.870,129.635 227.324,129.492 226.990 C 129.332 226.619,129.235 226.560,129.240 226.839 M132.226 240.814 C 132.229 241.217,132.365 241.751,132.529 242.002 C 132.739 242.322,132.769 242.142,132.632 241.395 C 132.392 240.087,132.220 239.840,132.226 240.814 M133.136 245.211 C 133.138 245.531,133.279 245.997,133.448 246.247 C 133.673 246.579,133.701 246.457,133.553 245.792 C 133.303 244.677,133.130 244.435,133.136 245.211 M196.841 247.982 C 197.097 248.656,197.057 248.878,196.624 249.195 C 196.332 249.408,196.239 249.583,196.417 249.583 C 197.091 249.583,197.446 248.774,197.133 247.952 C 196.967 247.515,196.763 247.157,196.679 247.157 C 196.596 247.157,196.669 247.528,196.841 247.982 M134.046 249.305 C 134.048 249.708,134.184 250.243,134.348 250.493 C 134.558 250.813,134.589 250.633,134.452 249.886 C 134.212 248.578,134.039 248.332,134.046 249.305 M134.955 253.399 C 134.958 253.719,135.099 254.185,135.268 254.435 C 135.493 254.767,135.521 254.645,135.372 253.980 C 135.123 252.865,134.949 252.623,134.955 253.399 M214.026 258.095 C 213.400 258.425,212.889 258.763,212.889 258.846 C 212.889 258.929,213.434 258.718,214.102 258.378 C 214.769 258.037,215.315 257.693,215.315 257.613 C 215.315 257.415,215.313 257.416,214.026 258.095 M152.154 279.218 C 152.692 279.285,153.648 279.286,154.277 279.221 C 154.906 279.155,154.466 279.100,153.298 279.099 C 152.130 279.097,151.616 279.151,152.154 279.218 M152.154 285.283 C 152.692 285.350,153.648 285.351,154.277 285.286 C 154.906 285.220,154.466 285.165,153.298 285.164 C 152.130 285.163,151.616 285.216,152.154 285.283 " stroke="none" fill="#b0b0b0" fill-rule="evenodd"></path></g></svg>