<svg id="svg" version="1.1" xmlns="http://www.w3.org/2000/svg" xmlns:xlink="http://www.w3.org/1999/xlink" width="400" height="400" viewBox="0, 0, 400,400"><g id="svgg"><path id="path0" d="M297.600 45.509 C 297.600 46.802,301.482 49.593,302.191 48.810 C 302.596 48.362,302.855 47.928,302.764 47.845 C 302.198 47.327,297.600 45.248,297.600 45.509 M287.600 98.200 C 284.491 101.329,284.392 101.555,286.513 100.653 C 287.849 100.084,291.600 96.380,291.600 95.629 C 291.600 94.614,290.389 95.393,287.600 98.200 M224.400 140.101 L 189.800 174.600 185.509 176.400 L 181.219 178.200 163.911 195.500 L 146.603 212.801 155.500 221.698 L 164.398 230.596 174.398 220.602 L 184.397 210.609 179.798 205.998 C 174.670 200.857,174.689 200.897,176.500 199.042 C 177.215 198.309,178.419 197.056,179.177 196.257 L 180.553 194.804 179.416 193.616 C 178.562 192.726,178.386 192.300,178.712 191.914 C 182.072 187.928,260.243 110.496,261.274 110.133 C 262.003 109.876,262.562 109.493,262.517 109.283 C 262.435 108.909,259.391 105.599,259.131 105.601 C 259.059 105.602,243.430 121.127,224.400 140.101 M267.303 118.421 L 264.006 119.531 257.177 126.388 C 253.421 130.159,250.405 133.416,250.475 133.626 C 250.545 133.836,253.257 136.671,256.501 139.928 C 262.806 146.255,263.389 147.262,261.511 148.577 C 259.843 149.746,259.195 149.336,253.013 143.200 C 246.438 136.674,246.607 136.785,245.300 138.163 C 244.029 139.504,243.808 139.171,250.400 145.813 C 256.536 151.995,256.946 152.643,255.777 154.311 C 254.438 156.223,253.419 155.630,247.000 149.200 C 240.202 142.391,240.828 142.745,238.939 144.634 L 237.505 146.069 242.952 151.566 C 248.778 157.445,249.355 158.486,247.511 159.777 C 245.862 160.933,245.189 160.524,239.556 154.942 L 234.048 149.485 232.395 151.206 L 230.741 152.927 234.516 156.763 C 238.713 161.028,239.098 161.686,238.200 163.056 C 236.904 165.035,235.427 164.419,231.350 160.200 C 227.064 155.766,227.617 155.969,225.575 158.074 L 223.951 159.747 229.716 165.512 L 235.481 171.278 245.040 164.977 C 258.672 155.993,266.694 148.200,272.813 138.000 C 276.462 131.918,277.166 131.008,281.786 126.406 C 284.544 123.659,286.800 121.281,286.800 121.120 C 286.800 120.262,285.164 120.070,282.166 120.578 C 274.734 121.835,275.504 121.932,273.073 119.423 C 271.889 118.200,270.848 117.225,270.760 117.255 C 270.672 117.286,269.116 117.810,267.303 118.421 M166.504 157.106 C 164.577 158.804,161.190 161.815,158.977 163.797 C 156.765 165.779,154.334 167.940,153.577 168.600 C 148.571 172.961,146.402 174.948,146.415 175.158 C 146.423 175.291,147.593 176.646,149.015 178.169 L 151.602 180.938 152.656 179.969 C 153.236 179.436,154.828 177.920,156.194 176.600 C 160.870 172.080,169.799 163.717,172.000 161.796 C 175.028 159.152,175.019 159.283,172.372 156.502 L 170.008 154.017 166.504 157.106 M218.669 164.910 L 216.884 166.695 222.635 172.435 L 228.386 178.176 230.005 176.595 C 232.162 174.489,231.907 174.085,223.105 165.662 L 220.454 163.125 218.669 164.910 M211.661 171.861 L 209.923 173.712 215.456 179.256 C 221.725 185.537,221.316 185.334,223.394 183.206 L 224.951 181.612 223.975 180.545 C 222.143 178.541,213.691 170.000,213.546 170.005 C 213.465 170.008,212.618 170.843,211.661 171.861 M153.900 175.117 C 154.750 176.198,154.508 177.911,153.403 178.635 C 151.399 179.948,149.159 178.212,149.761 175.812 C 150.205 174.045,152.725 173.622,153.900 175.117 M204.833 178.721 C 202.697 180.795,202.408 180.220,208.793 186.593 L 214.386 192.176 215.993 190.607 C 218.115 188.535,218.265 188.883,212.874 183.400 C 205.957 176.366,206.772 176.840,204.833 178.721 M115.709 206.901 C 94.791 227.830,89.916 232.906,89.448 234.249 L 88.872 235.897 90.809 236.126 C 92.941 236.379,95.255 237.425,97.079 238.960 L 98.265 239.957 98.934 238.442 C 99.384 237.420,106.962 229.572,122.169 214.377 C 142.145 194.419,144.689 191.739,144.318 191.048 C 143.988 190.430,144.141 189.820,145.050 188.138 L 146.200 186.010 143.797 183.607 L 141.395 181.203 115.709 206.901 M197.661 185.865 L 195.923 187.712 201.456 193.256 C 207.729 199.541,207.314 199.336,209.408 197.191 L 210.979 195.583 205.190 189.800 L 199.400 184.017 197.661 185.865 M191.829 191.829 C 191.011 192.646,191.035 192.927,192.000 193.800 C 193.160 194.850,193.040 195.149,190.387 197.792 L 187.987 200.183 192.812 204.992 C 197.263 209.428,197.670 209.738,198.087 209.000 C 198.335 208.560,199.696 206.996,201.111 205.525 C 202.526 204.054,203.620 202.666,203.542 202.441 C 203.411 202.064,192.800 191.200,192.562 191.200 C 192.505 191.200,192.174 191.483,191.829 191.829 M132.094 197.167 C 134.974 199.741,133.089 204.400,129.167 204.400 C 127.132 204.400,126.171 203.892,125.404 202.408 C 123.077 197.908,128.323 193.798,132.094 197.167 M121.404 205.376 C 125.183 206.955,125.136 211.865,121.327 213.456 C 116.410 215.511,113.322 208.072,118.048 205.554 C 119.710 204.668,119.710 204.668,121.404 205.376 M113.440 215.760 C 115.271 217.591,115.342 219.781,113.633 221.694 C 110.433 225.275,104.588 221.296,106.654 216.943 C 107.994 214.120,111.235 213.555,113.440 215.760 M102.126 224.450 C 105.601 226.240,106.093 230.089,103.113 232.176 C 100.518 233.993,96.386 231.751,96.413 228.540 C 96.439 225.578,99.735 223.218,102.126 224.450 M113.350 249.965 C 101.479 261.831,91.560 271.958,91.306 272.470 C 91.052 272.981,90.461 274.300,89.993 275.400 C 89.525 276.500,88.885 277.967,88.571 278.660 C 88.257 279.354,88.000 280.013,88.000 280.125 C 88.000 280.237,87.357 281.740,86.572 283.464 C 84.918 287.095,84.733 287.515,83.600 290.200 C 82.467 292.885,82.282 293.305,80.628 296.936 C 78.827 300.891,78.719 300.450,82.012 302.581 C 85.452 304.806,85.608 304.810,86.576 302.695 C 87.140 301.463,95.540 292.789,117.347 270.921 L 147.341 240.842 141.136 234.616 L 134.932 228.390 113.350 249.965 M136.771 232.985 C 138.013 233.627,138.400 234.323,138.400 235.913 C 138.400 237.623,99.129 276.400,97.397 276.400 C 95.548 276.400,94.640 275.553,94.640 273.828 C 94.640 271.943,133.636 232.425,135.520 232.401 C 135.586 232.401,136.149 232.663,136.771 232.985 M88.324 241.718 C 86.946 242.335,85.973 243.648,84.853 246.400 C 84.360 247.610,83.788 248.960,83.581 249.400 C 83.374 249.840,82.460 252.180,81.549 254.600 C 80.638 257.020,79.581 259.810,79.200 260.800 C 78.819 261.790,77.762 264.580,76.851 267.000 C 75.940 269.420,75.023 271.760,74.812 272.200 C 74.457 272.942,73.838 274.535,70.146 284.200 C 69.389 286.180,68.611 288.160,68.416 288.600 C 67.876 289.820,65.600 295.678,65.600 295.849 C 65.600 295.932,66.095 296.014,66.700 296.030 C 68.259 296.074,70.168 296.845,71.417 297.936 C 72.827 299.168,71.937 300.877,81.799 278.000 C 86.588 266.890,90.943 256.810,91.476 255.600 C 93.042 252.046,93.110 251.889,93.974 249.849 C 96.176 244.648,92.759 239.731,88.324 241.718 M75.089 283.989 C 78.499 286.068,75.846 291.219,72.248 289.504 C 69.769 288.321,69.940 284.644,72.523 283.604 C 73.724 283.120,73.645 283.108,75.089 283.989 M65.583 303.020 C 64.738 304.038,66.128 305.244,67.066 304.306 C 67.719 303.652,67.282 302.400,66.400 302.400 C 66.234 302.400,65.866 302.679,65.583 303.020 M74.175 308.437 C 71.570 311.179,66.633 312.377,63.438 311.042 C 62.579 310.683,61.843 310.437,61.800 310.495 C 60.656 312.061,58.772 318.263,59.005 319.696 C 59.702 323.993,63.546 329.460,65.598 329.073 C 66.149 328.969,68.011 328.595,69.735 328.242 C 81.132 325.908,87.784 330.233,89.987 341.409 C 93.174 357.579,97.497 369.600,100.124 369.600 C 100.422 369.600,102.833 367.470,105.483 364.866 L 110.301 360.132 109.981 358.106 C 109.805 356.992,109.227 355.388,108.696 354.540 C 103.122 345.646,96.000 327.393,96.000 322.004 L 96.000 320.159 91.100 316.931 C 85.139 313.004,80.426 310.000,80.228 310.000 C 80.147 310.000,79.144 309.370,78.000 308.600 C 75.482 306.905,75.624 306.911,74.175 308.437 M69.284 318.059 C 72.904 320.637,71.331 325.800,66.925 325.800 C 62.682 325.800,61.229 320.234,64.890 318.002 C 66.576 316.974,67.781 316.990,69.284 318.059 " stroke="none" fill="#000000" fill-rule="evenodd"></path><path id="path1" d="M321.100 29.997 C 312.939 38.211,311.718 39.706,312.861 40.087 C 313.540 40.313,309.296 44.400,308.381 44.400 C 307.951 44.400,307.596 44.265,307.592 44.100 C 307.587 43.935,306.601 43.350,305.400 42.800 C 304.199 42.250,303.213 41.679,303.208 41.532 C 303.204 41.384,302.660 41.145,302.000 41.000 C 301.340 40.855,300.800 40.585,300.800 40.400 C 300.800 40.215,300.260 39.945,299.600 39.800 C 298.940 39.655,298.400 39.371,298.400 39.168 C 298.400 37.821,295.810 38.943,293.476 41.302 C 288.972 45.852,289.068 45.084,292.563 48.602 C 295.539 51.597,296.200 52.884,295.000 53.345 C 294.670 53.471,294.400 53.769,294.400 54.007 C 294.400 54.244,293.950 54.855,293.400 55.365 C 292.850 55.875,292.400 56.487,292.400 56.726 C 292.400 56.965,292.156 57.304,291.858 57.480 C 290.902 58.044,289.908 60.672,290.181 61.915 C 290.421 63.004,289.583 63.922,275.417 78.090 C 261.509 92.000,259.388 94.400,261.000 94.400 C 261.330 94.400,261.600 94.566,261.600 94.768 C 261.600 94.971,262.140 95.255,262.800 95.400 C 263.460 95.545,264.000 95.829,264.000 96.032 C 264.000 96.234,264.323 96.400,264.717 96.400 C 265.111 96.400,266.228 97.210,267.200 98.200 C 268.172 99.190,269.133 100.000,269.336 100.000 C 269.540 100.000,281.198 88.525,295.243 74.500 C 313.739 56.031,321.092 48.936,321.914 48.766 C 323.078 48.526,340.000 32.099,340.000 31.209 C 340.000 30.621,330.791 21.195,330.241 21.220 C 329.998 21.231,325.885 25.180,321.100 29.997 M323.070 53.700 C 293.152 83.359,292.737 83.753,291.926 83.247 C 291.072 82.714,289.200 82.652,289.200 83.157 C 289.200 83.353,288.709 83.637,288.108 83.787 C 286.367 84.224,284.800 86.271,284.800 88.108 C 284.800 89.726,283.880 91.000,280.437 94.152 C 276.088 98.134,272.800 101.831,272.800 102.739 C 272.800 104.457,278.694 110.113,280.200 109.840 C 280.860 109.721,282.962 109.393,284.871 109.111 C 286.779 108.830,288.474 108.465,288.637 108.300 C 288.800 108.135,289.417 108.000,290.007 108.000 C 290.833 108.000,291.831 107.215,294.331 104.600 C 296.119 102.730,297.819 101.200,298.111 101.200 C 298.788 101.200,300.793 100.276,300.797 99.961 C 300.799 99.830,301.160 99.307,301.600 98.800 C 302.040 98.293,302.400 97.545,302.400 97.139 C 302.400 96.732,302.604 96.400,302.852 96.400 C 303.143 96.400,303.226 95.916,303.085 95.044 C 302.870 93.724,303.128 93.419,312.620 83.744 C 323.187 72.973,326.118 70.012,329.078 67.124 C 330.135 66.092,331.841 64.382,332.869 63.324 C 333.897 62.266,335.337 60.836,336.069 60.146 C 336.801 59.456,338.512 57.746,339.871 56.346 C 341.230 54.946,343.210 52.956,344.271 51.924 C 346.740 49.523,349.749 46.336,350.123 45.728 C 350.567 45.005,342.230 36.800,341.052 36.800 C 340.356 36.800,335.765 41.114,323.070 53.700 M300.724 46.217 C 303.943 47.803,303.935 47.792,302.730 49.074 C 301.545 50.335,301.479 50.311,299.004 47.715 C 297.093 45.710,296.829 45.060,297.824 44.806 C 297.837 44.803,299.142 45.438,300.724 46.217 M221.078 130.591 C 201.159 150.506,184.649 166.800,184.391 166.800 C 184.133 166.800,182.427 167.520,180.600 168.400 C 178.773 169.280,177.092 170.000,176.864 170.000 C 176.637 170.000,171.489 174.953,165.425 181.007 C 159.361 187.061,154.400 191.807,154.400 191.553 C 154.400 191.299,153.947 190.672,153.394 190.159 L 152.388 189.227 153.494 188.653 C 154.102 188.337,157.925 184.810,161.988 180.815 C 166.052 176.820,170.102 172.950,170.988 172.214 C 171.875 171.479,173.624 169.915,174.875 168.739 C 178.758 165.088,180.463 163.600,180.762 163.600 C 181.776 163.600,183.200 161.244,183.200 159.566 C 183.200 157.583,183.568 158.057,175.073 149.110 C 170.335 144.120,170.333 144.119,167.382 147.000 C 166.143 148.210,164.878 149.340,164.572 149.512 C 163.915 149.880,159.944 153.366,156.956 156.200 C 155.796 157.300,154.432 158.514,153.924 158.898 C 152.978 159.613,150.291 162.003,146.839 165.200 C 145.770 166.190,143.994 167.720,142.891 168.600 C 141.789 169.480,140.553 170.694,140.144 171.299 C 139.496 172.255,139.137 172.398,137.367 172.399 C 136.248 172.399,135.221 172.513,135.083 172.651 C 134.744 172.990,135.857 175.086,136.487 175.296 C 136.764 175.388,125.075 187.381,110.511 201.947 C 88.147 224.313,83.990 228.645,83.771 229.815 C 83.628 230.577,83.371 231.200,83.200 231.200 C 83.029 231.200,82.771 231.830,82.626 232.600 C 82.482 233.370,82.192 234.000,81.982 234.000 C 81.772 234.000,81.599 234.315,81.598 234.700 C 81.596 235.085,81.333 235.903,81.012 236.517 C 80.692 237.131,80.313 238.256,80.170 239.017 C 80.028 239.778,79.765 240.400,79.587 240.400 C 79.409 240.400,79.138 240.985,78.986 241.700 C 78.833 242.415,78.562 243.182,78.383 243.405 C 78.205 243.628,77.845 244.663,77.582 245.705 C 77.320 246.747,76.962 247.600,76.788 247.600 C 76.613 247.600,76.349 248.320,76.200 249.200 C 76.051 250.080,75.768 250.800,75.570 250.800 C 75.372 250.800,75.094 251.520,74.954 252.400 C 74.813 253.280,74.549 254.000,74.367 254.000 C 74.185 254.000,73.918 254.630,73.774 255.400 C 73.629 256.170,73.351 256.800,73.155 256.800 C 72.960 256.800,72.799 257.115,72.798 257.500 C 72.796 257.885,72.526 258.716,72.198 259.346 C 71.869 259.976,71.600 260.661,71.600 260.868 C 71.600 261.075,71.235 262.044,70.790 263.022 C 70.344 264.000,69.872 265.340,69.740 266.000 C 69.608 266.660,69.366 267.200,69.201 267.200 C 69.037 267.200,68.787 267.920,68.646 268.800 C 68.506 269.680,68.213 270.400,67.995 270.400 C 67.778 270.400,67.594 270.715,67.586 271.100 C 67.579 271.485,67.225 272.520,66.800 273.400 C 66.375 274.280,66.021 275.204,66.014 275.454 C 66.006 275.704,65.731 276.424,65.402 277.054 C 65.074 277.684,64.804 278.515,64.802 278.900 C 64.801 279.285,64.634 279.600,64.432 279.600 C 64.229 279.600,63.942 280.152,63.794 280.827 C 63.646 281.502,63.273 282.537,62.965 283.127 C 62.657 283.717,62.404 284.504,62.402 284.876 C 62.401 285.248,62.245 285.649,62.055 285.766 C 61.865 285.883,61.475 286.839,61.189 287.890 C 60.902 288.940,60.427 290.155,60.134 290.589 C 59.840 291.023,59.600 291.788,59.600 292.289 C 59.600 292.790,59.420 293.200,59.200 293.200 C 58.980 293.200,58.794 293.425,58.786 293.700 C 58.779 293.975,58.425 294.920,58.000 295.800 C 57.575 296.680,57.221 297.625,57.214 297.900 C 57.206 298.175,57.020 298.400,56.800 298.400 C 56.580 298.400,56.394 298.715,56.386 299.100 C 56.379 299.485,56.025 300.520,55.600 301.400 C 55.175 302.280,54.821 303.315,54.814 303.700 C 54.806 304.085,54.638 304.400,54.440 304.400 C 54.242 304.400,53.864 305.300,53.600 306.400 C 53.336 307.500,52.966 308.400,52.778 308.400 C 52.590 308.400,52.318 309.030,52.174 309.800 C 52.029 310.570,51.765 311.200,51.587 311.200 C 51.409 311.200,51.138 311.785,50.986 312.500 C 50.833 313.215,50.523 314.030,50.296 314.310 C 49.784 314.945,49.810 323.233,50.325 323.561 C 50.531 323.692,50.825 324.377,50.978 325.083 C 51.226 326.229,51.888 327.677,53.522 330.650 C 53.809 331.173,54.214 331.600,54.422 331.600 C 54.630 331.600,54.800 331.864,54.800 332.186 C 54.800 332.873,58.366 336.400,59.060 336.400 C 59.320 336.400,59.593 336.535,59.667 336.700 C 60.220 337.944,64.725 338.960,67.000 338.353 C 67.880 338.119,69.533 337.715,70.673 337.457 C 71.813 337.199,72.878 336.855,73.040 336.694 C 73.477 336.257,75.915 336.338,76.200 336.800 C 76.336 337.020,76.787 337.200,77.203 337.200 C 78.312 337.200,79.960 338.902,80.249 340.345 C 80.387 341.035,80.634 341.600,80.798 341.600 C 80.962 341.600,81.222 343.040,81.376 344.800 C 81.529 346.560,81.797 348.000,81.971 348.000 C 82.144 348.000,82.402 349.107,82.543 350.459 C 82.684 351.812,82.960 353.117,83.155 353.359 C 83.350 353.602,83.640 354.610,83.800 355.600 C 83.960 356.590,84.230 357.580,84.400 357.800 C 84.570 358.020,84.836 358.964,84.990 359.898 C 85.144 360.832,85.422 361.690,85.608 361.805 C 85.794 361.920,86.151 363.001,86.401 364.207 C 86.652 365.413,87.004 366.400,87.184 366.400 C 87.364 366.400,87.629 367.030,87.774 367.800 C 87.918 368.570,88.189 369.200,88.375 369.200 C 88.561 369.200,88.832 369.672,88.976 370.248 C 89.121 370.825,89.456 371.523,89.720 371.799 C 89.984 372.076,90.470 372.712,90.800 373.214 C 91.842 374.798,93.668 376.800,94.070 376.800 C 94.283 376.800,94.727 377.070,95.057 377.400 C 95.387 377.730,96.084 378.000,96.605 378.000 C 97.126 378.000,97.664 378.180,97.800 378.400 C 97.936 378.620,99.207 378.800,100.624 378.800 C 102.075 378.800,103.200 378.625,103.200 378.400 C 103.200 378.180,103.577 378.000,104.038 378.000 C 105.127 378.000,106.999 376.658,109.000 374.444 C 109.880 373.470,111.210 372.116,111.955 371.436 C 113.517 370.011,115.806 367.723,118.450 364.944 C 119.468 363.875,121.128 362.217,122.140 361.260 C 126.165 357.452,124.629 351.855,119.411 351.316 C 117.481 351.117,117.158 350.953,116.712 349.945 C 116.433 349.315,116.083 348.800,115.934 348.800 C 115.785 348.800,115.545 348.260,115.400 347.600 C 115.255 346.940,114.985 346.400,114.800 346.400 C 114.615 346.400,114.345 345.860,114.200 345.200 C 114.055 344.540,113.790 344.000,113.612 344.000 C 113.433 344.000,113.163 343.507,113.012 342.904 C 112.860 342.301,112.616 341.716,112.468 341.604 C 112.001 341.248,110.754 338.689,109.752 336.032 C 109.220 334.619,108.624 333.269,108.428 333.032 C 108.232 332.794,107.945 331.925,107.791 331.100 C 107.637 330.275,107.374 329.600,107.207 329.600 C 107.039 329.600,106.781 328.840,106.632 327.912 C 106.484 326.984,106.175 326.108,105.946 325.967 C 105.001 325.383,104.996 317.579,105.941 317.331 C 106.413 317.208,106.800 316.948,106.800 316.753 C 106.800 316.559,107.057 316.400,107.371 316.400 C 107.686 316.400,108.181 316.167,108.471 315.883 C 108.762 315.599,109.585 315.127,110.300 314.835 C 111.015 314.542,111.600 314.184,111.600 314.039 C 111.600 313.894,112.095 313.562,112.700 313.302 C 115.010 312.309,118.400 309.293,118.400 308.233 C 118.400 307.921,118.583 307.606,118.807 307.531 C 119.031 307.456,119.326 306.451,119.463 305.298 C 119.600 304.144,119.866 303.200,120.056 303.200 C 120.245 303.200,120.400 302.390,120.400 301.400 C 120.400 300.410,120.220 299.600,120.000 299.600 C 119.780 299.600,119.600 298.790,119.600 297.800 C 119.600 296.810,119.737 296.000,119.905 296.000 C 120.212 296.000,120.744 295.128,121.672 293.100 C 121.949 292.495,122.302 292.000,122.456 292.000 C 122.610 292.000,122.855 291.460,123.000 290.800 C 123.145 290.140,123.403 289.600,123.574 289.600 C 124.062 289.600,127.207 283.102,127.203 282.100 C 127.201 281.605,127.380 281.200,127.600 281.200 C 127.826 281.200,128.000 280.067,128.000 278.600 C 128.000 277.133,127.826 276.000,127.600 276.000 C 125.638 276.000,127.835 273.490,143.393 257.962 C 154.753 246.624,159.588 241.539,159.593 240.927 C 159.598 240.345,158.298 238.777,155.700 236.229 C 153.555 234.126,151.642 232.247,151.450 232.053 C 151.257 231.859,149.570 230.170,147.700 228.300 C 145.830 226.430,144.120 224.720,143.900 224.500 C 143.680 224.280,141.705 222.277,139.511 220.050 C 137.264 217.768,135.194 216.000,134.770 216.000 C 134.314 216.000,127.955 222.061,118.613 231.400 C 102.476 247.531,102.751 247.272,103.084 246.000 C 103.199 245.560,103.438 245.200,103.615 245.200 C 103.792 245.200,104.058 244.648,104.206 243.973 C 104.689 241.775,105.237 241.163,119.492 226.910 L 133.584 212.821 148.771 228.044 C 160.507 239.808,164.125 243.214,164.691 243.034 C 165.095 242.906,167.971 240.236,171.084 237.101 C 174.196 233.965,180.052 228.105,184.096 224.079 L 191.450 216.758 195.676 220.979 C 200.178 225.475,201.072 225.942,201.460 224.000 C 201.592 223.340,201.846 222.800,202.025 222.800 C 202.205 222.800,202.472 221.990,202.621 221.000 C 202.769 220.010,203.031 219.200,203.202 219.200 C 203.373 219.200,203.627 218.745,203.767 218.189 C 204.443 215.495,207.412 212.180,223.908 195.700 C 233.432 186.185,241.399 178.400,241.612 178.400 C 241.825 178.400,242.000 178.223,242.000 178.008 C 242.000 177.792,242.450 177.502,243.000 177.364 C 243.550 177.226,244.000 176.947,244.000 176.744 C 244.000 176.541,244.315 176.258,244.700 176.114 C 245.584 175.785,247.757 174.298,247.933 173.900 C 248.007 173.735,248.327 173.600,248.646 173.600 C 248.964 173.600,249.322 173.346,249.441 173.036 C 249.561 172.726,250.095 172.363,250.629 172.228 C 251.163 172.094,251.600 171.808,251.600 171.592 C 251.600 171.377,251.876 171.200,252.213 171.200 C 252.549 171.200,252.929 170.930,253.055 170.600 C 253.182 170.270,253.509 170.000,253.782 170.000 C 254.218 170.000,254.767 169.623,256.683 168.007 C 256.949 167.783,257.260 167.600,257.375 167.600 C 258.942 167.600,277.200 150.104,277.200 148.603 C 277.200 148.271,277.377 148.000,277.592 148.000 C 277.808 148.000,278.098 147.550,278.236 147.000 C 278.374 146.450,278.626 146.000,278.797 146.000 C 278.967 146.000,279.207 145.685,279.329 145.300 C 279.598 144.451,280.814 142.426,281.499 141.684 C 281.774 141.387,282.109 140.707,282.243 140.172 C 282.377 139.637,282.635 139.200,282.816 139.200 C 282.998 139.200,283.258 138.847,283.395 138.416 C 283.532 137.985,287.231 134.070,291.616 129.716 C 296.001 125.362,299.591 121.579,299.594 121.309 C 299.597 121.039,297.241 118.451,294.358 115.558 L 289.116 110.297 286.089 110.572 C 284.424 110.722,282.745 111.016,282.357 111.223 C 279.950 112.511,278.144 111.717,274.245 107.652 C 272.900 106.250,270.921 104.270,269.846 103.252 C 268.772 102.233,266.909 100.382,265.707 99.137 C 264.195 97.572,263.101 96.795,262.160 96.619 C 261.412 96.479,260.800 96.206,260.800 96.014 C 260.800 95.821,260.215 95.538,259.500 95.386 C 258.785 95.233,257.997 94.944,257.748 94.745 C 257.442 94.499,245.631 106.045,221.078 130.591 M291.937 95.324 C 292.490 95.991,287.535 101.020,285.944 101.408 C 283.966 101.889,284.394 100.877,287.454 97.836 C 290.573 94.737,291.172 94.402,291.937 95.324 M261.380 107.180 C 263.509 109.341,263.482 110.099,261.259 110.587 C 260.506 110.753,247.686 123.313,219.400 151.600 L 178.626 192.375 179.713 193.509 C 181.161 195.020,181.179 194.968,178.200 197.903 C 174.998 201.058,174.772 200.188,180.200 205.600 C 182.730 208.123,184.800 210.369,184.800 210.591 C 184.800 211.120,165.129 230.800,164.600 230.800 C 164.376 230.800,160.146 226.750,155.199 221.799 L 146.205 212.798 163.603 195.387 C 177.290 181.689,181.427 177.775,183.000 177.033 C 184.100 176.514,186.202 175.533,187.670 174.851 C 190.179 173.687,192.414 171.539,224.548 139.406 C 243.363 120.593,258.908 105.200,259.093 105.200 C 259.278 105.200,260.308 106.091,261.380 107.180 M273.467 119.267 L 275.560 121.333 279.480 120.646 C 285.436 119.601,285.425 119.602,286.342 120.244 C 287.631 121.147,287.581 121.222,282.180 126.596 C 277.539 131.214,276.874 132.074,273.377 137.977 C 269.137 145.134,258.876 156.201,252.600 160.387 C 251.060 161.414,248.360 163.220,246.600 164.400 C 238.018 170.155,236.348 171.245,235.780 171.463 C 235.187 171.691,223.600 160.562,223.600 159.765 C 223.600 159.272,226.895 156.000,227.392 156.000 C 227.625 156.000,229.433 157.632,231.408 159.627 C 235.849 164.112,236.020 164.214,237.357 163.162 C 238.937 161.919,238.724 161.483,234.327 156.964 L 230.255 152.778 232.011 150.989 C 234.315 148.641,233.838 148.426,240.000 154.600 C 245.435 160.047,246.204 160.539,247.400 159.342 C 248.523 158.220,247.800 157.093,242.788 152.154 C 236.621 146.077,236.741 146.304,238.643 144.356 C 240.762 142.186,240.640 142.124,247.265 148.800 C 253.244 154.824,254.131 155.412,255.371 154.171 C 256.544 152.999,256.007 152.216,249.705 145.905 L 243.411 139.601 245.106 137.906 L 246.801 136.211 253.105 142.505 C 259.594 148.984,260.694 149.693,261.608 147.985 C 262.337 146.624,261.773 145.838,255.776 139.864 C 252.599 136.699,250.000 133.858,250.000 133.551 C 250.000 132.112,264.120 118.977,266.400 118.294 C 267.610 117.932,268.870 117.552,269.200 117.450 C 270.697 116.985,271.505 117.328,273.467 119.267 M175.200 159.133 C 175.200 159.295,173.720 160.772,171.910 162.414 C 167.793 166.151,154.533 178.742,153.230 180.151 C 151.895 181.595,151.774 181.551,148.710 178.511 C 146.222 176.042,145.450 174.675,146.352 174.333 C 146.546 174.260,148.121 172.923,149.852 171.362 C 151.583 169.801,154.890 166.851,157.200 164.806 C 159.510 162.762,162.693 159.934,164.273 158.522 C 165.854 157.110,167.830 155.412,168.665 154.749 L 170.183 153.542 172.691 156.190 C 174.071 157.646,175.200 158.971,175.200 159.133 M226.766 168.566 L 232.522 174.332 230.476 176.466 L 228.431 178.600 222.420 172.609 L 216.409 166.619 218.289 164.709 C 220.742 162.219,220.171 161.959,226.766 168.566 M219.691 175.491 L 225.591 181.381 223.711 183.291 C 222.676 184.341,221.622 185.200,221.367 185.200 C 221.033 185.200,211.811 176.231,209.624 173.779 C 209.443 173.575,213.206 169.600,213.580 169.600 C 213.696 169.600,216.446 172.251,219.691 175.491 M144.600 174.000 C 144.600 174.324,144.285 174.650,143.900 174.724 C 143.409 174.818,143.200 174.602,143.200 174.000 C 143.200 173.398,143.409 173.182,143.900 173.276 C 144.285 173.350,144.600 173.676,144.600 174.000 M150.480 175.280 C 148.815 176.945,150.959 179.081,153.367 178.157 C 154.951 177.549,153.831 174.800,152.000 174.800 C 151.428 174.800,150.744 175.016,150.480 175.280 M212.795 182.595 L 218.580 188.390 216.605 190.395 C 214.065 192.974,214.762 193.287,208.083 186.571 L 202.287 180.742 204.228 178.771 C 206.752 176.209,206.155 175.943,212.795 182.595 M145.429 188.178 C 144.421 190.042,144.333 190.438,144.800 191.000 C 145.282 191.580,142.755 194.246,122.510 214.527 C 109.785 227.274,99.547 237.843,99.384 238.400 C 98.719 240.679,98.248 240.904,96.968 239.556 C 95.282 237.782,93.046 236.760,90.731 236.708 C 85.386 236.586,86.467 235.259,115.768 206.006 L 141.204 180.611 143.902 183.310 L 146.600 186.010 145.429 188.178 M205.469 189.282 C 211.995 195.753,211.735 195.225,209.517 197.485 C 207.239 199.805,207.496 199.926,201.187 193.573 C 194.707 187.048,195.110 187.925,197.485 185.514 C 199.820 183.144,198.785 182.655,205.469 189.282 M198.784 196.584 L 204.558 202.368 202.162 204.884 C 200.844 206.268,199.356 207.985,198.856 208.700 C 198.355 209.415,197.807 210.000,197.638 210.000 C 197.415 210.000,189.628 202.359,187.622 200.172 C 187.525 200.065,188.582 198.831,189.972 197.428 L 192.500 194.878 191.650 194.150 C 190.628 193.275,190.574 192.513,191.462 191.531 C 192.516 190.366,192.713 190.502,198.784 196.584 M126.685 197.205 C 123.256 199.902,126.477 205.497,130.492 203.819 C 132.260 203.081,132.800 202.197,132.800 200.044 C 132.800 196.873,129.220 195.210,126.685 197.205 M117.036 206.831 C 114.829 209.453,116.444 213.200,119.781 213.200 C 122.523 213.200,124.524 210.631,123.625 208.266 C 122.525 205.372,118.923 204.587,117.036 206.831 M109.200 215.082 C 105.332 216.497,106.183 222.400,110.255 222.400 C 112.511 222.400,113.357 221.952,113.991 220.422 C 115.332 217.185,112.396 213.914,109.200 215.082 M98.926 225.180 C 96.472 226.676,96.075 229.139,97.960 231.158 C 101.111 234.530,106.658 230.408,104.141 226.565 C 102.795 224.512,100.863 223.999,98.926 225.180 M147.600 240.885 C 147.600 241.047,134.374 254.414,118.210 270.589 C 102.045 286.764,88.565 300.404,88.254 300.899 C 87.943 301.395,87.210 302.575,86.626 303.521 L 85.563 305.242 84.082 304.349 C 78.683 301.092,78.368 300.767,79.186 299.295 C 79.398 298.913,79.948 297.700,80.408 296.600 C 80.868 295.500,81.405 294.240,81.602 293.800 C 81.799 293.360,82.674 291.290,83.546 289.200 C 84.419 287.110,85.699 284.140,86.392 282.600 C 87.736 279.611,88.008 278.991,88.943 276.800 C 91.420 270.993,90.525 272.006,113.168 249.407 L 134.804 227.813 141.202 234.202 C 144.721 237.716,147.600 240.723,147.600 240.885 M115.274 252.389 C 92.542 275.092,93.878 273.514,95.782 275.418 C 97.454 277.091,97.586 276.979,118.083 256.509 C 139.110 235.510,139.101 235.520,137.269 233.862 C 135.458 232.223,135.499 232.188,115.274 252.389 M93.230 242.085 C 94.243 242.834,94.652 243.533,95.354 245.711 C 95.480 246.102,95.299 247.272,94.952 248.311 C 94.295 250.278,94.069 250.820,92.032 255.328 C 91.355 256.828,90.800 258.149,90.800 258.263 C 90.800 258.377,90.244 259.670,89.565 261.135 C 88.885 262.601,87.884 264.880,87.339 266.200 C 86.795 267.520,86.024 269.320,85.627 270.200 C 85.230 271.080,82.243 277.965,78.989 285.500 C 73.210 298.882,72.651 299.867,71.576 298.571 C 70.714 297.533,68.126 296.400,66.616 296.400 C 65.837 296.400,65.200 296.318,65.200 296.219 C 65.200 296.052,67.956 288.645,69.597 284.400 C 69.980 283.410,71.038 280.620,71.949 278.200 C 72.860 275.780,73.777 273.440,73.988 273.000 C 74.349 272.244,75.334 269.708,78.607 261.100 C 79.381 259.065,80.191 257.087,80.407 256.705 C 80.623 256.323,80.800 255.811,80.800 255.566 C 80.800 255.321,81.064 254.554,81.386 253.860 C 81.709 253.167,82.617 250.890,83.406 248.800 C 86.262 241.228,89.280 239.165,93.230 242.085 M71.600 284.800 C 69.870 286.530,71.067 289.200,73.574 289.200 C 75.423 289.200,76.160 288.435,76.160 286.516 C 76.160 284.137,73.329 283.071,71.600 284.800 M111.461 292.900 C 112.284 293.555,114.043 295.319,114.800 296.247 C 115.240 296.786,115.400 297.999,115.400 300.791 C 115.400 305.406,115.230 305.677,109.506 310.200 C 108.599 310.917,105.329 312.400,104.656 312.400 C 104.295 312.400,104.000 312.580,104.000 312.800 C 104.000 313.020,103.460 313.200,102.800 313.200 C 102.140 313.200,101.600 313.020,101.600 312.800 C 101.600 312.580,101.324 312.400,100.987 312.400 C 100.651 312.400,100.271 312.130,100.145 311.800 C 100.018 311.470,99.700 311.200,99.439 311.200 C 98.988 311.200,98.241 310.697,96.320 309.100 C 95.857 308.715,95.235 308.400,94.939 308.400 C 94.069 308.400,94.284 306.491,95.186 306.204 C 95.908 305.975,98.375 307.294,98.733 308.100 C 98.807 308.265,99.127 308.400,99.446 308.400 C 99.764 308.400,100.122 308.654,100.241 308.964 C 100.361 309.274,100.938 309.648,101.525 309.796 C 102.112 309.943,102.703 310.243,102.838 310.462 C 103.374 311.329,106.155 311.314,107.161 310.437 C 107.690 309.977,108.365 309.600,108.661 309.600 C 108.958 309.600,109.200 309.420,109.200 309.200 C 109.200 308.980,109.470 308.800,109.800 308.800 C 110.130 308.800,110.400 308.551,110.400 308.247 C 110.400 307.619,109.202 307.213,107.323 307.205 C 106.142 307.200,103.627 306.030,102.537 304.978 C 102.045 304.503,101.206 301.841,101.202 300.743 C 101.201 300.381,102.955 298.358,105.100 296.247 C 109.058 292.351,110.090 291.808,111.461 292.900 M67.584 302.581 C 68.647 303.861,67.086 305.828,65.700 304.955 C 64.315 304.083,64.808 302.000,66.400 302.000 C 66.786 302.000,67.319 302.261,67.584 302.581 M77.622 307.819 C 78.777 308.672,80.737 309.896,85.926 313.004 C 86.297 313.226,88.709 314.791,91.287 316.482 C 96.232 319.726,96.135 319.600,96.602 323.400 C 96.888 325.728,98.250 331.085,98.813 332.095 C 99.026 332.477,99.200 332.989,99.200 333.234 C 99.200 333.479,99.457 334.246,99.771 334.940 C 100.084 335.633,100.999 337.760,101.804 339.667 C 103.230 343.047,106.646 349.972,109.072 354.400 C 109.735 355.610,110.371 357.437,110.485 358.460 L 110.693 360.319 105.787 365.213 C 99.543 371.442,98.734 371.309,95.591 363.540 C 95.115 362.363,94.543 360.950,94.320 360.400 C 93.852 359.247,93.134 356.745,91.966 352.200 C 90.400 346.104,90.038 344.479,89.773 342.345 C 88.637 333.202,83.167 328.000,74.689 328.000 C 72.397 328.000,66.736 329.098,65.687 329.746 C 63.255 331.249,56.547 318.786,58.655 316.679 C 58.795 316.539,59.484 315.024,60.185 313.312 C 61.000 311.324,61.667 310.229,62.031 310.279 C 62.344 310.322,63.410 310.562,64.400 310.812 C 67.744 311.654,71.610 310.522,73.919 308.024 C 75.265 306.568,75.884 306.533,77.622 307.819 M65.189 318.282 C 62.757 319.958,62.454 322.392,64.431 324.369 C 66.072 326.010,67.850 i326.035,69.558 324.440 C 72.908 321.310,68.930 315.703,65.189 318.282 " stroke="none" fill="#ff4f4f" fill-rule="evenodd"></path><path id="path2" d="M254.585 116.100 L 252.600 118.200 254.700 116.215 C 256.651 114.371,256.983 114.000,256.685 114.000 C 256.622 114.000,255.677 114.945,254.585 116.100 M248.985 121.700 L 247.000 123.800 249.100 121.815 C 251.051 119.971,251.383 119.600,251.085 119.600 C 251.022 119.600,250.077 120.545,248.985 121.700 M243.586 127.100 L 241.400 129.400 243.700 127.214 C 245.837 125.182,246.183 124.800,245.886 124.800 C 245.824 124.800,244.789 125.835,243.586 127.100 M237.986 132.700 L 235.800 135.000 238.100 132.814 C 240.237 130.782,240.583 130.400,240.286 130.400 C 240.224 130.400,239.189 131.435,237.986 132.700 M232.386 138.300 L 230.200 140.600 232.500 138.414 C 233.765 137.211,234.800 136.176,234.800 136.114 C 234.800 135.817,234.418 136.163,232.386 138.300 M226.786 143.900 L 224.600 146.200 226.900 144.014 C 228.165 142.811,229.200 141.776,229.200 141.714 C 229.200 141.417,228.818 141.763,226.786 143.900 M221.385 149.300 L 219.400 151.400 221.500 149.415 C 223.451 147.571,223.783 147.200,223.485 147.200 C 223.422 147.200,222.477 148.145,221.385 149.300 M215.178 155.500 L 213.800 157.000 215.300 155.622 C 216.696 154.338,216.984 154.000,216.678 154.000 C 216.612 154.000,215.937 154.675,215.178 155.500 M204.800 165.800 C 203.828 166.790,203.123 167.600,203.233 167.600 C 203.343 167.600,204.228 166.790,205.200 165.800 C 206.172 164.810,206.877 164.000,206.767 164.000 C 206.657 164.000,205.772 164.810,204.800 165.800 M198.581 172.100 L 197.000 173.800 198.700 172.219 C 200.281 170.748,200.584 170.400,200.281 170.400 C 200.216 170.400,199.451 171.165,198.581 172.100 M188.400 182.200 C 187.428 183.190,186.723 184.000,186.833 184.000 C 186.943 184.000,187.828 183.190,188.800 182.200 C 189.772 181.210,190.477 180.400,190.367 180.400 C 190.257 180.400,189.372 181.210,188.400 182.200 M182.000 188.600 C 181.028 189.590,180.323 190.400,180.433 190.400 C 180.543 190.400,181.428 189.590,182.400 188.600 C 183.372 187.610,184.077 186.800,183.967 186.800 C 183.857 186.800,182.972 187.610,182.000 188.600 " stroke="none" fill="#949494" fill-rule="evenodd"></path><path id="path3" d="M302.568 47.372 C 303.443 48.074,302.565 49.566,301.238 49.632 C 300.783 49.654,300.752 49.724,301.129 49.874 C 302.522 50.431,304.039 47.841,302.700 47.192 C 301.841 46.776,301.835 46.784,302.568 47.372 M291.737 95.470 C 291.886 95.619,291.601 96.204,291.104 96.770 L 290.200 97.800 291.288 96.842 C 292.239 96.004,292.445 95.200,291.710 95.200 C 291.576 95.200,291.588 95.322,291.737 95.470 M258.842 105.300 C 258.938 105.355,260.003 106.300,261.208 107.400 L 263.400 109.400 261.415 107.300 C 260.323 106.145,259.258 105.200,259.048 105.200 C 258.838 105.200,258.745 105.245,258.842 105.300 M256.778 107.100 L 255.400 108.600 256.900 107.222 C 258.296 105.938,258.584 105.600,258.278 105.600 C 258.212 105.600,257.537 106.275,256.778 107.100 M251.178 112.700 L 249.800 114.200 251.300 112.822 C 252.696 111.538,252.984 111.200,252.678 111.200 C 252.612 111.200,251.937 111.875,251.178 112.700 M245.578 118.300 L 244.200 119.800 245.700 118.422 C 247.096 117.138,247.384 116.800,247.078 116.800 C 247.012 116.800,246.337 117.475,245.578 118.300 M273.000 119.200 C 274.083 120.300,275.060 121.200,275.170 121.200 C 275.280 121.200,274.483 120.300,273.400 119.200 C 272.317 118.100,271.340 117.200,271.230 117.200 C 271.120 117.200,271.917 118.100,273.000 119.200 M256.996 126.100 L 249.800 133.400 257.185 126.200 C 261.247 122.240,264.652 118.955,264.752 118.900 C 264.852 118.845,264.766 118.800,264.562 118.800 C 264.359 118.800,260.954 122.085,256.996 126.100 M240.175 123.700 L 239.000 125.000 240.300 123.825 C 241.015 123.179,241.600 122.594,241.600 122.525 C 241.600 122.216,241.270 122.488,240.175 123.700 M234.778 129.100 L 233.400 130.600 234.900 129.222 C 236.296 127.938,236.584 127.600,236.278 127.600 C 236.212 127.600,235.537 128.275,234.778 129.100 M228.975 134.900 L 227.800 136.200 229.100 135.025 C 229.815 134.379,230.400 133.794,230.400 133.725 C 230.400 133.416,230.070 133.688,228.975 134.900 M244.991 138.009 L 243.421 139.617 249.809 145.909 L 256.197 152.200 250.004 145.901 L 243.812 139.602 245.307 138.107 L 246.802 136.612 253.101 142.806 L 259.400 149.000 253.205 142.700 C 246.069 135.443,246.985 135.967,244.991 138.009 M253.600 137.725 C 253.600 137.794,254.185 138.379,254.900 139.025 L 256.200 140.200 255.025 138.900 C 253.930 137.688,253.600 137.416,253.600 137.725 M223.578 140.300 L 222.200 141.800 223.700 140.422 C 225.096 139.138,225.384 138.800,225.078 138.800 C 225.012 138.800,224.337 139.475,223.578 140.300 M238.581 144.500 L 237.000 146.200 238.700 144.619 C 240.281 143.148,240.584 142.800,240.281 142.800 C 240.216 142.800,239.451 143.565,238.581 144.500 M218.181 145.700 L 216.600 147.400 218.300 145.819 C 219.881 144.348,220.184 144.000,219.881 144.000 C 219.816 144.000,219.051 144.765,218.181 145.700 M261.609 145.931 C 261.858 146.443,261.960 147.128,261.835 147.452 C 261.708 147.783,261.782 147.935,262.005 147.797 C 262.578 147.443,262.490 146.666,261.778 145.776 C 261.185 145.036,261.177 145.043,261.609 145.931 M239.000 148.400 C 239.859 149.280,240.652 150.000,240.762 150.000 C 240.872 150.000,240.259 149.280,239.400 148.400 C 238.541 147.520,237.748 146.800,237.638 146.800 C 237.528 146.800,238.141 147.520,239.000 148.400 M232.008 150.992 C 231.041 151.977,230.329 152.841,230.425 152.913 C 230.521 152.984,231.390 152.178,232.357 151.121 C 234.571 148.700,234.341 148.614,232.008 150.992 M239.594 154.500 C 242.561 157.525,245.036 160.000,245.094 160.000 C 245.381 160.000,244.809 159.406,239.700 154.394 L 234.200 149.000 239.594 154.500 M212.181 151.700 L 210.600 153.400 212.300 151.819 C 213.881 150.348,214.184 150.000,213.881 150.000 C 213.816 150.000,213.051 150.765,212.181 151.700 M245.183 154.500 C 246.164 155.545,247.019 156.400,247.083 156.400 C 247.384 156.400,247.066 156.041,245.300 154.383 L 243.400 152.600 245.183 154.500 M171.200 155.000 C 171.946 155.770,172.647 156.400,172.757 156.400 C 172.867 156.400,172.346 155.770,171.600 155.000 C 170.854 154.230,170.153 153.600,170.043 153.600 C 169.933 153.600,170.454 154.230,171.200 155.000 M206.981 156.900 L 205.400 158.600 207.100 157.019 C 208.681 155.548,208.984 155.200,208.681 155.200 C 208.616 155.200,207.851 155.965,206.981 156.900 M225.200 157.800 C 224.228 158.790,223.523 159.600,223.633 159.600 C 223.743 159.600,224.628 158.790,225.600 157.800 C 226.572 156.810,227.277 156.000,227.167 156.000 C 227.057 156.000,226.172 156.810,225.200 157.800 M231.200 159.800 C 233.281 161.890,235.074 163.600,235.184 163.600 C 235.294 163.600,233.681 161.890,231.600 159.800 C 229.519 157.710,227.726 156.000,227.616 156.000 C 227.506 156.000,229.119 157.710,231.200 159.800 M200.981 162.900 L 199.400 164.600 201.100 163.019 C 202.681 161.548,202.984 161.200,202.681 161.200 C 202.616 161.200,201.851 161.965,200.981 162.900 M159.375 162.900 L 158.200 164.200 159.500 163.025 C 160.215 162.379,160.800 161.794,160.800 161.725 C 160.800 161.416,160.470 161.688,159.375 162.900 M169.381 164.500 L 167.800 166.200 169.500 164.619 C 171.081 163.148,171.384 162.800,171.081 162.800 C 171.016 162.800,170.251 163.565,169.381 164.500 M218.247 164.753 C 216.816 166.205,216.461 166.785,216.862 167.017 C 217.158 167.188,217.261 167.175,217.090 166.988 C 216.920 166.800,217.633 165.782,218.675 164.724 C 219.717 163.666,220.480 162.800,220.370 162.800 C 220.260 162.800,219.304 163.679,218.247 164.753 M226.400 168.600 C 229.584 171.790,232.280 174.400,232.390 174.400 C 232.500 174.400,229.984 171.790,226.800 168.600 C 223.616 165.410,220.920 162.800,220.810 162.800 C 220.700 162.800,223.216 165.410,226.400 168.600 M229.000 165.600 C 230.083 166.700,231.060 167.600,231.170 167.600 C 231.280 167.600,230.483 166.700,229.400 165.600 C 228.317 164.500,227.340 163.600,227.230 163.600 C 227.120 163.600,227.917 164.500,229.000 165.600 M155.775 166.100 L 154.600 167.400 155.900 166.225 C 157.112 165.130,157.384 164.800,157.075 164.800 C 157.006 164.800,156.421 165.385,155.775 166.100 M195.578 168.300 L 194.200 169.800 195.700 168.422 C 196.525 167.663,197.200 166.988,197.200 166.922 C 197.200 166.616,196.862 166.904,195.578 168.300 M163.387 170.100 L 161.000 172.600 163.500 170.213 C 165.822 167.995,166.183 167.600,165.887 167.600 C 165.826 167.600,164.701 168.725,163.387 170.100 M152.175 169.300 L 151.000 170.600 152.300 169.425 C 153.512 168.330,153.784 168.000,153.475 168.000 C 153.406 168.000,152.821 168.585,152.175 169.300 M233.887 170.409 C 234.595 171.151,235.242 171.678,235.325 171.579 C 235.408 171.481,234.829 170.873,234.038 170.229 L 232.600 169.058 233.887 170.409 M211.385 171.700 L 209.400 173.800 211.592 171.800 C 212.797 170.700,213.862 169.755,213.958 169.700 C 214.055 169.645,213.962 169.600,213.752 169.600 C 213.542 169.600,212.477 170.545,211.385 171.700 M219.719 175.919 C 222.749 178.955,225.087 181.594,224.914 181.783 C 224.741 181.974,224.844 181.987,225.144 181.813 C 225.618 181.539,215.142 170.400,214.411 170.400 C 214.301 170.400,216.690 172.884,219.719 175.919 M150.368 175.100 C 149.918 175.696,149.922 175.725,150.399 175.300 C 150.708 175.025,151.428 174.800,152.000 174.800 C 152.572 174.800,153.292 175.025,153.601 175.300 C 154.078 175.725,154.082 175.696,153.632 175.100 C 153.340 174.715,152.606 174.400,152.000 174.400 C 151.394 174.400,150.660 174.715,150.368 175.100 M154.991 178.100 L 151.800 181.400 155.100 178.209 C 156.915 176.455,158.400 174.970,158.400 174.909 C 158.400 174.618,157.954 175.035,154.991 178.100 M148.400 178.200 C 149.817 179.630,151.067 180.800,151.177 180.800 C 151.287 180.800,150.217 179.630,148.800 178.200 C 147.383 176.770,146.133 175.600,146.023 175.600 C 145.913 175.600,146.983 176.770,148.400 178.200 M204.209 178.791 C 203.131 179.886,202.327 180.839,202.424 180.908 C 202.521 180.978,203.482 180.082,204.560 178.918 C 207.039 176.240,206.805 176.156,204.209 178.791 M212.407 182.600 C 215.593 185.900,218.282 188.548,218.382 188.484 C 218.483 188.420,215.876 185.720,212.589 182.484 L 206.613 176.600 212.407 182.600 M150.349 178.100 C 150.907 178.812,152.986 179.069,153.355 178.472 C 153.467 178.292,153.026 178.223,152.375 178.318 C 151.725 178.414,150.879 178.246,150.496 177.946 C 149.866 177.452,149.852 177.466,150.349 178.100 M115.199 206.700 L 89.800 232.200 115.300 206.801 C 139.004 183.191,140.979 181.200,140.699 181.200 C 140.643 181.200,129.168 192.675,115.199 206.700 M197.385 185.700 L 195.400 187.800 197.500 185.815 C 198.655 184.723,199.600 183.778,199.600 183.715 C 199.600 183.417,199.229 183.749,197.385 185.700 M205.400 189.600 C 208.474 192.680,211.079 195.200,211.189 195.200 C 211.299 195.200,208.874 192.680,205.800 189.600 C 202.726 186.520,200.121 184.000,200.011 184.000 C 199.901 184.000,202.326 186.520,205.400 189.600 M198.407 196.600 C 201.593 199.900,204.282 202.548,204.382 202.484 C 204.483 202.420,201.876 199.720,198.589 196.484 L 192.613 190.600 198.407 196.600 M143.422 193.175 L 141.844 195.000 143.603 193.314 C 144.570 192.386,145.280 191.565,145.180 191.488 C 145.081 191.412,144.290 192.171,143.422 193.175 M189.810 197.590 C 188.510 198.904,187.525 200.034,187.623 200.102 C 187.720 200.169,188.865 199.094,190.166 197.712 C 193.171 194.522,192.929 194.438,189.810 197.590 M132.901 200.200 C 132.905 201.080,132.987 201.393,133.083 200.895 C 133.179 200.398,133.175 199.678,133.075 199.295 C 132.975 198.913,132.896 199.320,132.901 200.200 M175.580 200.225 C 175.133 200.762,175.709 201.498,179.731 205.531 C 182.299 208.105,184.400 210.388,184.400 210.603 C 184.400 210.818,179.945 215.495,174.500 220.997 L 164.600 231.000 174.700 221.003 C 180.255 215.505,184.800 210.827,184.800 210.609 C 184.800 210.391,182.699 208.105,180.131 205.531 C 176.109 201.498,175.533 200.762,175.980 200.225 C 176.265 199.881,176.408 199.600,176.298 199.600 C 176.188 199.600,175.865 199.881,175.580 200.225 M134.800 201.800 C 133.828 202.790,133.123 203.600,133.233 203.600 C 133.343 203.600,134.228 202.790,135.200 201.800 C 136.172 200.810,136.877 200.000,136.767 200.000 C 136.657 200.000,135.772 200.810,134.800 201.800 M120.200 216.400 C 117.567 219.040,115.503 221.200,115.613 221.200 C 115.723 221.200,117.967 219.040,120.600 216.400 C 123.233 213.760,125.297 211.600,125.187 211.600 C 125.077 211.600,122.833 213.760,120.200 216.400 M114.255 218.045 C 114.382 218.840,114.277 219.920,114.021 220.445 C 113.580 221.352,113.587 221.361,114.178 220.624 C 114.875 219.753,114.984 218.108,114.405 217.200 C 114.141 216.785,114.094 217.046,114.255 218.045 M106.493 218.800 C 106.493 219.570,106.575 219.885,106.676 219.500 C 106.776 219.115,106.776 218.485,106.676 218.100 C 106.575 217.715,106.493 218.030,106.493 218.800 M107.596 229.100 L 100.200 236.600 107.700 229.204 C 111.825 225.136,115.200 221.761,115.200 221.704 C 115.200 221.419,114.468 222.132,107.596 229.100 M109.905 222.683 C 110.402 222.779,111.122 222.775,111.505 222.675 C 111.887 222.575,111.480 222.496,110.600 222.501 C 109.720 222.505,109.407 222.587,109.905 222.683 M112.599 250.100 L 91.000 271.800 112.700 250.201 C 132.871 230.125,134.580 228.400,134.299 228.400 C 134.243 228.400,124.478 238.165,112.599 250.100 M139.200 232.600 C 140.395 233.810,141.463 234.800,141.573 234.800 C 141.683 234.800,140.795 233.810,139.600 232.600 C 138.405 231.390,137.337 230.400,137.227 230.400 C 137.117 230.400,138.005 231.390,139.200 232.600 M88.528 235.795 C 88.575 236.262,88.938 236.625,89.405 236.672 C 89.981 236.732,90.014 236.699,89.525 236.552 C 89.153 236.442,88.758 236.047,88.648 235.675 C 88.501 235.186,88.468 235.219,88.528 235.795 M144.800 238.200 C 146.217 239.630,147.467 240.800,147.577 240.800 C 147.687 240.800,146.617 239.630,145.200 238.200 C 143.783 236.770,142.533 235.600,142.423 235.600 C 142.313 235.600,143.383 236.770,144.800 238.200 M119.998 254.700 L 102.600 272.200 120.100 254.802 C 136.366 238.631,137.780 237.200,137.498 237.200 C 137.442 237.200,129.567 245.075,119.998 254.700 M96.000 238.525 C 96.000 238.594,96.585 239.179,97.300 239.825 L 98.600 241.000 97.425 239.700 C 96.330 238.488,96.000 238.216,96.000 238.525 M65.280 302.480 C 64.603 303.157,64.684 304.206,65.464 304.851 C 66.068 305.350,66.080 305.323,65.601 304.553 C 64.590 302.930,66.170 301.624,67.601 302.900 C 68.078 303.325,68.082 303.296,67.632 302.700 C 67.018 301.889,65.969 301.791,65.280 302.480 M58.561 316.958 C 58.443 317.265,58.408 318.210,58.483 319.058 C 58.610 320.487,58.634 320.446,58.810 318.500 C 59.004 316.356,58.941 315.967,58.561 316.958 M96.093 321.600 C 96.093 322.370,96.175 322.685,96.276 322.300 C 96.376 321.915,96.376 321.285,96.276 320.900 C 96.175 320.515,96.093 320.830,96.093 321.600 M110.109 358.000 C 110.109 358.990,110.187 359.395,110.282 358.900 C 110.378 358.405,110.378 357.595,110.282 357.100 C 110.187 356.605,110.109 357.010,110.109 358.000 M105.818 364.782 C 103.195 367.412,100.677 369.638,100.224 369.728 C 99.419 369.887,99.419 369.892,100.206 369.946 C 100.744 369.982,102.670 368.338,106.000 365.000 C 108.743 362.250,110.898 360.000,110.788 360.000 C 110.678 360.000,108.441 362.152,105.818 364.782 " stroke="none" fill="#8c8c8c" fill-rule="evenodd"></path><path id="path4" d="M298.800 47.325 C 298.800 47.394,299.385 47.979,300.100 48.625 L 301.400 49.800 300.225 48.500 C 299.130 47.288,298.800 47.016,298.800 47.325 M288.981 96.500 L 287.400 98.200 289.000 96.748 C 289.880 95.950,290.870 95.199,291.200 95.080 C 291.721 94.892,291.718 94.859,291.181 94.832 C 290.841 94.814,289.851 95.565,288.981 96.500 M224.399 139.900 L 190.200 174.200 224.500 140.001 C 243.365 121.191,258.800 105.756,258.800 105.701 C 258.800 105.421,256.192 108.014,224.399 139.900 M281.394 126.900 L 276.200 132.200 281.500 127.006 C 286.423 122.181,286.981 121.600,286.694 121.600 C 286.636 121.600,284.251 123.985,281.394 126.900 M250.174 133.242 C 250.023 133.486,250.504 134.251,251.241 134.942 L 252.582 136.200 251.447 134.933 C 250.823 134.235,250.433 133.470,250.580 133.233 C 250.727 132.995,250.757 132.800,250.647 132.800 C 250.537 132.800,250.324 132.999,250.174 133.242 M257.200 141.000 C 259.723 143.530,261.877 145.600,261.987 145.600 C 262.097 145.600,260.123 143.530,257.600 141.000 C 255.077 138.470,252.923 136.400,252.813 136.400 C 252.703 136.400,254.677 138.470,257.200 141.000 M246.447 136.900 C 246.547 136.955,249.412 139.700,252.814 143.000 L 259.000 149.000 253.005 142.900 C 249.708 139.545,246.843 136.800,246.638 136.800 C 246.434 136.800,246.348 136.845,246.447 136.900 M244.000 139.438 C 244.000 139.643,246.745 142.508,250.100 145.805 L 256.200 151.800 250.200 145.614 C 246.900 142.212,244.155 139.347,244.100 139.247 C 244.045 139.148,244.000 139.234,244.000 139.438 M240.162 143.262 C 239.976 143.562,240.053 143.614,240.382 143.411 C 240.722 143.201,242.950 145.125,247.144 149.249 L 253.400 155.400 247.205 149.100 C 240.851 142.639,240.650 142.472,240.162 143.262 M262.196 151.300 L 255.400 158.200 262.300 151.404 C 266.095 147.667,269.200 144.562,269.200 144.504 C 269.200 144.219,268.509 144.890,262.196 151.300 M237.445 145.927 C 237.334 146.107,239.708 148.672,242.722 151.627 L 248.200 157.000 242.886 151.581 C 239.963 148.600,237.698 146.035,237.853 145.881 C 238.007 145.726,238.024 145.600,237.890 145.600 C 237.757 145.600,237.556 145.747,237.445 145.927 M239.400 154.800 C 242.254 157.660,244.678 160.000,244.788 160.000 C 244.898 160.000,242.654 157.660,239.800 154.800 C 236.946 151.940,234.522 149.600,234.412 149.600 C 234.302 149.600,236.546 151.940,239.400 154.800 M166.975 156.500 L 165.800 157.800 167.100 156.625 C 167.815 155.979,168.400 155.394,168.400 155.325 C 168.400 155.016,168.070 155.288,166.975 156.500 M172.800 157.000 C 173.546 157.770,174.247 158.400,174.357 158.400 C 174.467 158.400,173.946 157.770,173.200 157.000 C 172.454 156.230,171.753 155.600,171.643 155.600 C 171.533 155.600,172.054 156.230,172.800 157.000 M164.175 158.900 L 163.000 160.200 164.300 159.025 C 165.512 157.930,165.784 157.600,165.475 157.600 C 165.406 157.600,164.821 158.185,164.175 158.900 M229.400 165.600 C 232.474 168.680,235.079 171.200,235.189 171.200 C 235.299 171.200,232.874 168.680,229.800 165.600 C 226.726 162.520,224.121 160.000,224.011 160.000 C 223.901 160.000,226.326 162.520,229.400 165.600 M172.175 161.700 L 171.000 163.000 172.300 161.825 C 173.015 161.179,173.600 160.594,173.600 160.525 C 173.600 160.216,173.270 160.488,172.175 161.700 M233.000 162.000 C 233.859 162.880,234.652 163.600,234.762 163.600 C 234.872 163.600,234.259 162.880,233.400 162.000 C 232.541 161.120,231.748 160.400,231.638 160.400 C 231.528 160.400,232.141 161.120,233.000 162.000 M220.159 163.300 C 220.001 163.575,220.025 163.660,220.213 163.489 C 220.401 163.318,221.645 164.218,222.977 165.489 L 225.400 167.800 223.013 165.300 C 220.319 162.479,220.542 162.636,220.159 163.300 M168.581 164.900 L 167.000 166.600 168.700 165.019 C 170.281 163.548,170.584 163.200,170.281 163.200 C 170.216 163.200,169.451 163.965,168.581 164.900 M156.581 165.700 L 155.000 167.400 156.700 165.819 C 158.281 164.348,158.584 164.000,158.281 164.000 C 158.216 164.000,157.451 164.765,156.581 165.700 M162.000 171.000 C 161.028 171.990,160.323 172.800,160.433 172.800 C 160.543 172.800,161.428 171.990,162.400 171.000 C 163.372 170.010,164.077 169.200,163.967 169.200 C 163.857 169.200,162.972 170.010,162.000 171.000 M229.253 171.800 C 230.492 173.120,231.603 174.470,231.722 174.800 C 231.910 175.325,231.941 175.323,231.968 174.787 C 231.986 174.451,230.875 173.101,229.500 171.787 L 227.000 169.400 229.253 171.800 M143.400 173.600 C 143.240 173.858,143.290 174.250,143.510 174.470 C 143.776 174.736,144.006 174.713,144.200 174.400 C 144.360 174.142,144.310 173.750,144.090 173.530 C 143.824 173.264,143.594 173.287,143.400 173.600 M147.583 176.900 C 149.241 178.666,149.600 178.984,149.600 178.683 C 149.600 178.619,148.745 177.764,147.700 176.783 L 145.800 175.000 147.583 176.900 M153.719 177.958 C 153.316 178.604,153.347 178.708,153.921 178.623 C 154.294 178.569,154.569 178.401,154.530 178.252 C 154.291 177.325,154.147 177.272,153.719 177.958 M217.800 182.000 C 219.106 183.320,220.265 184.400,220.375 184.400 C 220.485 184.400,219.506 183.320,218.200 182.000 C 216.894 180.680,215.735 179.600,215.625 179.600 C 215.515 179.600,216.494 180.680,217.800 182.000 M211.600 182.200 C 212.795 183.410,213.863 184.400,213.973 184.400 C 214.083 184.400,213.195 183.410,212.000 182.200 C 210.805 180.990,209.737 180.000,209.627 180.000 C 209.517 180.000,210.405 180.990,211.600 182.200 M202.800 180.639 C 202.800 180.843,205.365 183.528,208.500 186.605 L 214.200 192.200 208.600 186.414 C 205.520 183.232,202.955 180.547,202.900 180.447 C 202.845 180.348,202.800 180.434,202.800 180.639 M115.399 206.897 C 101.319 221.030,91.519 230.924,93.620 228.884 C 95.722 226.844,97.596 225.315,97.785 225.487 C 97.974 225.659,98.019 225.608,97.885 225.373 C 97.655 224.968,106.885 215.400,107.506 215.400 C 107.668 215.400,107.765 215.296,107.723 215.170 C 107.616 214.848,116.110 206.423,116.600 206.367 C 116.820 206.341,116.965 206.189,116.923 206.030 C 116.833 205.688,125.260 197.216,125.700 197.207 C 125.865 197.203,125.978 197.088,125.952 196.952 C 125.925 196.815,129.389 193.215,133.648 188.952 C 137.907 184.688,141.304 181.200,141.195 181.200 C 141.086 181.200,129.478 192.763,115.399 206.897 M205.000 189.600 C 208.074 192.680,210.679 195.200,210.789 195.200 C 210.899 195.200,208.474 192.680,205.400 189.600 C 202.326 186.520,199.721 184.000,199.611 184.000 C 199.501 184.000,201.926 186.520,205.000 189.600 M216.450 187.000 C 217.028 187.660,217.598 188.470,217.719 188.800 C 217.907 189.317,217.941 189.313,217.968 188.775 C 217.986 188.431,217.415 187.621,216.700 186.975 L 215.400 185.800 216.450 187.000 M195.845 187.527 C 195.518 188.057,207.035 199.326,207.654 199.080 C 208.080 198.911,208.068 198.856,207.595 198.832 C 206.812 198.791,195.882 187.852,196.253 187.481 C 196.407 187.326,196.424 187.200,196.290 187.200 C 196.157 187.200,195.956 187.347,195.845 187.527 M198.255 196.800 C 201.146 199.770,203.606 202.470,203.724 202.800 C 203.912 203.329,203.941 203.329,203.968 202.794 C 203.986 202.461,201.525 199.761,198.500 196.794 L 193.000 191.400 198.255 196.800 M190.982 192.430 C 190.836 192.666,191.095 193.262,191.558 193.755 C 192.581 194.844,192.596 195.104,191.700 196.169 C 191.001 196.999,191.001 196.999,191.900 196.238 C 193.013 195.296,193.033 194.735,191.986 193.787 C 191.538 193.382,191.262 192.814,191.373 192.525 C 191.616 191.893,191.353 191.829,190.982 192.430 M178.975 196.500 L 177.800 197.800 179.100 196.625 C 180.312 195.530,180.584 195.200,180.275 195.200 C 180.206 195.200,179.621 195.785,178.975 196.500 M132.034 197.447 C 132.565 198.133,133.080 198.623,133.179 198.535 C 133.277 198.447,132.843 197.886,132.213 197.288 L 131.069 196.200 132.034 197.447 M189.178 198.700 L 187.800 200.200 189.300 198.822 C 190.125 198.063,190.800 197.388,190.800 197.322 C 190.800 197.016,190.462 197.304,189.178 198.700 M190.600 203.200 C 192.128 204.740,193.469 206.000,193.579 206.000 C 193.689 206.000,192.528 204.740,191.000 203.200 C 189.472 201.660,188.131 200.400,188.021 200.400 C 187.911 200.400,189.072 201.660,190.600 203.200 M179.600 205.800 C 182.123 208.330,184.277 210.400,184.387 210.400 C 184.497 210.400,182.523 208.330,180.000 205.800 C 177.477 203.270,175.323 201.200,175.213 201.200 C 175.103 201.200,177.077 203.270,179.600 205.800 M174.184 220.802 C 168.675 226.301,164.266 230.800,164.387 230.800 C 164.507 230.800,169.103 226.300,174.600 220.800 C 180.097 215.300,184.505 210.801,184.397 210.802 C 184.289 210.803,179.693 215.303,174.184 220.802 M96.559 226.962 C 96.441 227.271,96.407 228.126,96.483 228.862 C 96.606 230.035,96.647 229.966,96.815 228.300 C 97.011 226.352,96.939 225.974,96.559 226.962 M131.600 231.400 C 130.628 232.390,129.923 233.200,130.033 233.200 C 130.143 233.200,131.028 232.390,132.000 231.400 C 132.972 230.410,133.677 229.600,133.567 229.600 C 133.457 229.600,132.572 230.410,131.600 231.400 M114.198 252.900 L 94.600 272.600 114.300 253.002 C 125.135 242.222,134.000 233.357,134.000 233.302 C 134.000 233.020,132.415 234.589,114.198 252.900 M89.505 236.283 C 90.002 236.379,90.722 236.375,91.105 236.275 C 91.487 236.175,91.080 236.096,90.200 236.101 C 89.320 236.105,89.007 236.187,89.505 236.283 M125.200 237.800 C 124.228 238.790,123.523 239.600,123.633 239.600 C 123.743 239.600,124.628 238.790,125.600 237.800 C 126.572 236.810,127.277 236.000,127.167 236.000 C 127.057 236.000,126.172 236.810,125.200 237.800 M146.949 240.683 C 147.105 240.838,133.950 254.293,117.716 270.583 L 88.200 300.200 117.877 270.624 C 134.199 254.358,147.463 240.903,147.353 240.724 C 147.243 240.546,147.043 240.400,146.910 240.400 C 146.776 240.400,146.794 240.527,146.949 240.683 M131.781 243.300 L 130.200 245.000 131.900 243.419 C 133.481 241.948,133.784 241.600,133.481 241.600 C 133.416 241.600,132.651 242.365,131.781 243.300 M93.599 243.100 C 94.122 243.815,94.613 244.400,94.689 244.400 C 94.993 244.400,94.001 242.900,93.345 242.367 C 92.913 242.016,93.010 242.296,93.599 243.100 M115.200 247.800 C 114.228 248.790,113.523 249.600,113.633 249.600 C 113.743 249.600,114.628 248.790,115.600 247.800 C 116.572 246.810,117.277 246.000,117.167 246.000 C 117.057 246.000,116.172 246.810,115.200 247.800 M126.386 248.700 L 124.200 251.000 126.500 248.814 C 128.637 246.782,128.983 246.400,128.686 246.400 C 128.624 246.400,127.589 247.435,126.386 248.700 M108.800 254.200 C 107.828 255.190,107.123 256.000,107.233 256.000 C 107.343 256.000,108.228 255.190,109.200 254.200 C 110.172 253.210,110.877 252.400,110.767 252.400 C 110.657 252.400,109.772 253.210,108.800 254.200 M120.581 254.500 L 119.000 256.200 120.700 254.619 C 122.281 253.148,122.584 252.800,122.281 252.800 C 122.216 252.800,121.451 253.565,120.581 254.500 M92.451 270.591 C 91.543 271.576,90.800 272.506,90.800 272.658 C 90.800 272.809,90.859 272.858,90.932 272.767 C 91.004 272.675,91.837 271.745,92.783 270.700 C 93.728 269.655,94.412 268.800,94.302 268.800 C 94.192 268.800,93.359 269.606,92.451 270.591 M66.100 296.276 C 66.485 296.376,67.115 296.376,67.500 296.276 C 67.885 296.175,67.570 296.093,66.800 296.093 C 66.030 296.093,65.715 296.175,66.100 296.276 M73.781 308.500 L 72.200 310.200 73.864 308.654 C 74.905 307.686,75.714 307.223,76.026 307.416 C 76.347 307.615,76.422 307.560,76.238 307.262 C 75.786 306.529,75.463 306.692,73.781 308.500 M66.000 317.356 C 66.000 317.442,66.617 317.585,67.372 317.673 C 68.127 317.761,68.656 317.690,68.548 317.516 C 68.355 317.203,66.000 317.055,66.000 317.356 M72.500 327.876 C 72.885 327.976,73.515 327.976,73.900 327.876 C 74.285 327.775,73.970 327.693,73.200 327.693 C 72.430 327.693,72.115 327.775,72.500 327.876 M75.700 327.876 C 76.085 327.976,76.715 327.976,77.100 327.876 C 77.485 327.775,77.170 327.693,76.400 327.693 C 75.630 327.693,75.315 327.775,75.700 327.876 " stroke="none" fill="#9c9c9c" fill-rule="evenodd"></path></g></svg>